{
.appVersion = "1355";
copyright = "Copyright 2021 Google LLC. All Rights Reserved.";
customParameters = (
{
name = description;
value = "This font is designed based on Nüshu Duben, which the designer is Liu Zhao, the engineering is Eiso Chan, the quality assurance is Kushim Jiang, the design assistant is Kwat Ulan, and the copywriting is Zhu Kui, and the adviser is Ms. He Yanxin.";
},
{
name = trademark;
value = "Noto is a trademark of Google LLC.";
},
{
name = licenseURL;
value = "http://scripts.sil.org/OFL";
},
{
name = sampleText;
value = "   ";
},
{
name = license;
value = "This Font Software is licensed under the SIL Open Font License, Version 1.1. This Font Software is distributed on an \"AS IS\" BASIS, WITHOUT WARRANTIES OR CONDITIONS OF ANY KIND, either express or implied. See the SIL Open Font License for the specific language, permissions and limitations governing your use of this Font Software.";
},
{
name = vendorID;
value = GOOG;
},
{
name = panose;
value = (
2,
0,
6,
9,
0,
0,
0,
0,
0,
0
);
},
{
name = unicodeRanges;
value = (
0,
57,
59
);
},
{
name = fsType;
value = (
);
},
{
name = blueShift;
value = 1;
},
{
name = glyphOrder;
value = (
.notdef,
space,
comma,
hyphen,
period,
zero,
one,
two,
three,
four,
five,
six,
seven,
eight,
nine,
A,
B,
C,
D,
E,
F,
G,
H,
I,
J,
K,
L,
M,
N,
O,
P,
Q,
R,
S,
T,
U,
V,
W,
X,
Y,
Z,
a,
b,
c,
d,
e,
f,
g,
h,
i,
j,
k,
l,
m,
n,
o,
p,
q,
r,
s,
t,
u,
v,
w,
x,
y,
z,
ensp,
emsp,
uni3000,
uni4E00,
uni4E66,
uni4F20,
uni4F53,
uni5973,
uni7EDF,
u16FE1,
u1B170,
u1B171,
u1B172,
u1B173,
u1B174,
u1B175,
u1B176,
u1B177,
u1B178,
u1B179,
u1B17A,
u1B17B,
u1B17C,
u1B17D,
u1B17E,
u1B17F,
u1B180,
u1B181,
u1B182,
u1B183,
u1B184,
u1B185,
u1B186,
u1B187,
u1B188,
u1B189,
u1B18A,
u1B18B,
u1B18C,
u1B18D,
u1B18E,
u1B18F,
u1B190,
u1B191,
u1B192,
u1B193,
u1B194,
u1B195,
u1B196,
u1B197,
u1B198,
u1B199,
u1B19A,
u1B19B,
u1B19C,
u1B19D,
u1B19E,
u1B19F,
u1B1A0,
u1B1A1,
u1B1A2,
u1B1A3,
u1B1A4,
u1B1A5,
u1B1A6,
u1B1A7,
u1B1A8,
u1B1A9,
u1B1AA,
u1B1AB,
u1B1AC,

glyphs = (
{
glyphname = .notdef;
layers = (
{
hints = (
{
horizontal = 1;
place = "{0, 34}";
type = Stem;
},
{
horizontal = 1;
place = "{648, 34}";
type = Stem;
},
{
place = "{364, 34}";
type = Stem;
},
{
place = "{602, 34}";
type = Stem;
}
);
layerId = "A026023B-92C1-4D03-AC7E-471A27A73077";
paths = (
{
closed = 1;
nodes = (
"364 0 LINE",
"636 0 LINE",
"636 682 LINE",
"364 682 LINE"
);
},
{
closed = 1;
nodes = (
"398 34 LINE",
"398 648 LINE",
"602 648 LINE",
"602 34 LINE"
);
}
);
vertWidth = 1200;
width = 1000;
}
);
note = .notdef;
},
{
glyphname = comma;
layers = (
{
hints = (
{
horizontal = 1;
place = "{-5, 101}";
type = Stem;
},
{
place = "{141, 49}";
type = Stem;
},
{
horizontal = 1;
place = "{-4, 21}";
target = up;
type = BottomGhost;
}
);
layerId = "A026023B-92C1-4D03-AC7E-471A27A73077";
paths = (
{
closed = 1;
nodes = (
"70 -176 LINE",
"81.86 -169.92 OFFCURVE",
"93.38 -162.83 OFFCURVE",
"104.55 -154.74 CURVE SMOOTH",
"161.51 -112.7 OFFCURVE",
"190 -57.79 OFFCURVE",
"190 10 CURVE SMOOTH",
"189.92 22.35 OFFCURVE",
"188.55 34.04 OFFCURVE",
"185.88 45.06 CURVE SMOOTH",
"177.08 79.02 OFFCURVE",
"158.45 96 OFFCURVE",
"130 96 CURVE SMOOTH",
"123.84 96 OFFCURVE",
"117.87 95.09 OFFCURVE",
"112.1 93.28 CURVE SMOOTH",
"88.7 85.92 OFFCURVE",
"77 70.16 OFFCURVE",
"77 46 CURVE SMOOTH",
"77.1 39.61 OFFCURVE",
"78.12 33.31 OFFCURVE",
"80.03 27.1 CURVE SMOOTH",
"87.5 5.7 OFFCURVE",
"103.82 -5 OFFCURVE",
"129 -5 CURVE SMOOTH",
"133.7 -4.99 OFFCURVE",
"137.7 -4.66 OFFCURVE",
"141 -4 CURVE",
"140.98 -7.16 OFFCURVE",
"140.85 -10.64 OFFCURVE",
"140.63 -14.44 CURVE SMOOTH",
"136.8 -67.98 OFFCURVE",
"107.59 -109.16 OFFCURVE",
"53 -138 CURVE"
);
}
);
vertWidth = 1000;
width = 250;
}
);
note = comma;
unicode = 002C;
},
{
glyphname = hyphen;
layers = (
{
hints = (
{
horizontal = 1;
place = "{252, 49}";
type = Stem;
},
{
place = "{45, 246}";
type = Stem;
}
);
layerId = "A026023B-92C1-4D03-AC7E-471A27A73077";
paths = (
{
closed = 1;
nodes = (
"45 252 LINE",
"291 252 LINE",
"291 301 LINE",
"45 301 LINE"
);
}
);
vertWidth = 1000;
width = 333;
}
);
note = hyphen;
unicode = 002D;
},
{
glyphname = period;
layers = (
{
hints = (
{
horizontal = 1;
place = "{-13, 21}";
target = up;
type = BottomGhost;
},
{
place = "{74, 102}";
type = Stem;
},
{
horizontal = 1;
place = "{-13, 109}";
type = Stem;
}
);
layerId = "A026023B-92C1-4D03-AC7E-471A27A73077";
paths = (
{
closed = 1;
nodes = (
"131.49 -13 OFFCURVE",
"137.72 -11.82 OFFCURVE",
"143.69 -9.47 CURVE SMOOTH",
"165.23 -0.98 OFFCURVE",
"176 15.84 OFFCURVE",
"176 41 CURVE SMOOTH",
"175.88 48.99 OFFCURVE",
"174.44 56.76 OFFCURVE",
"171.68 64.3 CURVE SMOOTH",
"163.14 85.43 OFFCURVE",
"147.58 96 OFFCURVE",
"125 96 CURVE SMOOTH",
"118.98 95.88 OFFCURVE",
"112.86 94.74 OFFCURVE",
"106.63 92.59 CURVE SMOOTH",
"84.87 84.14 OFFCURVE",
"74 66.94 OFFCURVE",
"74 41 CURVE SMOOTH",
"74.13 33.1 OFFCURVE",
"75.62 25.4 OFFCURVE",
"78.47 17.91 CURVE SMOOTH",
"87.16 -2.7 OFFCURVE",
"102.67 -13 OFFCURVE",
"125 -13 CURVE SMOOTH"
);
}
);
vertWidth = 1000;
width = 250;
}
);
note = period;
unicode = 002E;
},
{
glyphname = zero;
layers = (
{
hints = (
{
horizontal = 1;
place = "{-13, 49}";
type = Stem;
},
{
horizontal = 1;
place = "{693, 49}";
type = Stem;
},
{
place = "{53, 58}";
type = Stem;
},
{
place = "{424, 58}";
type = Stem;
}
);
layerId = "A026023B-92C1-4D03-AC7E-471A27A73077";
paths = (
{
closed = 1;
nodes = (
"298.41 -13 OFFCURVE",
"325.88 -6.47 OFFCURVE",
"350.42 6.6 CURVE SMOOTH",
"438.14 53.31 OFFCURVE",
"482 173.44 OFFCURVE",
"482 367 CURVE SMOOTH",
"481.92 446.14 OFFCURVE",
"473.87 513.78 OFFCURVE",
"457.86 569.93 CURVE SMOOTH",
"424.67 684.64 OFFCURVE",
"361.39 742 OFFCURVE",
"268 742 CURVE SMOOTH",
"239.18 741.85 OFFCURVE",
"212.64 735.99 OFFCURVE",
"188.39 724.41 CURVE SMOOTH",
"98.13 679.96 OFFCURVE",
"53 560.82 OFFCURVE",
"53 367 CURVE SMOOTH",
"53.08 287.26 OFFCURVE",
"61.06 219.04 OFFCURVE",
"76.94 162.35 CURVE SMOOTH",
"110.15 45.45 OFFCURVE",
"173.84 -13 OFFCURVE",
"268 -13 CURVE SMOOTH"
);
},
{
closed = 1;
nodes = (
"246.2 36.19 OFFCURVE",
"226.01 42.15 OFFCURVE",
"207.42 53.87 CURVE SMOOTH",
"143.14 96.05 OFFCURVE",
"111 200.43 OFFCURVE",
"111 367 CURVE SMOOTH",
"111.08 442.84 OFFCURVE",
"118.62 506.79 OFFCURVE",
"133.62 558.86 CURVE SMOOTH",
"159.78 648.29 OFFCURVE",
"204.58 693 OFFCURVE",
"268 693 CURVE SMOOTH",
"290.48 692.8 OFFCURVE",
"311.24 686.4 OFFCURVE",
"330.27 673.81 CURVE SMOOTH",
"392.75 630.84 OFFCURVE",
"424 528.57 OFFCURVE",
"424 367 CURVE SMOOTH",
"423.92 287.78 OFFCURVE",
"416 221.38 OFFCURVE",
"400.23 167.82 CURVE SMOOTH",
"373.97 79.94 OFFCURVE",
"329.89 36 OFFCURVE",
"268 36 CURVE SMOOTH"
);
}
);
vertWidth = 1000;
width = 535;
}
);
note = zero;
unicode = 0030;
},
{
glyphname = one;
layers = (
{
hints = (
{
horizontal = 1;
place = "{0, 51}";
type = Stem;
},
{
horizontal = 1;
place = "{644, 85}";
type = Stem;
},
{
place = "{257, 59}";
type = Stem;
},
{
place = "{130, 186}";
type = Stem;
}
);
layerId = "A026023B-92C1-4D03-AC7E-471A27A73077";
paths = (
{
closed = 1;
nodes = (
"92 0 LINE",
"468 0 LINE",
"468 51 LINE",
"316 51 LINE",
"316 729 LINE",
"269 729 LINE",
"231.91 707.96 OFFCURVE",
"185.58 692.62 OFFCURVE",
"130 683 CURVE",
"130 644 LINE",
"257 644 LINE",
"257 51 LINE",
"92 51 LINE"
);
}
);
vertWidth = 1000;
width = 535;
}
);
note = one;
unicode = 0031;
},
{
glyphname = two;
layers = (
{
hints = (
{
horizontal = 1;
place = "{0, 52}";
type = Stem;
},
{
horizontal = 1;
place = "{693, 49}";
type = Stem;
},
{
place = "{390, 59}";
type = Stem;
}
);
layerId = "A026023B-92C1-4D03-AC7E-471A27A73077";
paths = (
{
closed = 1;
nodes = (
"45 0 LINE",
"484 0 LINE",
"484 52 LINE",
"257 52 LINE SMOOTH",
"230.5 51.97 OFFCURVE",
"190.5 49.97 OFFCURVE",
"137 46 CURVE",
"190.44 95.91 OFFCURVE",
"236.24 142.06 OFFCURVE",
"274.39 184.46 CURVE SMOOTH",
"390.8 314.26 OFFCURVE",
"449 430.44 OFFCURVE",
"449 533 CURVE SMOOTH",
"448.84 577.11 OFFCURVE",
"439.78 615.74 OFFCURVE",
"421.81 648.89 CURVE SMOOTH",
"387.37 710.96 OFFCURVE",
"329.1 742 OFFCURVE",
"247 742 CURVE SMOOTH",
"243.5 741.99 OFFCURVE",
"239.68 741.9 OFFCURVE",
"235.56 741.75 CURVE SMOOTH",
"166.73 738.69 OFFCURVE",
"102.21 703.77 OFFCURVE",
"42 637 CURVE",
"79 602 LINE",
"127.85 662.03 OFFCURVE",
"181.85 692.36 OFFCURVE",
"241 693 CURVE SMOOTH",
"268.31 692.86 OFFCURVE",
"292.6 687.74 OFFCURVE",
"313.87 677.66 CURVE SMOOTH",
"364.62 652.69 OFFCURVE",
"390 603.81 OFFCURVE",
"390 531 CURVE SMOOTH",
"389.9 503.2 OFFCURVE",
"385.42 474.54 OFFCURVE",
"376.55 445 CURVE SMOOTH",
"342.31 333.42 OFFCURVE",
"231.8 197.08 OFFCURVE",
"45 36 CURVE"
);
}
);
vertWidth = 1000;
width = 535;
}
);
note = two;
unicode = 0032;
},
{
glyphname = three;
layers = (
{
hints = (
{
horizontal = 1;
place = "{-13, 50}";
type = Stem;
},
{
horizontal = 1;
place = "{357, 49}";
type = Stem;
},
{
horizontal = 1;
place = "{693, 49}";
type = Stem;
},
{
place = "{176, 142}";
type = Stem;
},
{
place = "{418, 60}";
type = Stem;
},
{
place = "{392, 60}";
type = Stem;
}
);
layerId = "A026023B-92C1-4D03-AC7E-471A27A73077";
paths = (
{
closed = 1;
nodes = (
"308.75 -12.8 OFFCURVE",
"353.24 -0.29 OFFCURVE",
"391.47 24.54 CURVE SMOOTH",
"449.16 62.77 OFFCURVE",
"478 118.92 OFFCURVE",
"478 193 CURVE SMOOTH",
"477.83 225.91 OFFCURVE",
"470.45 256.14 OFFCURVE",
"455.85 283.71 CURVE SMOOTH",
"428.07 334.73 OFFCURVE",
"382.12 367.16 OFFCURVE",
"318 381 CURVE",
"318 386 LINE",
"328.98 389.71 OFFCURVE",
"339.76 394.18 OFFCURVE",
"350.32 399.39 CURVE SMOOTH",
"418.11 433.62 OFFCURVE",
"452 489.16 OFFCURVE",
"452 566 CURVE SMOOTH",
"451.78 606.17 OFFCURVE",
"440.81 641.04 OFFCURVE",
"419.09 670.61 CURVE SMOOTH",
"383.17 718.21 OFFCURVE",
"328.47 742 OFFCURVE",
"255 742 CURVE SMOOTH",
"185.28 742 OFFCURVE",
"120.28 713.67 OFFCURVE",
"60 657 CURVE",
"94 617 LINE",
"140.14 666.18 OFFCURVE",
"193.47 691.51 OFFCURVE",
"254 693 CURVE SMOOTH",
"280.03 692.55 OFFCURVE",
"303.51 687.31 OFFCURVE",
"324.42 677.3 CURVE SMOOTH",
"369.47 654.94 OFFCURVE",
"392 616.51 OFFCURVE",
"392 562 CURVE SMOOTH",
"391.95 551.71 OFFCURVE",
"391.11 541.53 OFFCURVE",
"389.48 531.45 CURVE SMOOTH",
"375.01 447.81 OFFCURVE",
"303.85 406 OFFCURVE",
"176 406 CURVE",
"176 357 LINE",
"189.19 356.98 OFFCURVE",
"202.2 356.58 OFFCURVE",
"215.04 355.8 CURVE SMOOTH",
"350.35 347.09 OFFCURVE",
"418 293.15 OFFCURVE",
"418 194 CURVE SMOOTH",
"417.8 159.86 OFFCURVE",
"409.18 129.69 OFFCURVE",
"392.15 103.5 CURVE SMOOTH",
"362.45 59.17 OFFCURVE",
"317.06 37 OFFCURVE",
"256 37 CURVE SMOOTH",
"184.01 37.36 OFFCURVE",
"120.01 67.02 OFFCURVE",
"64 126 CURVE",
"31 87 LINE",
"93.42 20.77 OFFCURVE",
"169.09 -12.57 OFFCURVE",
"258 -13 CURVE SMOOTH"
);
}
);
vertWidth = 1000;
width = 535;
}
);
note = three;
unicode = 0033;
},
{
glyphname = four;
layers = (
{
hints = (
{
horizontal = 1;
place = "{0, 21}";
target = up;
type = BottomGhost;
},
{
horizontal = 1;
place = "{208, 49}";
type = Stem;
},
{
horizontal = 1;
place = "{647, 82}";
type = Stem;
},
{
place = "{342, 56}";
type = Stem;
},
{
place = "{342, 159}";
type = Stem;
}
);
layerId = "A026023B-92C1-4D03-AC7E-471A27A73077";
paths = (
{
closed = 1;
nodes = (
"86 257 LINE",
"284 546 LINE SMOOTH",
"304.67 578.55 OFFCURVE",
"324 612.22 OFFCURVE",
"342 647 CURVE",
"347 647 LINE",
"343.72 609.21 OFFCURVE",
"342.05 568.88 OFFCURVE",
"342 526 CURVE SMOOTH",
"342 257 LINE"
);
},
{
closed = 1;
nodes = (
"342 0 LINE",
"398 0 LINE",
"398 208 LINE",
"501 208 LINE",
"501 257 LINE",
"398 257 LINE",
"398 729 LINE",
"341 729 LINE",
"19 245 LINE",
"19 208 LINE",
"342 208 LINE"
);
}
);
vertWidth = 1000;
width = 535;
}
);
note = four;
unicode = 0034;
},
{
glyphname = five;
layers = (
{
hints = (
{
horizontal = 1;
place = "{-13, 50}";
type = Stem;
},
{
horizontal = 1;
place = "{419, 49}";
type = Stem;
},
{
horizontal = 1;
place = "{678, 51}";
type = Stem;
},
{
place = "{421, 60}";
type = Stem;
}
);
layerId = "A026023B-92C1-4D03-AC7E-471A27A73077";
paths = (
{
closed = 1;
nodes = (
"303.48 -12.76 OFFCURVE",
"348.92 2.52 OFFCURVE",
"389.34 32.84 CURVE SMOOTH",
"450.45 79.51 OFFCURVE",
"481 146.57 OFFCURVE",
"481 234 CURVE SMOOTH",
"480.83 289.48 OFFCURVE",
"469.57 336.31 OFFCURVE",
"447.22 374.5 CURVE SMOOTH",
"409.93 436.83 OFFCURVE",
"349.19 468 OFFCURVE",
"265 468 CURVE SMOOTH",
"223.05 467.81 OFFCURVE",
"182.38 456.14 OFFCURVE",
"143 433 CURVE",
"164 678 LINE",
"445 678 LINE",
"445 729 LINE",
"112 729 LINE",
"87 396 LINE",
"125 373 LINE",
"126.6 374.09 OFFCURVE",
"128.5 375.37 OFFCURVE",
"130.68 376.84 CURVE SMOOTH",
"172.75 404.95 OFFCURVE",
"213.86 419 OFFCURVE",
"254 419 CURVE SMOOTH",
"286.61 418.83 OFFCURVE",
"315.62 411.58 OFFCURVE",
"341.03 397.24 CURVE SMOOTH",
"394.34 366.23 OFFCURVE",
"421 311.15 OFFCURVE",
"421 232 CURVE SMOOTH",
"420.78 183.05 OFFCURVE",
"408.01 140.79 OFFCURVE",
"382.69 105.21 CURVE SMOOTH",
"349.59 59.74 OFFCURVE",
"305.69 37 OFFCURVE",
"251 37 CURVE SMOOTH",
"240.63 37.03 OFFCURVE",
"230.22 37.57 OFFCURVE",
"219.76 38.61 CURVE SMOOTH",
"160.99 44.86 OFFCURVE",
"107.73 72.99 OFFCURVE",
"60 123 CURVE",
"28 82 LINE",
"30.05 80 OFFCURVE",
"32.39 77.75 OFFCURVE",
"35.03 75.24 CURVE SMOOTH",
"97.25 16.41 OFFCURVE",
"169.91 -13 OFFCURVE",
"253 -13 CURVE SMOOTH"
);
}
);
vertWidth = 1000;
width = 535;
}
);
note = five;
unicode = 0035;
},
{
glyphname = six;
layers = (
{
hints = (
{
horizontal = 1;
place = "{-13, 49}";
type = Stem;
},
{
horizontal = 1;
place = "{402, 47}";
type = Stem;
},
{
horizontal = 1;
place = "{692, 50}";
type = Stem;
},
{
place = "{59, 58}";
type = Stem;
},
{
place = "{433, 57}";
type = Stem;
},
{
place = "{59, 57}";
type = Stem;
}
);
layerId = "A026023B-92C1-4D03-AC7E-471A27A73077";
paths = (
{
closed = 1;
nodes = (
"304.85 401.89 OFFCURVE",
"324.03 398.72 OFFCURVE",
"341.55 392.48 CURVE SMOOTH",
"402.51 369.82 OFFCURVE",
"433 312.32 OFFCURVE",
"433 220 CURVE SMOOTH",
"432.82 176.6 OFFCURVE",
"423.31 138.37 OFFCURVE",
"404.48 105.3 CURVE SMOOTH",
"377.54 59.1 OFFCURVE",
"340.71 36 OFFCURVE",
"294 36 CURVE SMOOTH",
"275.56 36.11 OFFCURVE",
"258.08 39.05 OFFCURVE",
"241.55 44.8 CURVE SMOOTH",
"166.47 72.15 OFFCURVE",
"124.95 156.55 OFFCURVE",
"117 298 CURVE",
"121.06 303.48 OFFCURVE",
"125.46 309.1 OFFCURVE",
"130.19 314.89 CURVE SMOOTH",
"178.38 372.97 OFFCURVE",
"229.64 402 OFFCURVE",
"284 402 CURVE SMOOTH"
);
},
{
closed = 1;
nodes = (
"338.41 -12.71 OFFCURVE",
"379.13 3.63 OFFCURVE",
"415.18 36.02 CURVE SMOOTH",
"465.06 81.77 OFFCURVE",
"490 143.1 OFFCURVE",
"490 220 CURVE SMOOTH",
"489.9 260.38 OFFCURVE",
"484.46 296.21 OFFCURVE",
"473.7 327.51 CURVE SMOOTH",
"445.14 408.5 OFFCURVE",
"384.58 449 OFFCURVE",
"292 449 CURVE SMOOTH",
"288.35 448.98 OFFCURVE",
"284.35 448.84 OFFCURVE",
"280 448.58 CURVE SMOOTH",
"218.48 444.3 OFFCURVE",
"163.81 412.77 OFFCURVE",
"116 354 CURVE",
"117.01 430.32 OFFCURVE",
"126.43 494.61 OFFCURVE",
"144.27 546.88 CURVE SMOOTH",
"177.8 643.62 OFFCURVE",
"237.04 692 OFFCURVE",
"322 692 CURVE SMOOTH",
"369.32 691.65 OFFCURVE",
"408.99 672.31 OFFCURVE",
"441 634 CURVE",
"476 672 LINE",
"433.93 718.13 OFFCURVE",
"382.26 741.46 OFFCURVE",
"321 742 CURVE SMOOTH",
"276.97 741.83 OFFCURVE",
"237.19 731.23 OFFCURVE",
"201.65 710.21 CURVE SMOOTH",
"106.55 652.81 OFFCURVE",
"59 530.74 OFFCURVE",
"59 344 CURVE SMOOTH",
"59.13 252.65 OFFCURVE",
"73.28 176.87 OFFCURVE",
"101.44 116.67 CURVE SMOOTH",
"142.44 30.22 OFFCURVE",
"206.29 -13 OFFCURVE",
"293 -13 CURVE SMOOTH"
);
}
);
vertWidth = 1000;
width = 535;
}
);
note = six;
unicode = 0036;
},
{
glyphname = seven;
layers = (
{
hints = (
{
horizontal = 1;
place = "{0, 21}";
target = up;
type = BottomGhost;
},
{
horizontal = 1;
place = "{678, 51}";
type = Stem;
},
{
place = "{205, 63}";
type = Stem;
}
);
layerId = "A026023B-92C1-4D03-AC7E-471A27A73077";
paths = (
{
closed = 1;
nodes = (
"268 0 LINE",
"273.02 129.05 OFFCURVE",
"284.78 234.19 OFFCURVE",
"303.28 315.4 CURVE SMOOTH",
"333.31 446.15 OFFCURVE",
"394.88 572.35 OFFCURVE",
"488 694 CURVE",
"488 729 LINE",
"48 729 LINE",
"48 678 LINE",
"417 678 LINE",
"367.3 608.64 OFFCURVE",
"327.46 539.57 OFFCURVE",
"297.49 470.77 CURVE SMOOTH",
"243.65 346.41 OFFCURVE",
"212.82 189.49 OFFCURVE",
"205 0 CURVE"
);
}
);
vertWidth = 1000;
width = 535;
}
);
note = seven;
unicode = 0037;
},
{
glyphname = eight;
layers = (
{
hints = (
{
horizontal = 1;
place = "{-13, 47}";
type = Stem;
},
{
horizontal = 1;
place = "{692, 47}";
type = Stem;
},
{
place = "{431, 58}";
type = Stem;
},
{
place = "{84, 56}";
type = Stem;
},
{
place = "{411, 54}";
type = Stem;
},
{
place = "{45, 55}";
type = Stem;
}
);
layerId = "A026023B-92C1-4D03-AC7E-471A27A73077";
paths = (
{
closed = 1;
nodes = (
"326.05 -12.79 OFFCURVE",
"373.46 1.1 OFFCURVE",
"413.22 28.67 CURVE SMOOTH",
"463.74 64.41 OFFCURVE",
"489 112.18 OFFCURVE",
"489 172 CURVE SMOOTH",
"488.94 186.47 OFFCURVE",
"487.56 200.68 OFFCURVE",
"484.89 214.61 CURVE SMOOTH",
"473.25 272.12 OFFCURVE",
"433.29 321.24 OFFCURVE",
"365 362 CURVE",
"365 367 LINE",
"371.14 371.99 OFFCURVE",
"377.57 377.68 OFFCURVE",
"384.29 384.08 CURVE SMOOTH",
"438.09 436.08 OFFCURVE",
"465 490.72 OFFCURVE",
"465 548 CURVE SMOOTH",
"464.82 588.84 OFFCURVE",
"455.19 624.94 OFFCURVE",
"436.13 656.3 CURVE SMOOTH",
"401.8 711.43 OFFCURVE",
"347.09 739 OFFCURVE",
"272 739 CURVE SMOOTH",
"229.08 738.78 OFFCURVE",
"191.02 727.33 OFFCURVE",
"157.82 704.64 CURVE SMOOTH",
"108.61 670.23 OFFCURVE",
"84 621.68 OFFCURVE",
"84 559 CURVE SMOOTH",
"84.49 493.8 OFFCURVE",
"117.82 438.47 OFFCURVE",
"184 393 CURVE",
"184 389 LINE",
"170.56 381.71 OFFCURVE",
"157.36 373.24 OFFCURVE",
"144.39 363.58 CURVE SMOOTH",
"78.13 313.49 OFFCURVE",
"45 252.63 OFFCURVE",
"45 181 CURVE SMOOTH",
"45.27 135.58 OFFCURVE",
"60.29 95.58 OFFCURVE",
"90.06 60.98 CURVE SMOOTH",
"133.47 11.66 OFFCURVE",
"193.78 -13 OFFCURVE",
"271 -13 CURVE SMOOTH"
);
},
{
closed = 1;
nodes = (
"287.51 396.66 OFFCURVE",
"260.39 408.72 OFFCURVE",
"240.65 419.19 CURVE SMOOTH",
"173.55 455.1 OFFCURVE",
"140 501.71 OFFCURVE",
"140 559 CURVE SMOOTH",
"140.19 586.03 OFFCURVE",
"146.82 610.54 OFFCURVE",
"159.89 632.52 CURVE SMOOTH",
"184.31 672.18 OFFCURVE",
"221.34 692 OFFCURVE",
"271 692 CURVE SMOOTH",
"302.34 691.79 OFFCURVE",
"329.84 683.55 OFFCURVE",
"353.5 667.29 CURVE SMOOTH",
"391.83 640.03 OFFCURVE",
"411 599.6 OFFCURVE",
"411 546 CURVE SMOOTH",
"410.62 486.86 OFFCURVE",
"380.96 432.53 OFFCURVE",
"322 383 CURVE"
);
},
{
closed = 1;
nodes = (
"231.01 34 OFFCURVE",
"196.03 43.86 OFFCURVE",
"166.08 63.59 CURVE SMOOTH",
"122.03 92.6 OFFCURVE",
"100 132.74 OFFCURVE",
"100 184 CURVE SMOOTH",
"100.03 189.65 OFFCURVE",
"100.32 195.6 OFFCURVE",
"100.86 201.85 CURVE SMOOTH",
"107.42 269.05 OFFCURVE",
"146.8 324.1 OFFCURVE",
"219 367 CURVE",
"273.48 345.7 OFFCURVE",
"312.59 328.34 OFFCURVE",
"336.34 314.9 CURVE SMOOTH",
"399.45 278.85 OFFCURVE",
"431 231.55 OFFCURVE",
"431 173 CURVE SMOOTH",
"430.79 145.62 OFFCURVE",
"423.23 120.65 OFFCURVE",
"408.32 98.1 CURVE SMOOTH",
"379.12 55.37 OFFCURVE",
"333.34 34 OFFCURVE",
"271 34 CURVE SMOOTH"
);
}
);
vertWidth = 1000;
width = 535;
}
);
note = eight;
unicode = 0038;
},
{
glyphname = nine;
layers = (
{
hints = (
{
horizontal = 1;
place = "{-13, 50}";
type = Stem;
},
{
horizontal = 1;
place = "{280, 47}";
type = Stem;
},
{
horizontal = 1;
place = "{694, 48}";
type = Stem;
},
{
place = "{46, 58}";
type = Stem;
},
{
place = "{420, 58}";
type = Stem;
},
{
place = "{421, 57}";
type = Stem;
}
);
layerId = "A026023B-92C1-4D03-AC7E-471A27A73077";
paths = (
{
closed = 1;
nodes = (
"104.18 552.26 OFFCURVE",
"113.46 590.45 OFFCURVE",
"131.85 623.58 CURVE SMOOTH",
"158.54 670.53 OFFCURVE",
"195.25 694 OFFCURVE",
"242 694 CURVE SMOOTH",
"264.09 693.87 OFFCURVE",
"284.66 689.95 OFFCURVE",
"303.71 682.22 CURVE SMOOTH",
"376.14 651.69 OFFCURVE",
"414.91 568.95 OFFCURVE",
"420 434 CURVE",
"419.61 433.46 OFFCURVE",
"418.99 432.58 OFFCURVE",
"418.13 431.37 CURVE SMOOTH",
"368.09 361.79 OFFCURVE",
"312.05 327 OFFCURVE",
"250 327 CURVE SMOOTH",
"226.6 327.14 OFFCURVE",
"205.4 331.41 OFFCURVE",
"186.41 339.81 CURVE SMOOTH",
"131.47 365.13 OFFCURVE",
"104 421.53 OFFCURVE",
"104 509 CURVE SMOOTH"
);
},
{
closed = 1;
nodes = (
"265.87 -12.81 OFFCURVE",
"305.5 -1.05 OFFCURVE",
"340.88 22.26 CURVE SMOOTH",
"432.29 83.72 OFFCURVE",
"478 210.97 OFFCURVE",
"478 404 CURVE SMOOTH",
"477.86 489.66 OFFCURVE",
"463.87 560.92 OFFCURVE",
"436.01 617.77 CURVE SMOOTH",
"394.84 700.59 OFFCURVE",
"330.51 742 OFFCURVE",
"243 742 CURVE SMOOTH",
"197.52 741.71 OFFCURVE",
"156.79 725.48 OFFCURVE",
"120.82 693.3 CURVE SMOOTH",
"70.94 647.74 OFFCURVE",
"46 586.31 OFFCURVE",
"46 509 CURVE SMOOTH",
"46.12 463.5 OFFCURVE",
"53.25 423.73 OFFCURVE",
"67.37 389.71 CURVE SMOOTH",
"98.44 316.57 OFFCURVE",
"156.99 280 OFFCURVE",
"243 280 CURVE SMOOTH",
"307.73 280.42 OFFCURVE",
"367.07 312.75 OFFCURVE",
"421 377 CURVE",
"418.93 294.17 OFFCURVE",
"407.65 225.41 OFFCURVE",
"387.17 170.71 CURVE SMOOTH",
"353.31 81.57 OFFCURVE",
"298.58 37 OFFCURVE",
"223 37 CURVE SMOOTH",
"172.42 37.32 OFFCURVE",
"130.09 56.65 OFFCURVE",
"96 95 CURVE",
"61 57 LINE",
"105.24 10.84 OFFCURVE",
"158.9 -12.49 OFFCURVE",
"222 -13 CURVE SMOOTH"
);
}
);
vertWidth = 1000;
width = 535;
}
);
note = nine;
unicode = 0039;
},
{
glyphname = A;
layers = (
{
hints = (
{
horizontal = 1;
place = "{0, 21}";
target = up;
type = BottomGhost;
},
{
horizontal = 1;
place = "{245, 48}";
type = Stem;
},
{
horizontal = 1;
place = "{675, 54}";
type = Stem;
},
{
place = "{8, 572}";
type = Stem;
}
);
layerId = "A026023B-92C1-4D03-AC7E-471A27A73077";
paths = (
{
closed = 1;
nodes = (
"212 425 LINE SMOOTH",
"243.61 517.68 OFFCURVE",
"269.94 601.01 OFFCURVE",
"291 675 CURVE",
"295 675 LINE",
"323.08 580.01 OFFCURVE",
"349.74 496.68 OFFCURVE",
"375 425 CURVE SMOOTH",
"419 293 LINE",
"167 293 LINE"
);
},
{
closed = 1;
nodes = (
"8 0 LINE",
"68 0 LINE",
"151 245 LINE",
"435 245 LINE",
"516 0 LINE",
"580 0 LINE",
"325 729 LINE",
"263 729 LINE"
);
}
);
vertWidth = 1000;
width = 587;
}
);
note = A;
unicode = 0041;
},
{
glyphname = B;
layers = (
{
hints = (
{
horizontal = 1;
place = "{0, 50}";
type = Stem;
},
{
horizontal = 1;
place = "{363, 48}";
type = Stem;
},
{
horizontal = 1;
place = "{680, 49}";
type = Stem;
},
{
place = "{106, 60}";
type = Stem;
},
{
place = "{535, 59}";
type = Stem;
},
{
place = "{490, 60}";
type = Stem;
}
);
layerId = "A026023B-92C1-4D03-AC7E-471A27A73077";
paths = (
{
closed = 1;
nodes = (
"106 0 LINE",
"322 0 LINE SMOOTH",
"376.95 0.11 OFFCURVE",
"424.9 8.13 OFFCURVE",
"465.85 24.06 CURVE SMOOTH",
"551.28 57.92 OFFCURVE",
"594 120.9 OFFCURVE",
"594 213 CURVE SMOOTH",
"593.9 235.07 OFFCURVE",
"590.78 255.77 OFFCURVE",
"584.65 275.12 CURVE SMOOTH",
"564.21 337.18 OFFCURVE",
"515.66 374.81 OFFCURVE",
"439 388 CURVE",
"439 393 LINE",
"453.31 397.48 OFFCURVE",
"466.82 403.68 OFFCURVE",
"479.51 411.63 CURVE SMOOTH",
"526.5 441.94 OFFCURVE",
"550 488.73 OFFCURVE",
"550 552 CURVE SMOOTH",
"549.91 571.09 OFFCURVE",
"547.5 589.07 OFFCURVE",
"542.77 605.95 CURVE SMOOTH",
"518.74 687.98 OFFCURVE",
"440.15 729 OFFCURVE",
"307 729 CURVE SMOOTH",
"106 729 LINE"
);
},
{
closed = 1;
nodes = (
"166 411 LINE",
"166 680 LINE",
"294 680 LINE SMOOTH",
"329.88 679.94 OFFCURVE",
"360.68 677.02 OFFCURVE",
"386.4 671.24 CURVE SMOOTH",
"455.47 655.24 OFFCURVE",
"490 613.16 OFFCURVE",
"490 545 CURVE SMOOTH",
"489.38 456.49 OFFCURVE",
"422.05 411.82 OFFCURVE",
"288 411 CURVE SMOOTH"
);
},
{
closed = 1;
nodes = (
"166 50 LINE",
"166 363 LINE",
"308 363 LINE SMOOTH",
"458.06 362.56 OFFCURVE",
"533.72 312.56 OFFCURVE",
"535 213 CURVE SMOOTH",
"534.98 208.39 OFFCURVE",
"534.81 203.53 OFFCURVE",
"534.5 198.43 CURVE SMOOTH",
"527.58 99.48 OFFCURVE",
"452.08 50 OFFCURVE",
"308 50 CURVE SMOOTH"
);
}
);
vertWidth = 1000;
width = 642;
}
);
note = B;
unicode = 0042;
},
{
glyphname = C;
layers = (
{
hints = (
{
horizontal = 1;
place = "{-13, 54}";
type = Stem;
},
{
horizontal = 1;
place = "{688, 54}";
type = Stem;
},
{
place = "{60, 63}";
type = Stem;
}
);
layerId = "A026023B-92C1-4D03-AC7E-471A27A73077";
paths = (
{
closed = 1;
nodes = (
"453.02 -12.68 OFFCURVE",
"525.69 21.99 OFFCURVE",
"586 91 CURVE",
"552 129 LINE",
"498.75 70.96 OFFCURVE",
"438.42 41.63 OFFCURVE",
"371 41 CURVE SMOOTH",
"312.86 41.25 OFFCURVE",
"263.11 59.16 OFFCURVE",
"221.72 94.74 CURVE SMOOTH",
"155.9 152.42 OFFCURVE",
"123 243.18 OFFCURVE",
"123 367 CURVE SMOOTH",
"123.16 448.29 OFFCURVE",
"139.1 516.57 OFFCURVE",
"170.8 571.84 CURVE SMOOTH",
"215.87 649.28 OFFCURVE",
"283.61 688 OFFCURVE",
"374 688 CURVE SMOOTH",
"435.65 687.66 OFFCURVE",
"488.32 663.33 OFFCURVE",
"532 615 CURVE",
"566 654 LINE",
"563.39 657.04 OFFCURVE",
"560.4 660.37 OFFCURVE",
"557.03 663.98 CURVE SMOOTH",
"507.53 715.99 OFFCURVE",
"446.52 742 OFFCURVE",
"374 742 CURVE SMOOTH",
"294.14 741.73 OFFCURVE",
"226.59 716.3 OFFCURVE",
"171.35 665.69 CURVE SMOOTH",
"97.12 596.71 OFFCURVE",
"60 496.48 OFFCURVE",
"60 365 CURVE SMOOTH",
"60.21 257.97 OFFCURVE",
"85.67 170.12 OFFCURVE",
"136.39 101.43 CURVE SMOOTH",
"193.41 25.14 OFFCURVE",
"270.61 -13 OFFCURVE",
"368 -13 CURVE SMOOTH"
);
}
);
vertWidth = 1000;
width = 627;
}
);
note = C;
unicode = 0043;
},
{
glyphname = D;
layers = (
{
hints = (
{
horizontal = 1;
place = "{0, 51}";
type = Stem;
},
{
horizontal = 1;
place = "{679, 50}";
type = Stem;
},
{
place = "{106, 60}";
type = Stem;
},
{
place = "{549, 63}";
type = Stem;
}
);
layerId = "A026023B-92C1-4D03-AC7E-471A27A73077";
paths = (
{
closed = 1;
nodes = (
"106 0 LINE",
"279 0 LINE SMOOTH",
"354.71 0 OFFCURVE",
"418.39 16.35 OFFCURVE",
"470.04 49.04 CURVE SMOOTH",
"564.68 108.95 OFFCURVE",
"612 214.93 OFFCURVE",
"612 367 CURVE SMOOTH",
"611.88 438.68 OFFCURVE",
"600.54 500.91 OFFCURVE",
"577.98 553.69 CURVE SMOOTH",
"527.3 670.56 OFFCURVE",
"427.3 729 OFFCURVE",
"278 729 CURVE SMOOTH",
"106 729 LINE"
);
},
{
closed = 1;
nodes = (
"166 51 LINE",
"166 679 LINE",
"272 679 LINE SMOOTH",
"316.91 678.88 OFFCURVE",
"356.98 672.04 OFFCURVE",
"392.22 658.47 CURVE SMOOTH",
"496.74 617.32 OFFCURVE",
"549 520.16 OFFCURVE",
"549 367 CURVE SMOOTH",
"548.91 313.87 OFFCURVE",
"542.16 266.51 OFFCURVE",
"528.75 224.93 CURVE SMOOTH",
"490.69 108.98 OFFCURVE",
"405.11 51 OFFCURVE",
"272 51 CURVE SMOOTH"
);
}
);
vertWidth = 1000;
width = 672;
}
);
note = D;
unicode = 0044;
},
{
glyphname = E;
layers = (
{
hints = (
{
horizontal = 1;
place = "{0, 52}";
type = Stem;
},
{
horizontal = 1;
place = "{361, 51}";
type = Stem;
},
{
horizontal = 1;
place = "{678, 51}";
type = Stem;
},
{
place = "{106, 60}";
type = Stem;
}
);
layerId = "A026023B-92C1-4D03-AC7E-471A27A73077";
paths = (
{
closed = 1;
nodes = (
"106 0 LINE",
"520 0 LINE",
"520 52 LINE",
"166 52 LINE",
"166 361 LINE",
"455 361 LINE",
"455 412 LINE",
"166 412 LINE",
"166 678 LINE",
"509 678 LINE",
"509 729 LINE",
"106 729 LINE"
);
}
);
vertWidth = 1000;
width = 573;
}
);
note = E;
unicode = 0045;
},
{
glyphname = F;
layers = (
{
hints = (
{
horizontal = 1;
place = "{0, 21}";
target = up;
type = BottomGhost;
},
{
horizontal = 1;
place = "{346, 51}";
type = Stem;
},
{
horizontal = 1;
place = "{678, 51}";
type = Stem;
},
{
place = "{106, 60}";
type = Stem;
}
);
layerId = "A026023B-92C1-4D03-AC7E-471A27A73077";
paths = (
{
closed = 1;
nodes = (
"106 0 LINE",
"166 0 LINE",
"166 346 LINE",
"455 346 LINE",
"455 397 LINE",
"166 397 LINE",
"166 678 LINE",
"508 678 LINE",
"508 729 LINE",
"106 729 LINE"
);
}
);
vertWidth = 1000;
width = 532;
}
);
note = F;
unicode = 0046;
},
{
glyphname = G;
layers = (
{
hints = (
{
horizontal = 1;
place = "{-13, 54}";
type = Stem;
},
{
horizontal = 1;
place = "{312, 51}";
type = Stem;
},
{
horizontal = 1;
place = "{688, 54}";
type = Stem;
},
{
place = "{60, 63}";
type = Stem;
},
{
place = "{537, 58}";
type = Stem;
}
);
layerId = "A026023B-92C1-4D03-AC7E-471A27A73077";
paths = (
{
closed = 1;
nodes = (
"466.46 -11.26 OFFCURVE",
"539.46 16.41 OFFCURVE",
"595 70 CURVE",
"595 363 LINE",
"368 363 LINE",
"368 312 LINE",
"537 312 LINE",
"537 93 LINE",
"535.6 91.63 OFFCURVE",
"533.83 89.97 OFFCURVE",
"531.68 88 CURVE SMOOTH",
"496.19 56.66 OFFCURVE",
"446.3 41 OFFCURVE",
"382 41 CURVE SMOOTH",
"322.38 41.22 OFFCURVE",
"271.46 57.78 OFFCURVE",
"229.23 90.68 CURVE SMOOTH",
"158.41 146.91 OFFCURVE",
"123 239.02 OFFCURVE",
"123 367 CURVE SMOOTH",
"123.17 447.74 OFFCURVE",
"139.56 515.62 OFFCURVE",
"172.17 570.65 CURVE SMOOTH",
"219.22 648.89 OFFCURVE",
"290.5 688 OFFCURVE",
"386 688 CURVE SMOOTH",
"451.01 687.67 OFFCURVE",
"506.34 663.34 OFFCURVE",
"552 615 CURVE",
"587 654 LINE",
"531.26 712.25 OFFCURVE",
"463.92 741.58 OFFCURVE",
"385 742 CURVE SMOOTH",
"301.62 741.74 OFFCURVE",
"231.29 716 OFFCURVE",
"174.02 664.78 CURVE SMOOTH",
"98.01 595.84 OFFCURVE",
"60 495.92 OFFCURVE",
"60 365 CURVE SMOOTH",
"60.21 259.55 OFFCURVE",
"85.23 172.8 OFFCURVE",
"135.08 104.74 CURVE SMOOTH",
"193.27 26.25 OFFCURVE",
"273.58 -13 OFFCURVE",
"376 -13 CURVE SMOOTH"
);
}
);
vertWidth = 1000;
width = 673;
}
);
note = G;
unicode = 0047;
},
{
glyphname = H;
layers = (
{
hints = (
{
horizontal = 1;
place = "{0, 21}";
target = up;
type = BottomGhost;
},
{
horizontal = 1;
place = "{361, 52}";
type = Stem;
},
{
horizontal = 1;
place = "{729, -20}";
target = down;
type = TopGhost;
},
{
place = "{106, 60}";
type = Stem;
},
{
place = "{545, 60}";
type = Stem;
}
);
layerId = "A026023B-92C1-4D03-AC7E-471A27A73077";
paths = (
{
closed = 1;
nodes = (
"106 0 LINE",
"166 0 LINE",
"166 361 LINE",
"545 361 LINE",
"545 0 LINE",
"605 0 LINE",
"605 729 LINE",
"545 729 LINE",
"545 413 LINE",
"166 413 LINE",
"166 729 LINE",
"106 729 LINE"
);
}
);
vertWidth = 1000;
width = 710;
}
);
note = H;
unicode = 0048;
},
{
glyphname = I;
layers = (
{
hints = (
{
horizontal = 1;
place = "{0, 21}";
target = up;
type = BottomGhost;
},
{
horizontal = 1;
place = "{729, -20}";
target = down;
type = TopGhost;
},
{
place = "{106, 60}";
type = Stem;
}
);
layerId = "A026023B-92C1-4D03-AC7E-471A27A73077";
paths = (
{
closed = 1;
nodes = (
"106 0 LINE",
"166 0 LINE",
"166 729 LINE",
"106 729 LINE"
);
}
);
vertWidth = 1000;
width = 272;
}
);
note = I;
unicode = 0049;
},
{
glyphname = J;
layers = (
{
hints = (
{
horizontal = 1;
place = "{-13, 54}";
type = Stem;
},
{
horizontal = 1;
place = "{729, -20}";
target = down;
type = TopGhost;
},
{
place = "{353, 60}";
type = Stem;
}
);
layerId = "A026023B-92C1-4D03-AC7E-471A27A73077";
paths = (
{
closed = 1;
nodes = (
"255.89 -12.88 OFFCURVE",
"281.96 -8.41 OFFCURVE",
"305.23 0.43 CURVE SMOOTH",
"377.08 28.64 OFFCURVE",
"413 95.84 OFFCURVE",
"413 202 CURVE SMOOTH",
"413 729 LINE",
"353 729 LINE",
"353 208 LINE SMOOTH",
"352.95 186.74 OFFCURVE",
"351.5 167.3 OFFCURVE",
"348.65 149.66 CURVE SMOOTH",
"336.41 77.22 OFFCURVE",
"295.2 41 OFFCURVE",
"225 41 CURVE SMOOTH",
"220.11 41.02 OFFCURVE",
"215.03 41.21 OFFCURVE",
"209.75 41.55 CURVE SMOOTH",
"158.89 45.36 OFFCURVE",
"117.98 73.51 OFFCURVE",
"87 126 CURVE",
"42 96 LINE",
"81.95 24.1 OFFCURVE",
"143.61 -12.23 OFFCURVE",
"227 -13 CURVE SMOOTH"
);
}
);
vertWidth = 1000;
width = 517;
}
);
note = J;
unicode = 004A;
},
{
glyphname = K;
layers = (
{
hints = (
{
horizontal = 1;
place = "{0, 21}";
target = up;
type = BottomGhost;
},
{
horizontal = 1;
place = "{729, -20}";
target = down;
type = TopGhost;
},
{
place = "{106, 60}";
type = Stem;
}
);
layerId = "A026023B-92C1-4D03-AC7E-471A27A73077";
paths = (
{
closed = 1;
nodes = (
"106 0 LINE",
"166 0 LINE",
"166 246 LINE",
"309 411 LINE",
"545 0 LINE",
"614 0 LINE",
"349 458 LINE",
"581 729 LINE",
"510 729 LINE",
"168 333 LINE",
"166 333 LINE",
"166 729 LINE",
"106 729 LINE"
);
}
);
vertWidth = 1000;
width = 623;
}
);
note = K;
unicode = 004B;
},
{
glyphname = L;
layers = (
{
hints = (
{
horizontal = 1;
place = "{0, 52}";
type = Stem;
},
{
horizontal = 1;
place = "{729, -20}";
target = down;
type = TopGhost;
},
{
place = "{106, 60}";
type = Stem;
}
);
layerId = "A026023B-92C1-4D03-AC7E-471A27A73077";
paths = (
{
closed = 1;
nodes = (
"106 0 LINE",
"498 0 LINE",
"498 52 LINE",
"166 52 LINE",
"166 729 LINE",
"106 729 LINE"
);
}
);
vertWidth = 1000;
width = 522;
}
);
note = L;
unicode = 004C;
},
{
glyphname = M;
layers = (
{
hints = (
{
horizontal = 1;
place = "{0, 21}";
target = up;
type = BottomGhost;
},
{
horizontal = 1;
place = "{78, 72}";
type = Stem;
},
{
horizontal = 1;
place = "{663, 66}";
type = Stem;
},
{
place = "{106, 55}";
type = Stem;
},
{
place = "{624, 57}";
type = Stem;
}
);
layerId = "A026023B-92C1-4D03-AC7E-471A27A73077";
paths = (
{
closed = 1;
nodes = (
"106 0 LINE",
"161 0 LINE",
"161 462 LINE SMOOTH",
"160.97 501.04 OFFCURVE",
"158.64 568.04 OFFCURVE",
"154 663 CURVE",
"158 663 LINE",
"215 500 LINE",
"369 78 LINE",
"417 78 LINE",
"570 500 LINE",
"627 663 LINE",
"631 663 LINE",
"626.36 568.74 OFFCURVE",
"624.03 501.74 OFFCURVE",
"624 462 CURVE SMOOTH",
"624 0 LINE",
"681 0 LINE",
"681 729 LINE",
"601 729 LINE",
"451 310 LINE SMOOTH",
"446.72 297.38 OFFCURVE",
"440.26 278.02 OFFCURVE",
"431.63 251.92 CURVE SMOOTH",
"416.61 206.47 OFFCURVE",
"405.07 172.5 OFFCURVE",
"397 150 CURVE",
"393 150 LINE",
"386.75 167.45 OFFCURVE",
"377.25 194.12 OFFCURVE",
"364.5 230 CURVE SMOOTH",
"351.83 265.67 OFFCURVE",
"342.33 292.33 OFFCURVE",
"336 310 CURVE SMOOTH",
"186 729 LINE",
"106 729 LINE"
);
}
);
vertWidth = 1000;
width = 787;
}
);
note = M;
unicode = 004D;
},
{
glyphname = N;
layers = (
{
hints = (
{
horizontal = 1;
place = "{0, 81}";
type = Stem;
},
{
horizontal = 1;
place = "{648, 81}";
type = Stem;
},
{
place = "{106, 57}";
type = Stem;
},
{
place = "{544, 57}";
type = Stem;
}
);
layerId = "A026023B-92C1-4D03-AC7E-471A27A73077";
paths = (
{
closed = 1;
nodes = (
"106 0 LINE",
"163 0 LINE",
"163 437 LINE SMOOTH",
"162.99 452.77 OFFCURVE",
"160.32 523.11 OFFCURVE",
"155 648 CURVE",
"160 648 LINE",
"242 502 LINE",
"539 0 LINE",
"601 0 LINE",
"601 729 LINE",
"544 729 LINE",
"544 297 LINE SMOOTH",
"544.02 249.21 OFFCURVE",
"546.69 177.21 OFFCURVE",
"552 81 CURVE",
"547 81 LINE",
"466 228 LINE",
"168 729 LINE",
"106 729 LINE"
);
}
);
vertWidth = 1000;
width = 707;
}
);
note = N;
unicode = 004E;
},
{
glyphname = O;
layers = (
{
hints = (
{
horizontal = 1;
place = "{-13, 54}";
type = Stem;
},
{
horizontal = 1;
place = "{688, 54}";
type = Stem;
},
{
place = "{60, 63}";
type = Stem;
},
{
place = "{603, 62}";
type = Stem;
}
);
layerId = "A026023B-92C1-4D03-AC7E-471A27A73077";
paths = (
{
closed = 1;
nodes = (
"439.47 -12.71 OFFCURVE",
"505.11 13.75 OFFCURVE",
"558.93 66.39 CURVE SMOOTH",
"629.64 136.59 OFFCURVE",
"665 236.79 OFFCURVE",
"665 367 CURVE SMOOTH",
"664.8 472.25 OFFCURVE",
"640.28 558.8 OFFCURVE",
"591.46 626.67 CURVE SMOOTH",
"535.46 703.56 OFFCURVE",
"458.98 742 OFFCURVE",
"362 742 CURVE SMOOTH",
"285.52 741.72 OFFCURVE",
"220.55 716.07 OFFCURVE",
"167.08 665.06 CURVE SMOOTH",
"95.69 595.95 OFFCURVE",
"60 496.59 OFFCURVE",
"60 367 CURVE SMOOTH",
"60.21 258.39 OFFCURVE",
"86.06 169.25 OFFCURVE",
"137.55 99.57 CURVE SMOOTH",
"193.67 24.52 OFFCURVE",
"268.49 -13 OFFCURVE",
"362 -13 CURVE SMOOTH"
);
},
{
closed = 1;
nodes = (
"305.39 41.28 OFFCURVE",
"256.73 60.4 OFFCURVE",
"216.02 98.39 CURVE SMOOTH",
"154 157.39 OFFCURVE",
"123 246.93 OFFCURVE",
"123 367 CURVE SMOOTH",
"123.16 450.79 OFFCURVE",
"139.5 520.78 OFFCURVE",
"172.02 576.97 CURVE SMOOTH",
"215.48 650.99 OFFCURVE",
"278.81 688 OFFCURVE",
"362 688 CURVE SMOOTH",
"417.83 687.74 OFFCURVE",
"465.94 670.04 OFFCURVE",
"506.33 634.88 CURVE SMOOTH",
"570.78 577.67 OFFCURVE",
"603 488.37 OFFCURVE",
"603 367 CURVE SMOOTH",
"602.83 280.63 OFFCURVE",
"585.45 208.49 OFFCURVE",
"550.86 150.59 CURVE SMOOTH",
"506.59 77.53 OFFCURVE",
"443.64 41 OFFCURVE",
"362 41 CURVE SMOOTH"
);
}
);
vertWidth = 1000;
width = 726;
}
);
note = O;
unicode = 004F;
},
{
glyphname = P;
layers = (
{
hints = (
{
horizontal = 1;
place = "{0, 21}";
target = up;
type = BottomGhost;
},
{
horizontal = 1;
place = "{308, 50}";
type = Stem;
},
{
horizontal = 1;
place = "{679, 50}";
type = Stem;
},
{
place = "{106, 60}";
type = Stem;
},
{
place = "{500, 61}";
type = Stem;
}
);
layerId = "A026023B-92C1-4D03-AC7E-471A27A73077";
paths = (
{
closed = 1;
nodes = (
"106 0 LINE",
"166 0 LINE",
"166 308 LINE",
"299 308 LINE SMOOTH",
"339.05 308.08 OFFCURVE",
"375.23 312.42 OFFCURVE",
"407.54 321.02 CURVE SMOOTH",
"509.84 348.88 OFFCURVE",
"561 416.54 OFFCURVE",
"561 524 CURVE SMOOTH",
"560.93 546.05 OFFCURVE",
"558.69 566.62 OFFCURVE",
"554.27 585.69 CURVE SMOOTH",
"531.29 681.23 OFFCURVE",
"444.86 729 OFFCURVE",
"295 729 CURVE SMOOTH",
"106 729 LINE"
);
},
{
closed = 1;
nodes = (
"166 358 LINE",
"166 679 LINE",
"283 679 LINE SMOOTH",
"336.47 678.92 OFFCURVE",
"379.17 673.46 OFFCURVE",
"411.11 662.62 CURVE SMOOTH",
"470.37 641.97 OFFCURVE",
"500 595.77 OFFCURVE",
"500 524 CURVE SMOOTH",
"499.9 498.67 OFFCURVE",
"496.52 476.09 OFFCURVE",
"489.86 456.28 CURVE SMOOTH",
"466.95 390.76 OFFCURVE",
"399.33 358 OFFCURVE",
"287 358 CURVE SMOOTH"
);
}
);
vertWidth = 1000;
width = 612;
}
);
note = P;
unicode = 0050;
},
{
glyphname = Q;
layers = (
{
hints = (
{
horizontal = 1;
place = "{-174, 53}";
type = Stem;
},
{
horizontal = 1;
place = "{-11, 49}";
type = Stem;
},
{
horizontal = 1;
place = "{688, 54}";
type = Stem;
},
{
place = "{60, 63}";
type = Stem;
},
{
place = "{603, 62}";
type = Stem;
}
);
layerId = "A026023B-92C1-4D03-AC7E-471A27A73077";
paths = (
{
closed = 1;
nodes = (
"305.46 38.28 OFFCURVE",
"256.86 57.51 OFFCURVE",
"216.2 95.7 CURVE SMOOTH",
"154.07 155.19 OFFCURVE",
"123 245.63 OFFCURVE",
"123 367 CURVE SMOOTH",
"123.16 450.79 OFFCURVE",
"139.5 520.78 OFFCURVE",
"172.02 576.97 CURVE SMOOTH",
"215.48 650.99 OFFCURVE",
"278.81 688 OFFCURVE",
"362 688 CURVE SMOOTH",
"417.83 687.74 OFFCURVE",
"465.94 670.04 OFFCURVE",
"506.33 634.88 CURVE SMOOTH",
"570.78 577.67 OFFCURVE",
"603 488.37 OFFCURVE",
"603 367 CURVE SMOOTH",
"602.83 279.96 OFFCURVE",
"585.52 207.26 OFFCURVE",
"551.08 148.9 CURVE SMOOTH",
"506.84 74.97 OFFCURVE",
"443.81 38 OFFCURVE",
"362 38 CURVE SMOOTH"
);
},
{
closed = 1;
nodes = (
"614.78 -173.88 OFFCURVE",
"645.78 -169.54 OFFCURVE",
"671 -161 CURVE",
"658 -111 LINE",
"638.16 -117.51 OFFCURVE",
"613.49 -120.84 OFFCURVE",
"584 -121 CURVE SMOOTH",
"572.76 -120.96 OFFCURVE",
"561.48 -120.27 OFFCURVE",
"550.17 -118.93 CURVE SMOOTH",
"476.28 -109.6 OFFCURVE",
"425.23 -73.63 OFFCURVE",
"397 -11 CURVE",
"460.64 -3.8 OFFCURVE",
"514.92 22.35 OFFCURVE",
"559.85 67.45 CURVE SMOOTH",
"629.95 137.81 OFFCURVE",
"665 237.66 OFFCURVE",
"665 367 CURVE SMOOTH",
"664.8 472.25 OFFCURVE",
"640.28 558.8 OFFCURVE",
"591.46 626.67 CURVE SMOOTH",
"535.46 703.56 OFFCURVE",
"458.98 742 OFFCURVE",
"362 742 CURVE SMOOTH",
"285.52 741.72 OFFCURVE",
"220.55 716.07 OFFCURVE",
"167.08 665.06 CURVE SMOOTH",
"95.69 595.95 OFFCURVE",
"60 496.59 OFFCURVE",
"60 367 CURVE SMOOTH",
"60.18 270.86 OFFCURVE",
"80.75 189.42 OFFCURVE",
"121.71 122.69 CURVE SMOOTH",
"171.51 42.54 OFFCURVE",
"241.27 -2.02 OFFCURVE",
"331 -11 CURVE",
"339.28 -31.79 OFFCURVE",
"349.87 -51.32 OFFCURVE",
"362.77 -69.59 CURVE SMOOTH",
"412.79 -139.2 OFFCURVE",
"484.53 -174 OFFCURVE",
"578 -174 CURVE SMOOTH"
);
}
);
vertWidth = 1000;
width = 726;
}
);
note = Q;
unicode = 0051;
},
{
glyphname = R;
layers = (
{
hints = (
{
horizontal = 1;
place = "{0, 21}";
target = up;
type = BottomGhost;
},
{
horizontal = 1;
place = "{329, 50}";
type = Stem;
},
{
horizontal = 1;
place = "{679, 50}";
type = Stem;
},
{
place = "{106, 60}";
type = Stem;
},
{
place = "{501, 61}";
type = Stem;
}
);
layerId = "A026023B-92C1-4D03-AC7E-471A27A73077";
paths = (
{
closed = 1;
nodes = (
"106 0 LINE",
"166 0 LINE",
"166 329 LINE",
"315 329 LINE",
"509 0 LINE",
"577 0 LINE",
"380 334 LINE",
"402.47 337.52 OFFCURVE",
"423.45 343.1 OFFCURVE",
"442.95 350.75 CURVE SMOOTH",
"522.31 382.61 OFFCURVE",
"562 443.7 OFFCURVE",
"562 534 CURVE SMOOTH",
"561.27 662.83 OFFCURVE",
"480.27 727.83 OFFCURVE",
"319 729 CURVE SMOOTH",
"106 729 LINE"
);
},
{
closed = 1;
nodes = (
"166 379 LINE",
"166 679 LINE",
"305 679 LINE SMOOTH",
"332.77 678.95 OFFCURVE",
"357.67 676.97 OFFCURVE",
"379.69 673.07 CURVE SMOOTH",
"460.56 658.25 OFFCURVE",
"501 611.9 OFFCURVE",
"501 534 CURVE SMOOTH",
"500.3 431.74 OFFCURVE",
"434.97 380.07 OFFCURVE",
"305 379 CURVE SMOOTH"
);
}
);
vertWidth = 1000;
width = 608;
}
);
note = R;
unicode = 0052;
},
{
glyphname = S;
layers = (
{
hints = (
{
horizontal = 1;
place = "{-13, 54}";
type = Stem;
},
{
horizontal = 1;
place = "{688, 54}";
type = Stem;
},
{
place = "{88, 61}";
type = Stem;
},
{
place = "{474, 61}";
type = Stem;
}
);
layerId = "A026023B-92C1-4D03-AC7E-471A27A73077";
paths = (
{
closed = 1;
nodes = (
"359.71 -12.79 OFFCURVE",
"411.41 1.92 OFFCURVE",
"454.09 31.16 CURVE SMOOTH",
"508.03 68.82 OFFCURVE",
"535 120.1 OFFCURVE",
"535 185 CURVE SMOOTH",
"534.83 220.68 OFFCURVE",
"527.27 252.03 OFFCURVE",
"512.3 279.05 CURVE SMOOTH",
"490.93 316.48 OFFCURVE",
"447.5 349.8 OFFCURVE",
"382 379 CURVE SMOOTH",
"273 427 LINE SMOOTH",
"257.1 433.9 OFFCURVE",
"244.53 439.69 OFFCURVE",
"235.29 444.35 CURVE SMOOTH",
"177.76 473.7 OFFCURVE",
"149 513.58 OFFCURVE",
"149 564 CURVE SMOOTH",
"149.19 586.99 OFFCURVE",
"155.06 607.86 OFFCURVE",
"166.61 626.61 CURVE SMOOTH",
"192.87 667.54 OFFCURVE",
"238.67 688 OFFCURVE",
"304 688 CURVE SMOOTH",
"370.58 687.69 OFFCURVE",
"427.91 663.35 OFFCURVE",
"476 615 CURVE",
"510 654 LINE",
"508.73 655.36 OFFCURVE",
"507.14 657.05 OFFCURVE",
"505.22 659.05 CURVE SMOOTH",
"451.5 714.35 OFFCURVE",
"384.42 742 OFFCURVE",
"304 742 CURVE SMOOTH",
"252.35 741.81 OFFCURVE",
"207.29 729.54 OFFCURVE",
"168.8 705.21 CURVE SMOOTH",
"114.93 670.45 OFFCURVE",
"88 621.72 OFFCURVE",
"88 559 CURVE SMOOTH",
"88.15 532.3 OFFCURVE",
"93.51 507.63 OFFCURVE",
"104.08 484.98 CURVE SMOOTH",
"124.25 443.23 OFFCURVE",
"168.23 407.23 OFFCURVE",
"236 377 CURVE SMOOTH",
"345 329 LINE SMOOTH",
"373.98 316.11 OFFCURVE",
"395.67 305.18 OFFCURVE",
"410.06 296.21 CURVE SMOOTH",
"452.69 269.23 OFFCURVE",
"474 230.83 OFFCURVE",
"474 181 CURVE SMOOTH",
"473.81 154.52 OFFCURVE",
"467 130.6 OFFCURVE",
"453.57 109.24 CURVE SMOOTH",
"423.94 63.74 OFFCURVE",
"372.41 41 OFFCURVE",
"299 41 CURVE SMOOTH",
"218.78 43.37 OFFCURVE",
"148.44 75.71 OFFCURVE",
"88 138 CURVE",
"51 96 LINE",
"115.78 23.86 OFFCURVE",
"198.44 -12.48 OFFCURVE",
"299 -13 CURVE SMOOTH"
);
}
);
vertWidth = 1000;
width = 580;
}
);
note = S;
unicode = 0053;
},
{
glyphname = T;
layers = (
{
hints = (
{
horizontal = 1;
place = "{0, 21}";
target = up;
type = BottomGhost;
},
{
horizontal = 1;
place = "{678, 51}";
type = Stem;
},
{
place = "{261, 61}";
type = Stem;
}
);
layerId = "A026023B-92C1-4D03-AC7E-471A27A73077";
paths = (
{
closed = 1;
nodes = (
"261 0 LINE",
"322 0 LINE",
"322 678 LINE",
"552 678 LINE",
"552 729 LINE",
"32 729 LINE",
"32 678 LINE",
"261 678 LINE"
);
}
);
vertWidth = 1000;
width = 584;
}
);
note = T;
unicode = 0054;
},
{
glyphname = U;
layers = (
{
hints = (
{
horizontal = 1;
place = "{-13, 54}";
type = Stem;
},
{
horizontal = 1;
place = "{729, -20}";
target = down;
type = TopGhost;
},
{
place = "{103, 60}";
type = Stem;
},
{
place = "{545, 57}";
type = Stem;
}
);
layerId = "A026023B-92C1-4D03-AC7E-471A27A73077";
paths = (
{
closed = 1;
nodes = (
"375.92 -12.94 OFFCURVE",
"398.63 -10.61 OFFCURVE",
"420.16 -6.02 CURVE SMOOTH",
"541.39 20.68 OFFCURVE",
"602 117.68 OFFCURVE",
"602 285 CURVE SMOOTH",
"602 729 LINE",
"545 729 LINE",
"545 288 LINE SMOOTH",
"544.96 263.52 OFFCURVE",
"543.41 240.45 OFFCURVE",
"540.36 218.79 CURVE SMOOTH",
"523.11 100.27 OFFCURVE",
"460.32 41 OFFCURVE",
"352 41 CURVE SMOOTH",
"342.82 41 OFFCURVE",
"333.95 41.47 OFFCURVE",
"325.37 42.41 CURVE SMOOTH",
"217.12 54.28 OFFCURVE",
"163 136.14 OFFCURVE",
"163 288 CURVE SMOOTH",
"163 729 LINE",
"103 729 LINE",
"103 285 LINE SMOOTH",
"103.08 240.53 OFFCURVE",
"107.57 200.53 OFFCURVE",
"116.49 165.01 CURVE SMOOTH",
"146.94 46.34 OFFCURVE",
"225.45 -13 OFFCURVE",
"352 -13 CURVE SMOOTH"
);
}
);
vertWidth = 1000;
width = 705;
}
);
note = U;
unicode = 0055;
},
{
glyphname = V;
layers = (
{
hints = (
{
horizontal = 1;
place = "{0, 66}";
type = Stem;
},
{
horizontal = 1;
place = "{729, -20}";
target = down;
type = TopGhost;
},
{
place = "{4, 542}";
type = Stem;
}
);
layerId = "A026023B-92C1-4D03-AC7E-471A27A73077";
paths = (
{
closed = 1;
nodes = (
"243 0 LINE",
"309 0 LINE",
"546 729 LINE",
"485 729 LINE",
"355 310 LINE SMOOTH",
"348.17 288.51 OFFCURVE",
"338.67 257.92 OFFCURVE",
"326.52 218.25 CURVE SMOOTH",
"306.75 153.65 OFFCURVE",
"290.57 102.9 OFFCURVE",
"278 66 CURVE",
"274 66 LINE",
"272.9 69.33 OFFCURVE",
"247.9 150.66 OFFCURVE",
"199 310 CURVE SMOOTH",
"68 729 LINE",
"4 729 LINE"
);
}
);
vertWidth = 1000;
width = 550;
}
);
note = V;
unicode = 0056;
},
{
glyphname = W;
layers = (
{
hints = (
{
horizontal = 1;
place = "{0, 69}";
type = Stem;
},
{
horizontal = 1;
place = "{652, 77}";
type = Stem;
},
{
place = "{30, 795}";
type = Stem;
},
{
horizontal = 1;
place = "{729, -20}";
target = down;
type = TopGhost;
}
);
layerId = "A026023B-92C1-4D03-AC7E-471A27A73077";
paths = (
{
closed = 1;
nodes = (
"193 0 LINE",
"261 0 LINE",
"386 487 LINE SMOOTH",
"389.92 504.45 OFFCURVE",
"396.14 529.81 OFFCURVE",
"404.64 563.09 CURVE SMOOTH",
"414.55 601.77 OFFCURVE",
"421.67 631.4 OFFCURVE",
"426 652 CURVE",
"430 652 LINE",
"433.11 638.39 OFFCURVE",
"437.84 618.28 OFFCURVE",
"444.18 591.68 CURVE SMOOTH",
"454.98 546.45 OFFCURVE",
"462.92 511.56 OFFCURVE",
"468 487 CURVE",
"597 0 LINE",
"665 0 LINE",
"825 729 LINE",
"767 729 LINE",
"678 307 LINE SMOOTH",
"665.7 246.25 OFFCURVE",
"650.37 166.92 OFFCURVE",
"632 69 CURVE",
"627 69 LINE",
"621.56 91.92 OFFCURVE",
"613.45 126.47 OFFCURVE",
"602.67 172.67 CURVE SMOOTH",
"588.73 232.41 OFFCURVE",
"578.17 277.19 OFFCURVE",
"571 307 CURVE SMOOTH",
"459 729 LINE",
"400 729 LINE",
"289 307 LINE SMOOTH",
"263.83 202.33 OFFCURVE",
"245.16 123 OFFCURVE",
"233 69 CURVE",
"229 69 LINE",
"209.66 165.69 OFFCURVE",
"193.33 245.02 OFFCURVE",
"180 307 CURVE SMOOTH",
"92 729 LINE",
"30 729 LINE"
);
}
);
vertWidth = 1000;
width = 857;
}
);
note = W;
unicode = 0057;
},
{
glyphname = X;
layers = (
{
hints = (
{
horizontal = 1;
place = "{0, 21}";
target = up;
type = BottomGhost;
},
{
horizontal = 1;
place = "{729, -20}";
target = down;
type = TopGhost;
},
{
place = "{19, 504}";
type = Stem;
}
);
layerId = "A026023B-92C1-4D03-AC7E-471A27A73077";
paths = (
{
closed = 1;
nodes = (
"19 0 LINE",
"81 0 LINE",
"203 218 LINE SMOOTH",
"228.03 264.11 OFFCURVE",
"248.36 302.78 OFFCURVE",
"264 334 CURVE",
"268 334 LINE",
"282.24 309.89 OFFCURVE",
"304.57 271.22 OFFCURVE",
"335 218 CURVE SMOOTH",
"458 0 LINE",
"523 0 LINE",
"305 374 LINE",
"508 729 LINE",
"446 729 LINE",
"331 521 LINE SMOOTH",
"324.2 509.14 OFFCURVE",
"314.71 491.52 OFFCURVE",
"302.54 468.15 CURVE SMOOTH",
"292.1 448.02 OFFCURVE",
"283.58 431.97 OFFCURVE",
"277 420 CURVE",
"273 420 LINE",
"265.23 432.96 OFFCURVE",
"254.93 450.61 OFFCURVE",
"242.1 472.95 CURVE SMOOTH",
"230.06 493.94 OFFCURVE",
"220.69 509.96 OFFCURVE",
"214 521 CURVE SMOOTH",
"99 729 LINE",
"33 729 LINE",
"236 377 LINE"
);
}
);
vertWidth = 1000;
width = 541;
}
);
note = X;
unicode = 0058;
},
{
glyphname = Y;
layers = (
{
hints = (
{
horizontal = 1;
place = "{0, 21}";
target = up;
type = BottomGhost;
},
{
horizontal = 1;
place = "{729, -20}";
target = down;
type = TopGhost;
},
{
place = "{221, 60}";
type = Stem;
}
);
layerId = "A026023B-92C1-4D03-AC7E-471A27A73077";
paths = (
{
closed = 1;
nodes = (
"221 0 LINE",
"281 0 LINE",
"281 293 LINE",
"500 729 LINE",
"438 729 LINE",
"331 506 LINE SMOOTH",
"317.64 475.29 OFFCURVE",
"291.64 422.63 OFFCURVE",
"253 348 CURVE",
"249 348 LINE",
"239.11 367.81 OFFCURVE",
"224.91 397.23 OFFCURVE",
"206.41 436.28 CURVE SMOOTH",
"191.82 467.1 OFFCURVE",
"180.68 490.34 OFFCURVE",
"173 506 CURVE SMOOTH",
"66 729 LINE",
"2 729 LINE",
"221 293 LINE"
);
}
);
vertWidth = 1000;
width = 502;
}
);
note = Y;
unicode = 0059;
},
{
glyphname = Z;
layers = (
{
hints = (
{
horizontal = 1;
place = "{0, 52}";
type = Stem;
},
{
horizontal = 1;
place = "{678, 51}";
type = Stem;
},
{
place = "{54, 491}";
type = Stem;
}
);
layerId = "A026023B-92C1-4D03-AC7E-471A27A73077";
paths = (
{
closed = 1;
nodes = (
"54 0 LINE",
"545 0 LINE",
"545 52 LINE",
"129 52 LINE",
"540 694 LINE",
"540 729 LINE",
"91 729 LINE",
"91 678 LINE",
"466 678 LINE",
"54 35 LINE"
);
}
);
vertWidth = 1000;
width = 597;
}
);
note = Z;
unicode = 005A;
},
{
glyphname = a;
layers = (
{
hints = (
{
horizontal = 1;
place = "{-13, 49}";
type = Stem;
},
{
horizontal = 1;
place = "{496, 51}";
type = Stem;
},
{
place = "{63, 58}";
type = Stem;
},
{
place = "{409, 52}";
type = Stem;
},
{
horizontal = 1;
place = "{0, 21}";
target = up;
type = BottomGhost;
},
{
place = "{403, 58}";
type = Stem;
}
);
layerId = "A026023B-92C1-4D03-AC7E-471A27A73077";
paths = (
{
closed = 1;
nodes = (
"275.41 -12.66 OFFCURVE",
"337.41 14.34 OFFCURVE",
"404 68 CURVE",
"406 68 LINE",
"412 0 LINE",
"461 0 LINE",
"461 338 LINE SMOOTH",
"460.96 354.91 OFFCURVE",
"460 371.23 OFFCURVE",
"458.11 386.96 CURVE SMOOTH",
"444.71 493.66 OFFCURVE",
"388.34 547 OFFCURVE",
"289 547 CURVE SMOOTH",
"223.06 546.69 OFFCURVE",
"155.73 523.35 OFFCURVE",
"87 477 CURVE",
"113 435 LINE",
"166.6 475.33 OFFCURVE",
"222.6 495.67 OFFCURVE",
"281 496 CURVE SMOOTH",
"284.38 495.98 OFFCURVE",
"288.04 495.87 OFFCURVE",
"291.97 495.66 CURVE SMOOTH",
"368.58 490.84 OFFCURVE",
"405.59 437.29 OFFCURVE",
"403 335 CURVE",
"309.38 324.18 OFFCURVE",
"236.45 308.36 OFFCURVE",
"184.19 287.54 CURVE SMOOTH",
"103.39 254.97 OFFCURVE",
"63 203.79 OFFCURVE",
"63 134 CURVE SMOOTH",
"63.17 104.19 OFFCURVE",
"69.52 77.96 OFFCURVE",
"82.04 55.31 CURVE SMOOTH",
"108.14 9.77 OFFCURVE",
"153.46 -13 OFFCURVE",
"218 -13 CURVE SMOOTH"
);
},
{
closed = 1;
nodes = (
"219.3 36.06 OFFCURVE",
"208.86 37.04 OFFCURVE",
"198.69 38.93 CURVE SMOOTH",
"146.9 49.27 OFFCURVE",
"121 81.96 OFFCURVE",
"121 137 CURVE SMOOTH",
"121.17 157.71 OFFCURVE",
"126.08 176.31 OFFCURVE",
"135.75 192.79 CURVE SMOOTH",
"165.97 242.02 OFFCURVE",
"255.05 275.09 OFFCURVE",
"403 292 CURVE",
"403 119 LINE",
"400.04 116.43 OFFCURVE",
"396.8 113.64 OFFCURVE",
"393.26 110.64 CURVE SMOOTH",
"334.33 60.88 OFFCURVE",
"279.91 36 OFFCURVE",
"230 36 CURVE SMOOTH"
);
}
);
vertWidth = 1000;
width = 547;
}
);
note = a;
unicode = 0061;
},
{
glyphname = b;
layers = (
{
hints = (
{
horizontal = 1;
place = "{-13, 51}";
type = Stem;
},
{
horizontal = 1;
place = "{496, 51}";
type = Stem;
},
{
place = "{100, 58}";
type = Stem;
},
{
place = "{487, 62}";
type = Stem;
},
{
horizontal = 1;
place = "{0, 21}";
target = up;
type = BottomGhost;
}
);
layerId = "A026023B-92C1-4D03-AC7E-471A27A73077";
paths = (
{
closed = 1;
nodes = (
"367.59 -12.73 OFFCURVE",
"415.11 5.24 OFFCURVE",
"456.56 40.91 CURVE SMOOTH",
"518.18 94.9 OFFCURVE",
"549 172.93 OFFCURVE",
"549 275 CURVE SMOOTH",
"548.89 329.36 OFFCURVE",
"541.03 376.86 OFFCURVE",
"525.42 417.52 CURVE SMOOTH",
"491.65 503.84 OFFCURVE",
"428.18 547 OFFCURVE",
"335 547 CURVE SMOOTH",
"279.68 546.65 OFFCURVE",
"219.68 519.31 OFFCURVE",
"155 465 CURVE",
"158 567 LINE",
"158 795 LINE",
"100 795 LINE",
"100 0 LINE",
"147 0 LINE",
"154 54 LINE",
"156 54 LINE",
"209.15 9.85 OFFCURVE",
"261.81 -12.48 OFFCURVE",
"314 -13 CURVE SMOOTH"
);
},
{
closed = 1;
nodes = (
"258.17 38.29 OFFCURVE",
"207.83 59.96 OFFCURVE",
"158 103 CURVE",
"158 411 LINE",
"219.37 467.01 OFFCURVE",
"274.71 495.34 OFFCURVE",
"324 496 CURVE SMOOTH",
"330.59 495.97 OFFCURVE",
"337.33 495.65 OFFCURVE",
"344.23 495.05 CURVE SMOOTH",
"439.41 485.78 OFFCURVE",
"487 412.43 OFFCURVE",
"487 275 CURVE SMOOTH",
"486.83 215.93 OFFCURVE",
"474.76 165.44 OFFCURVE",
"450.78 123.54 CURVE SMOOTH",
"417.52 66.51 OFFCURVE",
"370.26 38 OFFCURVE",
"309 38 CURVE SMOOTH"
);
}
);
vertWidth = 1000;
width = 603;
}
);
note = b;
unicode = 0062;
},
{
glyphname = c;
layers = (
{
hints = (
{
horizontal = 1;
place = "{-13, 50}";
type = Stem;
},
{
horizontal = 1;
place = "{496, 51}";
type = Stem;
},
{
place = "{56, 61}";
type = Stem;
}
);
layerId = "A026023B-92C1-4D03-AC7E-471A27A73077";
paths = (
{
closed = 1;
nodes = (
"359.52 -12.7 OFFCURVE",
"416.52 10.3 OFFCURVE",
"471 56 CURVE",
"442 96 LINE",
"397.96 57.13 OFFCURVE",
"351.62 37.46 OFFCURVE",
"303 37 CURVE SMOOTH",
"261.39 37.24 OFFCURVE",
"224.99 49.75 OFFCURVE",
"193.78 74.53 CURVE SMOOTH",
"142.6 116.2 OFFCURVE",
"117 180.03 OFFCURVE",
"117 266 CURVE SMOOTH",
"117.2 324.36 OFFCURVE",
"131.24 374.52 OFFCURVE",
"159.12 416.46 CURVE SMOOTH",
"195.03 469.48 OFFCURVE",
"243.33 496 OFFCURVE",
"304 496 CURVE SMOOTH",
"346.54 495.68 OFFCURVE",
"387.2 477.68 OFFCURVE",
"426 442 CURVE",
"459 482 LINE",
"410.68 524.91 OFFCURVE",
"358.68 546.58 OFFCURVE",
"303 547 CURVE SMOOTH",
"245.91 546.75 OFFCURVE",
"195.54 528.99 OFFCURVE",
"151.89 493.71 CURVE SMOOTH",
"87.96 441.17 OFFCURVE",
"56 365.26 OFFCURVE",
"56 266 CURVE SMOOTH",
"56.21 191.7 OFFCURVE",
"74.02 129.78 OFFCURVE",
"109.46 80.23 CURVE SMOOTH",
"154.66 18.08 OFFCURVE",
"218.18 -13 OFFCURVE",
"300 -13 CURVE SMOOTH"
);
}
);
vertWidth = 1000;
width = 499;
}
);
note = c;
unicode = 0063;
},
{
glyphname = d;
layers = (
{
hints = (
{
horizontal = 1;
place = "{-13, 51}";
type = Stem;
},
{
horizontal = 1;
place = "{496, 51}";
type = Stem;
},
{
place = "{56, 62}";
type = Stem;
},
{
place = "{447, 58}";
type = Stem;
},
{
horizontal = 1;
place = "{0, 21}";
target = up;
type = BottomGhost;
}
);
layerId = "A026023B-92C1-4D03-AC7E-471A27A73077";
paths = (
{
closed = 1;
nodes = (
"337.24 -12.62 OFFCURVE",
"394.24 14.04 OFFCURVE",
"448 67 CURVE",
"451 67 LINE",
"457 0 LINE",
"505 0 LINE",
"505 795 LINE",
"447 795 LINE",
"447 578 LINE",
"451 482 LINE",
"445.23 486.54 OFFCURVE",
"439.44 490.96 OFFCURVE",
"433.64 495.26 CURVE SMOOTH",
"386.78 529.75 OFFCURVE",
"339.57 547 OFFCURVE",
"292 547 CURVE SMOOTH",
"236.54 546.72 OFFCURVE",
"187.41 527.43 OFFCURVE",
"144.63 489.13 CURVE SMOOTH",
"85.55 435.31 OFFCURVE",
"56 360.94 OFFCURVE",
"56 266 CURVE SMOOTH",
"56.14 200.17 OFFCURVE",
"67.76 144.36 OFFCURVE",
"90.83 98.59 CURVE SMOOTH",
"129.01 24.2 OFFCURVE",
"191.06 -13 OFFCURVE",
"277 -13 CURVE SMOOTH"
);
},
{
closed = 1;
nodes = (
"254.34 38.2 OFFCURVE",
"225.4 46.5 OFFCURVE",
"200.2 62.91 CURVE SMOOTH",
"145.4 99.73 OFFCURVE",
"118 167.42 OFFCURVE",
"118 266 CURVE SMOOTH",
"118.2 323.77 OFFCURVE",
"132.23 374.01 OFFCURVE",
"160.08 416.73 CURVE SMOOTH",
"195.17 469.58 OFFCURVE",
"241.15 496 OFFCURVE",
"298 496 CURVE SMOOTH",
"348.35 495.76 OFFCURVE",
"398.02 473.76 OFFCURVE",
"447 430 CURVE",
"447 122 LINE",
"393.42 66.69 OFFCURVE",
"340.08 38.69 OFFCURVE",
"287 38 CURVE SMOOTH"
);
}
);
vertWidth = 1000;
width = 605;
}
);
note = d;
unicode = 0064;
},
{
glyphname = e;
layers = (
{
hints = (
{
horizontal = 1;
place = "{-13, 49}";
type = Stem;
},
{
horizontal = 1;
place = "{257, 46}";
type = Stem;
},
{
horizontal = 1;
place = "{497, 50}";
type = Stem;
},
{
place = "{56, 59}";
type = Stem;
},
{
place = "{443, 53}";
type = Stem;
}
);
layerId = "A026023B-92C1-4D03-AC7E-471A27A73077";
paths = (
{
closed = 1;
nodes = (
"362.12 -13 OFFCURVE",
"418.79 4.33 OFFCURVE",
"474 39 CURVE",
"452 82 LINE",
"408.46 51.73 OFFCURVE",
"361.12 36.39 OFFCURVE",
"310 36 CURVE SMOOTH",
"266.84 36.23 OFFCURVE",
"228.91 48.71 OFFCURVE",
"196.22 73.43 CURVE SMOOTH",
"143.96 113.91 OFFCURVE",
"116.89 175.1 OFFCURVE",
"115 257 CURVE",
"493 257 LINE",
"495 270 OFFCURVE",
"496 284 OFFCURVE",
"496 299 CURVE SMOOTH",
"495.87 352.24 OFFCURVE",
"486.96 398.25 OFFCURVE",
"469.26 437.03 CURVE SMOOTH",
"435.13 510.34 OFFCURVE",
"375.37 547 OFFCURVE",
"290 547 CURVE SMOOTH",
"235.68 546.7 OFFCURVE",
"186.99 526.91 OFFCURVE",
"143.92 487.6 CURVE SMOOTH",
"85.3 433.2 OFFCURVE",
"56 359.33 OFFCURVE",
"56 266 CURVE SMOOTH",
"56.23 189.16 OFFCURVE",
"76.56 125.25 OFFCURVE",
"116.98 74.27 CURVE SMOOTH",
"163.87 16.09 OFFCURVE",
"226.21 -13 OFFCURVE",
"304 -13 CURVE SMOOTH"
);
},
{
closed = 1;
nodes = (
"115 303 LINE",
"119.43 350.06 OFFCURVE",
"133.42 390.55 OFFCURVE",
"156.99 424.48 CURVE SMOOTH",
"191.29 472.83 OFFCURVE",
"235.96 497 OFFCURVE",
"291 497 CURVE SMOOTH",
"311.27 496.89 OFFCURVE",
"330.12 493.7 OFFCURVE",
"347.56 487.43 CURVE SMOOTH",
"411.19 463.57 OFFCURVE",
"443 402.09 OFFCURVE",
"443 303 CURVE"
);
}
);
vertWidth = 1000;
width = 538;
}
);
note = e;
unicode = 0065;
},
{
glyphname = f;
layers = (
{
hints = (
{
horizontal = 1;
place = "{0, 21}";
target = up;
type = BottomGhost;
},
{
horizontal = 1;
place = "{484, 49}";
type = Stem;
},
{
horizontal = 1;
place = "{759, 49}";
type = Stem;
},
{
place = "{109, 58}";
type = Stem;
},
{
place = "{109, 179}";
type = Stem;
}
);
layerId = "A026023B-92C1-4D03-AC7E-471A27A73077";
paths = (
{
closed = 1;
nodes = (
"109 0 LINE",
"167 0 LINE",
"167 484 LINE",
"288 484 LINE",
"288 533 LINE",
"167 533 LINE",
"167 642 LINE SMOOTH",
"167.44 718.72 OFFCURVE",
"194.77 757.72 OFFCURVE",
"249 759 CURVE SMOOTH",
"269 759 OFFCURVE",
"290 754 OFFCURVE",
"312 744 CURVE",
"326 791 LINE",
"298 802.08 OFFCURVE",
"271.33 807.75 OFFCURVE",
"246 808 CURVE SMOOTH",
"239.2 807.97 OFFCURVE",
"232.3 807.61 OFFCURVE",
"225.29 806.92 CURVE SMOOTH",
"147.76 798.49 OFFCURVE",
"109 744.51 OFFCURVE",
"109 645 CURVE SMOOTH",
"109 533 LINE",
"35 528 LINE",
"35 484 LINE",
"109 484 LINE"
);
}
);
vertWidth = 1000;
width = 298;
}
);
note = f;
unicode = 0066;
},
{
glyphname = g;
layers = (
{
hints = (
{
horizontal = 1;
place = "{-254, 44}";
type = Stem;
},
{
horizontal = 1;
place = "{-3, 53}";
type = Stem;
},
{
horizontal = 1;
place = "{169, 44}";
type = Stem;
},
{
horizontal = 1;
place = "{485, 48}";
type = Stem;
},
{
place = "{87, 54}";
type = Stem;
},
{
place = "{401, 56}";
type = Stem;
},
{
place = "{473, 58}";
type = Stem;
},
{
horizontal = 1;
place = "{500, 33}";
type = Stem;
},
{
place = "{78, 58}";
type = Stem;
},
{
horizontal = 1;
place = "{500, 47}";
type = Stem;
},
{
place = "{55, 55}";
type = Stem;
},
{
horizontal = 1;
place = "{-3, 21}";
target = up;
type = BottomGhost;
}
);
layerId = "A026023B-92C1-4D03-AC7E-471A27A73077";
paths = (
{
closed = 1;
nodes = (
"346.74 -253.79 OFFCURVE",
"407.14 -236.54 OFFCURVE",
"456.2 -202.26 CURVE SMOOTH",
"506.07 -166.82 OFFCURVE",
"531 -123.73 OFFCURVE",
"531 -73 CURVE SMOOTH",
"530.94 -62.41 OFFCURVE",
"529.98 -52.2 OFFCURVE",
"528.13 -42.39 CURVE SMOOTH",
"515.6 19.2 OFFCURVE",
"457.23 50 OFFCURVE",
"353 50 CURVE SMOOTH",
"241 50 LINE SMOOTH",
"175.86 50.5 OFFCURVE",
"142.53 72.83 OFFCURVE",
"141 117 CURVE SMOOTH",
"141.41 142.85 OFFCURVE",
"155.41 167.52 OFFCURVE",
"183 191 CURVE",
"208.05 176.66 OFFCURVE",
"236.72 169.32 OFFCURVE",
"269 169 CURVE SMOOTH",
"312.1 169.23 OFFCURVE",
"350.43 181.56 OFFCURVE",
"383.97 205.99 CURVE SMOOTH",
"432.65 242.26 OFFCURVE",
"457 292.6 OFFCURVE",
"457 357 CURVE SMOOTH",
"456.65 409.72 OFFCURVE",
"438.32 452.38 OFFCURVE",
"402 485 CURVE",
"522 485 LINE",
"522 533 LINE",
"340 533 LINE",
"317.51 542.14 OFFCURVE",
"293.85 546.8 OFFCURVE",
"269 547 CURVE SMOOTH",
"225.3 546.77 OFFCURVE",
"186.29 534.19 OFFCURVE",
"151.99 509.26 CURVE SMOOTH",
"102.67 472.62 OFFCURVE",
"78 422.2 OFFCURVE",
"78 358 CURVE SMOOTH",
"78.05 349.29 OFFCURVE",
"78.73 340.26 OFFCURVE",
"80.04 330.93 CURVE SMOOTH",
"87.35 282.51 OFFCURVE",
"109.34 243.2 OFFCURVE",
"146 213 CURVE",
"146 209 LINE",
"107.15 179.58 OFFCURVE",
"87.49 146.58 OFFCURVE",
"87 110 CURVE SMOOTH",
"87.44 72.34 OFFCURVE",
"103.44 43.67 OFFCURVE",
"135 24 CURVE",
"135 19 LINE",
"131.89 16.88 OFFCURVE",
"128.51 14.48 OFFCURVE",
"124.86 11.78 CURVE SMOOTH",
"78.29 -23.28 OFFCURVE",
"55 -63.2 OFFCURVE",
"55 -108 CURVE SMOOTH",
"55.23 -135.84 OFFCURVE",
"63.6 -160.8 OFFCURVE",
"80.1 -182.87 CURVE SMOOTH",
"116.82 -230.29 OFFCURVE",
"181.78 -254 OFFCURVE",
"275 -254 CURVE SMOOTH"
);
},
{
closed = 1;
nodes = (
"242.77 213.22 OFFCURVE",
"218.49 220.76 OFFCURVE",
"196.16 235.63 CURVE SMOOTH",
"156.05 263.22 OFFCURVE",
"136 304.01 OFFCURVE",
"136 358 CURVE SMOOTH",
"136.19 389.43 OFFCURVE",
"143.74 417.2 OFFCURVE",
"158.63 441.29 CURVE SMOOTH",
"183.65 480.43 OFFCURVE",
"220.44 500 OFFCURVE",
"269 500 CURVE SMOOTH",
"294.16 499.81 OFFCURVE",
"317.33 493.4 OFFCURVE",
"338.5 480.79 CURVE SMOOTH",
"380.17 455.07 OFFCURVE",
"401 414.14 OFFCURVE",
"401 358 CURVE SMOOTH",
"400.79 324.72 OFFCURVE",
"392.02 295.17 OFFCURVE",
"374.7 269.38 CURVE SMOOTH",
"348.68 231.8 OFFCURVE",
"313.45 213 OFFCURVE",
"269 213 CURVE SMOOTH"
);
},
{
closed = 1;
nodes = (
"246.34 -209.9 OFFCURVE",
"215.03 -205.19 OFFCURVE",
"188.08 -195.87 CURVE SMOOTH",
"136.03 -177.35 OFFCURVE",
"110 -145.72 OFFCURVE",
"110 -101 CURVE SMOOTH",
"110.42 -60.65 OFFCURVE",
"132.42 -24.99 OFFCURVE",
"176 6 CURVE",
"202.62 0.18 OFFCURVE",
"224.96 -2.82 OFFCURVE",
"243 -3 CURVE SMOOTH",
"352 -3 LINE SMOOTH",
"365.51 -3.03 OFFCURVE",
"378.1 -3.69 OFFCURVE",
"389.76 -4.98 CURVE SMOOTH",
"445.25 -11.49 OFFCURVE",
"473 -36.83 OFFCURVE",
"473 -81 CURVE SMOOTH",
"472.69 -105.29 OFFCURVE",
"462.64 -128.38 OFFCURVE",
"442.85 -150.27 CURVE SMOOTH",
"405.66 -190.09 OFFCURVE",
"352.05 -210 OFFCURVE",
"282 -210 CURVE SMOOTH"
);
}
);
vertWidth = 1000;
width = 543;
}
);
note = g;
unicode = 0067;
},
{
glyphname = h;
layers = (
{
hints = (
{
horizontal = 1;
place = "{0, 21}";
target = up;
type = BottomGhost;
},
{
horizontal = 1;
place = "{495, 52}";
type = Stem;
},
{
place = "{100, 58}";
type = Stem;
},
{
place = "{443, 58}";
type = Stem;
}
);
layerId = "A026023B-92C1-4D03-AC7E-471A27A73077";
paths = (
{
closed = 1;
nodes = (
"100 0 LINE",
"158 0 LINE",
"158 399 LINE",
"172.04 413.46 OFFCURVE",
"184.95 426 OFFCURVE",
"196.73 436.63 CURVE SMOOTH",
"240.25 475.54 OFFCURVE",
"283.34 495 OFFCURVE",
"326 495 CURVE SMOOTH",
"340.72 495 OFFCURVE",
"353.91 493.35 OFFCURVE",
"365.59 490.05 CURVE SMOOTH",
"417.2 475.45 OFFCURVE",
"443 423.1 OFFCURVE",
"443 333 CURVE SMOOTH",
"443 0 LINE",
"501 0 LINE",
"501 341 LINE SMOOTH",
"500.98 349.96 OFFCURVE",
"500.75 358.96 OFFCURVE",
"500.29 367.99 CURVE SMOOTH",
"493.78 487.33 OFFCURVE",
"440.01 547 OFFCURVE",
"339 547 CURVE SMOOTH",
"329.5 546.95 OFFCURVE",
"319.8 546.18 OFFCURVE",
"309.89 544.7 CURVE SMOOTH",
"262.89 537.16 OFFCURVE",
"211.92 505.92 OFFCURVE",
"157 451 CURVE",
"158 567 LINE",
"158 795 LINE",
"100 795 LINE"
);
}
);
vertWidth = 1000;
width = 589;
}
);
note = h;
unicode = 0068;
},
{
glyphname = i;
layers = (
{
hints = (
{
horizontal = 1;
place = "{0, 21}";
target = up;
type = BottomGhost;
},
{
horizontal = 1;
place = "{533, -20}";
target = down;
type = TopGhost;
},
{
horizontal = 1;
place = "{658, 95}";
type = Stem;
},
{
place = "{100, 58}";
type = Stem;
},
{
place = "{83, 93}";
type = Stem;
}
);
layerId = "A026023B-92C1-4D03-AC7E-471A27A73077";
paths = (
{
closed = 1;
nodes = (
"100 0 LINE",
"158 0 LINE",
"158 533 LINE",
"100 533 LINE"
);
},
{
closed = 1;
nodes = (
"134.37 658.09 OFFCURVE",
"138.92 658.71 OFFCURVE",
"143.63 659.87 CURVE SMOOTH",
"165.21 666.08 OFFCURVE",
"176 681.79 OFFCURVE",
"176 707 CURVE SMOOTH",
"175.91 711.99 OFFCURVE",
"175.18 717.07 OFFCURVE",
"173.81 722.23 CURVE SMOOTH",
"167.52 742.75 OFFCURVE",
"152.92 753 OFFCURVE",
"130 753 CURVE SMOOTH",
"125.25 752.92 OFFCURVE",
"120.36 752.28 OFFCURVE",
"115.35 751.08 CURVE SMOOTH",
"93.78 745.11 OFFCURVE",
"83 730.42 OFFCURVE",
"83 707 CURVE SMOOTH",
"83.09 701.38 OFFCURVE",
"83.89 695.74 OFFCURVE",
"85.39 690.08 CURVE SMOOTH",
"91.86 668.7 OFFCURVE",
"106.73 658 OFFCURVE",
"130 658 CURVE SMOOTH"
);
}
);
vertWidth = 1000;
width = 257;
}
);
note = i;
unicode = 0069;
},
{
glyphname = j;
layers = (
{
hints = (
{
horizontal = 1;
place = "{-251, 49}";
type = Stem;
},
{
horizontal = 1;
place = "{533, -20}";
target = down;
type = TopGhost;
},
{
horizontal = 1;
place = "{658, 95}";
type = Stem;
},
{
place = "{100, 59}";
type = Stem;
},
{
horizontal = 1;
place = "{-237, 21}";
target = up;
type = BottomGhost;
},
{
place = "{82, 92}";
type = Stem;
}
);
layerId = "A026023B-92C1-4D03-AC7E-471A27A73077";
paths = (
{
closed = 1;
nodes = (
"115.92 -250.34 OFFCURVE",
"157.92 -196.68 OFFCURVE",
"159 -90 CURVE SMOOTH",
"159 533 LINE",
"100 533 LINE",
"100 -88 LINE SMOOTH",
"99.96 -108.1 OFFCURVE",
"98.82 -125.13 OFFCURVE",
"96.58 -139.1 CURVE SMOOTH",
"89.47 -181.04 OFFCURVE",
"67.28 -202 OFFCURVE",
"30 -202 CURVE SMOOTH",
"14.16 -201.84 OFFCURVE",
"-4.17 -198.17 OFFCURVE",
"-25 -191 CURVE",
"-38 -237 LINE",
"-18.18 -246.11 OFFCURVE",
"5.48 -250.78 OFFCURVE",
"33 -251 CURVE SMOOTH"
);
},
{
closed = 1;
nodes = (
"132.38 658 OFFCURVE",
"136.56 658.49 OFFCURVE",
"140.54 659.48 CURVE SMOOTH",
"162.85 665.03 OFFCURVE",
"174 680.87 OFFCURVE",
"174 707 CURVE SMOOTH",
"173.92 711.42 OFFCURVE",
"173.37 715.97 OFFCURVE",
"172.33 720.66 CURVE SMOOTH",
"166.76 742.22 OFFCURVE",
"151.98 753 OFFCURVE",
"128 753 CURVE SMOOTH",
"123.72 752.93 OFFCURVE",
"119.29 752.39 OFFCURVE",
"114.7 751.41 CURVE SMOOTH",
"92.9 745.92 OFFCURVE",
"82 731.11 OFFCURVE",
"82 707 CURVE SMOOTH",
"82.08 701.96 OFFCURVE",
"82.7 696.83 OFFCURVE",
"83.85 691.63 CURVE SMOOTH",
"89.62 669.21 OFFCURVE",
"104.33 658 OFFCURVE",
"128 658 CURVE SMOOTH"
);
}
);
vertWidth = 1000;
width = 258;
}
);
note = j;
unicode = 006A;
},
{
glyphname = k;
layers = (
{
hints = (
{
horizontal = 1;
place = "{0, 21}";
target = up;
type = BottomGhost;
},
{
horizontal = 1;
place = "{533, -20}";
target = down;
type = TopGhost;
},
{
place = "{100, 58}";
type = Stem;
}
);
layerId = "A026023B-92C1-4D03-AC7E-471A27A73077";
paths = (
{
closed = 1;
nodes = (
"100 0 LINE",
"158 0 LINE",
"158 144 LINE",
"273 280 LINE",
"445 0 LINE",
"509 0 LINE",
"307 322 LINE",
"481 533 LINE",
"415 533 LINE",
"160 219 LINE",
"158 219 LINE",
"158 795 LINE",
"100 795 LINE"
);
}
);
vertWidth = 1000;
width = 521;
}
);
note = k;
unicode = 006B;
},
{
glyphname = l;
layers = (
{
hints = (
{
horizontal = 1;
place = "{-13, 50}";
type = Stem;
},
{
place = "{100, 58}";
type = Stem;
}
);
layerId = "A026023B-92C1-4D03-AC7E-471A27A73077";
paths = (
{
closed = 1;
nodes = (
"183.05 -12.9 OFFCURVE",
"196.05 -10.9 OFFCURVE",
"210 -7 CURVE",
"201 39 LINE",
"194.51 37.87 OFFCURVE",
"188.17 37.2 OFFCURVE",
"182 37 CURVE SMOOTH",
"166.77 37.68 OFFCURVE",
"158.77 49.68 OFFCURVE",
"158 73 CURVE SMOOTH",
"158 795 LINE",
"100 795 LINE",
"100 79 LINE SMOOTH",
"100.49 19.01 OFFCURVE",
"124.16 -11.66 OFFCURVE",
"171 -13 CURVE SMOOTH"
);
}
);
vertWidth = 1000;
width = 267;
}
);
note = l;
unicode = 006C;
},
{
glyphname = m;
layers = (
{
hints = (
{
horizontal = 1;
place = "{0, 21}";
target = up;
type = BottomGhost;
},
{
horizontal = 1;
place = "{495, 52}";
type = Stem;
},
{
place = "{100, 58}";
type = Stem;
},
{
place = "{427, 58}";
type = Stem;
},
{
place = "{754, 58}";
type = Stem;
},
{
horizontal = 1;
place = "{533, -20}";
target = down;
type = TopGhost;
}
);
layerId = "A026023B-92C1-4D03-AC7E-471A27A73077";
paths = (
{
closed = 1;
nodes = (
"100 0 LINE",
"158 0 LINE",
"158 399 LINE",
"213.57 462.17 OFFCURVE",
"264.91 494.17 OFFCURVE",
"312 495 CURVE SMOOTH",
"321.37 494.95 OFFCURVE",
"330.48 494.16 OFFCURVE",
"339.31 492.65 CURVE SMOOTH",
"397.77 481.78 OFFCURVE",
"427 428.57 OFFCURVE",
"427 333 CURVE SMOOTH",
"427 0 LINE",
"485 0 LINE",
"485 399 LINE",
"541.53 462.17 OFFCURVE",
"592.86 494.17 OFFCURVE",
"639 495 CURVE SMOOTH",
"644.89 494.97 OFFCURVE",
"650.89 494.64 OFFCURVE",
"656.99 494.01 CURVE SMOOTH",
"721.66 486.55 OFFCURVE",
"754 432.88 OFFCURVE",
"754 333 CURVE SMOOTH",
"754 0 LINE",
"812 0 LINE",
"812 341 LINE SMOOTH",
"811.49 477.01 OFFCURVE",
"758.15 545.67 OFFCURVE",
"652 547 CURVE SMOOTH",
"598.77 546.59 OFFCURVE",
"538.77 510.59 OFFCURVE",
"472 439 CURVE",
"450.76 510.12 OFFCURVE",
"401.76 546.12 OFFCURVE",
"325 547 CURVE SMOOTH",
"270.66 546.55 OFFCURVE",
"214.66 514.88 OFFCURVE",
"157 452 CURVE",
"155 452 LINE",
"148 533 LINE",
"100 533 LINE"
);
}
);
vertWidth = 1000;
width = 904;
}
);
note = m;
unicode = 006D;
},
{
glyphname = n;
layers = (
{
hints = (
{
horizontal = 1;
place = "{0, 21}";
target = up;
type = BottomGhost;
},
{
horizontal = 1;
place = "{495, 52}";
type = Stem;
},
{
place = "{100, 58}";
type = Stem;
},
{
place = "{443, 58}";
type = Stem;
},
{
horizontal = 1;
place = "{533, -20}";
target = down;
type = TopGhost;
}
);
layerId = "A026023B-92C1-4D03-AC7E-471A27A73077";
paths = (
{
closed = 1;
nodes = (
"100 0 LINE",
"158 0 LINE",
"158 399 LINE",
"172.04 413.46 OFFCURVE",
"184.95 426 OFFCURVE",
"196.73 436.63 CURVE SMOOTH",
"240.25 475.54 OFFCURVE",
"283.34 495 OFFCURVE",
"326 495 CURVE SMOOTH",
"340.72 495 OFFCURVE",
"353.91 493.35 OFFCURVE",
"365.59 490.05 CURVE SMOOTH",
"417.2 475.45 OFFCURVE",
"443 423.1 OFFCURVE",
"443 333 CURVE SMOOTH",
"443 0 LINE",
"501 0 LINE",
"501 341 LINE SMOOTH",
"500.98 349.96 OFFCURVE",
"500.75 358.96 OFFCURVE",
"500.29 367.99 CURVE SMOOTH",
"493.78 487.33 OFFCURVE",
"440.01 547 OFFCURVE",
"339 547 CURVE SMOOTH",
"329.12 546.95 OFFCURVE",
"319.05 546.12 OFFCURVE",
"308.77 544.52 CURVE SMOOTH",
"262.59 536.82 OFFCURVE",
"212.01 505.98 OFFCURVE",
"157 452 CURVE",
"155 452 LINE",
"148 533 LINE",
"100 533 LINE"
);
}
);
vertWidth = 1000;
width = 593;
}
);
note = n;
unicode = 006E;
},
{
glyphname = o;
layers = (
{
hints = (
{
horizontal = 1;
place = "{-13, 50}";
type = Stem;
},
{
horizontal = 1;
place = "{496, 51}";
type = Stem;
},
{
place = "{56, 61}";
type = Stem;
},
{
place = "{478, 60}";
type = Stem;
}
);
layerId = "A026023B-92C1-4D03-AC7E-471A27A73077";
paths = (
{
closed = 1;
nodes = (
"352.19 -12.75 OFFCURVE",
"400.97 4.52 OFFCURVE",
"443.32 38.82 CURVE SMOOTH",
"506.44 90.85 OFFCURVE",
"538 166.57 OFFCURVE",
"538 266 CURVE SMOOTH",
"537.76 345.47 OFFCURVE",
"516.63 411.21 OFFCURVE",
"474.6 463.21 CURVE SMOOTH",
"428.71 519.07 OFFCURVE",
"369.51 547 OFFCURVE",
"297 547 CURVE SMOOTH",
"241.75 546.75 OFFCURVE",
"192.92 529.28 OFFCURVE",
"150.52 494.58 CURVE SMOOTH",
"87.51 442.12 OFFCURVE",
"56 365.92 OFFCURVE",
"56 266 CURVE SMOOTH",
"56.24 187.65 OFFCURVE",
"77.05 122.74 OFFCURVE",
"118.44 71.25 CURVE SMOOTH",
"164.35 15.08 OFFCURVE",
"223.87 -13 OFFCURVE",
"297 -13 CURVE SMOOTH"
);
},
{
closed = 1;
nodes = (
"256.77 37.27 OFFCURVE",
"221.19 50.62 OFFCURVE",
"190.27 77.06 CURVE SMOOTH",
"141.42 119.88 OFFCURVE",
"117 182.86 OFFCURVE",
"117 266 CURVE SMOOTH",
"117.19 323.4 OFFCURVE",
"129.99 372.77 OFFCURVE",
"155.41 414.13 CURVE SMOOTH",
"189.62 468.71 OFFCURVE",
"236.81 496 OFFCURVE",
"297 496 CURVE SMOOTH",
"337.97 496 OFFCURVE",
"373.86 482.36 OFFCURVE",
"404.67 455.08 CURVE SMOOTH",
"453.56 411.79 OFFCURVE",
"478 348.76 OFFCURVE",
"478 266 CURVE SMOOTH",
"477.81 208.46 OFFCURVE",
"464.77 159.05 OFFCURVE",
"438.87 117.77 CURVE SMOOTH",
"404.43 63.93 OFFCURVE",
"357.14 37 OFFCURVE",
"297 37 CURVE SMOOTH"
);
}
);
vertWidth = 1000;
width = 594;
}
);
note = o;
unicode = 006F;
},
{
glyphname = p;
layers = (
{
hints = (
{
horizontal = 1;
place = "{-238, 21}";
target = up;
type = BottomGhost;
},
{
horizontal = 1;
place = "{-13, 51}";
type = Stem;
},
{
horizontal = 1;
place = "{496, 51}";
type = Stem;
},
{
place = "{100, 58}";
type = Stem;
},
{
place = "{487, 62}";
type = Stem;
},
{
horizontal = 1;
place = "{533, -20}";
target = down;
type = TopGhost;
}
);
layerId = "A026023B-92C1-4D03-AC7E-471A27A73077";
paths = (
{
closed = 1;
nodes = (
"100 -238 LINE",
"158 -238 LINE",
"158 -46 LINE",
"157 52 LINE",
"212.33 9.2 OFFCURVE",
"264.67 -12.47 OFFCURVE",
"314 -13 CURVE SMOOTH",
"367.59 -12.73 OFFCURVE",
"415.11 5.24 OFFCURVE",
"456.56 40.91 CURVE SMOOTH",
"518.18 94.9 OFFCURVE",
"549 172.93 OFFCURVE",
"549 275 CURVE SMOOTH",
"548.89 329.36 OFFCURVE",
"541.03 376.86 OFFCURVE",
"525.42 417.52 CURVE SMOOTH",
"491.65 503.84 OFFCURVE",
"428.18 547 OFFCURVE",
"335 547 CURVE SMOOTH",
"285.09 546.66 OFFCURVE",
"225.76 520.33 OFFCURVE",
"157 468 CURVE",
"155 468 LINE",
"148 533 LINE",
"100 533 LINE"
);
},
{
closed = 1;
nodes = (
"259.97 38.28 OFFCURVE",
"209.64 59.95 OFFCURVE",
"158 103 CURVE",
"158 411 LINE",
"221.37 467.01 OFFCURVE",
"276.7 495.34 OFFCURVE",
"324 496 CURVE SMOOTH",
"330.59 495.97 OFFCURVE",
"337.33 495.65 OFFCURVE",
"344.23 495.05 CURVE SMOOTH",
"439.41 485.78 OFFCURVE",
"487 412.43 OFFCURVE",
"487 275 CURVE SMOOTH",
"486.83 215.93 OFFCURVE",
"474.76 165.44 OFFCURVE",
"450.78 123.54 CURVE SMOOTH",
"417.52 66.51 OFFCURVE",
"370.26 38 OFFCURVE",
"309 38 CURVE SMOOTH"
);
}
);
vertWidth = 1000;
width = 605;
}
);
note = p;
unicode = 0070;
},
{
glyphname = q;
layers = (
{
hints = (
{
horizontal = 1;
place = "{-238, 21}";
target = up;
type = BottomGhost;
},
{
horizontal = 1;
place = "{-13, 51}";
type = Stem;
},
{
horizontal = 1;
place = "{533, -20}";
target = down;
type = TopGhost;
},
{
place = "{56, 62}";
type = Stem;
},
{
place = "{447, 58}";
type = Stem;
},
{
place = "{454.5, 50.5}";
type = Stem;
},
{
horizontal = 1;
place = "{496, 51}";
type = Stem;
}
);
layerId = "A026023B-92C1-4D03-AC7E-471A27A73077";
paths = (
{
closed = 1;
nodes = (
"447 -238 LINE",
"505 -238 LINE",
"505 533 LINE",
"458 533 LINE",
"451 483 LINE",
"449 483 LINE",
"445.84 485.57 OFFCURVE",
"442.43 488.29 OFFCURVE",
"438.77 491.17 CURVE SMOOTH",
"390.99 528.39 OFFCURVE",
"342.07 547 OFFCURVE",
"292 547 CURVE SMOOTH",
"236.54 546.72 OFFCURVE",
"187.41 527.43 OFFCURVE",
"144.63 489.13 CURVE SMOOTH",
"85.55 435.31 OFFCURVE",
"56 360.94 OFFCURVE",
"56 266 CURVE SMOOTH",
"56.14 200.17 OFFCURVE",
"67.76 144.36 OFFCURVE",
"90.83 98.59 CURVE SMOOTH",
"129.01 24.2 OFFCURVE",
"191.06 -13 OFFCURVE",
"277 -13 CURVE SMOOTH",
"336.72 -12.64 OFFCURVE",
"394.72 14.69 OFFCURVE",
"451 69 CURVE",
"447 -35 LINE"
);
},
{
closed = 1;
nodes = (
"254.34 38.2 OFFCURVE",
"225.4 46.5 OFFCURVE",
"200.2 62.91 CURVE SMOOTH",
"145.4 99.73 OFFCURVE",
"118 167.42 OFFCURVE",
"118 266 CURVE SMOOTH",
"118.2 323.77 OFFCURVE",
"132.23 374.01 OFFCURVE",
"160.08 416.73 CURVE SMOOTH",
"195.17 469.58 OFFCURVE",
"241.15 496 OFFCURVE",
"298 496 CURVE SMOOTH",
"348.35 495.76 OFFCURVE",
"398.02 473.76 OFFCURVE",
"447 430 CURVE",
"447 122 LINE",
"393.42 66.69 OFFCURVE",
"340.08 38.69 OFFCURVE",
"287 38 CURVE SMOOTH"
);
}
);
vertWidth = 1000;
width = 605;
}
);
note = q;
unicode = 0071;
},
{
glyphname = r;
layers = (
{
hints = (
{
horizontal = 1;
place = "{0, 21}";
target = up;
type = BottomGhost;
},
{
horizontal = 1;
place = "{492, 55}";
type = Stem;
},
{
place = "{100, 58}";
type = Stem;
},
{
horizontal = 1;
place = "{535, -20}";
target = down;
type = TopGhost;
},
{
horizontal = 1;
place = "{533, -20}";
target = down;
type = TopGhost;
}
);
layerId = "A026023B-92C1-4D03-AC7E-471A27A73077";
paths = (
{
closed = 1;
nodes = (
"100 0 LINE",
"158 0 LINE",
"158 358 LINE",
"164.27 373.77 OFFCURVE",
"171.27 388.63 OFFCURVE",
"179.03 402.58 CURVE SMOOTH",
"212.71 462.2 OFFCURVE",
"253.37 492 OFFCURVE",
"301 492 CURVE SMOOTH",
"317.57 491.93 OFFCURVE",
"333.9 488.93 OFFCURVE",
"350 483 CURVE",
"362 535 LINE",
"347.18 542.67 OFFCURVE",
"329.18 546.67 OFFCURVE",
"308 547 CURVE SMOOTH",
"303.11 547 OFFCURVE",
"298.24 546.71 OFFCURVE",
"293.39 546.14 CURVE SMOOTH",
"239.19 539.73 OFFCURVE",
"193.72 502.35 OFFCURVE",
"157 434 CURVE",
"155 434 LINE",
"148 533 LINE",
"100 533 LINE"
);
}
);
vertWidth = 1000;
width = 359;
}
);
note = r;
unicode = 0072;
},
{
glyphname = s;
layers = (
{
hints = (
{
horizontal = 1;
place = "{-13, 48}";
type = Stem;
},
{
horizontal = 1;
place = "{498, 49}";
type = Stem;
},
{
place = "{64, 58}";
type = Stem;
},
{
place = "{356, 58}";
type = Stem;
}
);
layerId = "A026023B-92C1-4D03-AC7E-471A27A73077";
paths = (
{
closed = 1;
nodes = (
"275.86 -12.82 OFFCURVE",
"314.24 -2.9 OFFCURVE",
"346.15 16.73 CURVE SMOOTH",
"391.38 45.3 OFFCURVE",
"414 86.06 OFFCURVE",
"414 139 CURVE SMOOTH",
"413.65 182.8 OFFCURVE",
"395.99 218.41 OFFCURVE",
"361.02 245.81 CURVE SMOOTH",
"341.32 260.72 OFFCURVE",
"301.65 279.45 OFFCURVE",
"242 302 CURVE SMOOTH",
"218.4 310.76 OFFCURVE",
"200.64 317.91 OFFCURVE",
"188.74 323.46 CURVE SMOOTH",
"144.25 344.45 OFFCURVE",
"122 371.96 OFFCURVE",
"122 406 CURVE SMOOTH",
"122.12 417.49 OFFCURVE",
"124.26 428.65 OFFCURVE",
"128.41 439.5 CURVE SMOOTH",
"144.32 478.5 OFFCURVE",
"180.85 498 OFFCURVE",
"238 498 CURVE SMOOTH",
"278.19 497.74 OFFCURVE",
"319.85 481.74 OFFCURVE",
"363 450 CURVE",
"394 490 LINE",
"347.79 527.59 OFFCURVE",
"296.12 546.59 OFFCURVE",
"239 547 CURVE SMOOTH",
"197.15 546.82 OFFCURVE",
"161.15 537.91 OFFCURVE",
"131.02 520.27 CURVE SMOOTH",
"86.34 493.39 OFFCURVE",
"64 454.3 OFFCURVE",
"64 403 CURVE SMOOTH",
"64.27 371.31 OFFCURVE",
"74.79 343.86 OFFCURVE",
"95.56 320.66 CURVE SMOOTH",
"117.78 296.74 OFFCURVE",
"161.59 273.19 OFFCURVE",
"227 250 CURVE SMOOTH",
"240.68 245.13 OFFCURVE",
"252.7 240.54 OFFCURVE",
"263.09 236.22 CURVE SMOOTH",
"325.03 210.19 OFFCURVE",
"356 176.79 OFFCURVE",
"356 136 CURVE SMOOTH",
"355.86 121.29 OFFCURVE",
"352.87 107.32 OFFCURVE",
"347.02 94.08 CURVE SMOOTH",
"328.66 54.7 OFFCURVE",
"290.99 35 OFFCURVE",
"234 35 CURVE SMOOTH",
"230.89 35.01 OFFCURVE",
"227.47 35.08 OFFCURVE",
"223.73 35.2 CURVE SMOOTH",
"169.99 37.26 OFFCURVE",
"117.41 59.53 OFFCURVE",
"66 102 CURVE",
"35 60 LINE",
"94.47 11.74 OFFCURVE",
"159.8 -12.59 OFFCURVE",
"231 -13 CURVE SMOOTH"
);
}
);
vertWidth = 1000;
width = 452;
}
);
note = s;
unicode = 0073;
},
{
glyphname = t;
layers = (
{
hints = (
{
horizontal = 1;
place = "{-13, 50}";
type = Stem;
},
{
horizontal = 1;
place = "{484, 49}";
type = Stem;
},
{
place = "{118.5, 52.5}";
type = Stem;
},
{
place = "{113, 58}";
type = Stem;
}
);
layerId = "A026023B-92C1-4D03-AC7E-471A27A73077";
paths = (
{
closed = 1;
nodes = (
"271.73 -12.82 OFFCURVE",
"301.4 -6.15 OFFCURVE",
"339 7 CURVE",
"325 53 LINE",
"302.66 42.61 OFFCURVE",
"281 37.28 OFFCURVE",
"260 37 CURVE SMOOTH",
"246.67 37.09 OFFCURVE",
"234.59 38.76 OFFCURVE",
"223.76 42.02 CURVE SMOOTH",
"188.59 53.4 OFFCURVE",
"171 88.72 OFFCURVE",
"171 148 CURVE SMOOTH",
"171 484 LINE",
"324 484 LINE",
"324 533 LINE",
"171 533 LINE",
"171 687 LINE",
"122 687 LINE",
"115 533 LINE",
"30 528 LINE",
"30 484 LINE",
"113 484 LINE",
"113 152 LINE SMOOTH",
"113.04 134.45 OFFCURVE",
"114.1 118.13 OFFCURVE",
"116.19 103.04 CURVE SMOOTH",
"127.4 25.68 OFFCURVE",
"172 -13 OFFCURVE",
"250 -13 CURVE SMOOTH"
);
}
);
vertWidth = 1000;
width = 352;
}
);
note = t;
unicode = 0074;
},
{
glyphname = u;
layers = (
{
hints = (
{
horizontal = 1;
place = "{-13, 52}";
type = Stem;
},
{
horizontal = 1;
place = "{533, -20}";
target = down;
type = TopGhost;
},
{
place = "{92, 58}";
type = Stem;
},
{
place = "{432, 58}";
type = Stem;
},
{
horizontal = 1;
place = "{0, 21}";
target = up;
type = BottomGhost;
}
);
layerId = "A026023B-92C1-4D03-AC7E-471A27A73077";
paths = (
{
closed = 1;
nodes = (
"259.17 -12.97 OFFCURVE",
"265.6 -12.65 OFFCURVE",
"272.27 -12.04 CURVE SMOOTH",
"326.34 -6.59 OFFCURVE",
"379.92 26.76 OFFCURVE",
"433 88 CURVE",
"436 88 LINE",
"441 0 LINE",
"490 0 LINE",
"490 533 LINE",
"432 533 LINE",
"432 143 LINE",
"418.52 126.88 OFFCURVE",
"405.82 112.79 OFFCURVE",
"393.89 100.73 CURVE SMOOTH",
"352.74 59.58 OFFCURVE",
"310.12 39 OFFCURVE",
"266 39 CURVE SMOOTH",
"251.57 39.08 OFFCURVE",
"238.25 40.77 OFFCURVE",
"226.06 44.07 CURVE SMOOTH",
"175.35 58.66 OFFCURVE",
"150 110.3 OFFCURVE",
"150 199 CURVE SMOOTH",
"150 533 LINE",
"92 533 LINE",
"92 192 LINE SMOOTH",
"92.04 172.95 OFFCURVE",
"93.05 154.95 OFFCURVE",
"95.03 138 CURVE SMOOTH",
"107.34 37.33 OFFCURVE",
"159.99 -13 OFFCURVE",
"253 -13 CURVE SMOOTH"
);
}
);
vertWidth = 1000;
width = 590;
}
);
note = u;
unicode = 0075;
},
{
glyphname = v;
layers = (
{
hints = (
{
horizontal = 1;
place = "{0, 52}";
type = Stem;
},
{
horizontal = 1;
place = "{533, -20}";
target = down;
type = TopGhost;
},
{
place = "{13, 463}";
type = Stem;
}
);
layerId = "A026023B-92C1-4D03-AC7E-471A27A73077";
paths = (
{
closed = 1;
nodes = (
"211 0 LINE",
"280 0 LINE",
"476 533 LINE",
"417 533 LINE",
"301 206 LINE SMOOTH",
"288.72 168.48 OFFCURVE",
"271.06 117.15 OFFCURVE",
"248 52 CURVE",
"244 52 LINE",
"230.28 88.64 OFFCURVE",
"212.61 139.98 OFFCURVE",
"191 206 CURVE SMOOTH",
"76 533 LINE",
"13 533 LINE"
);
}
);
vertWidth = 1000;
width = 489;
}
);
note = v;
unicode = 0076;
},
{
glyphname = w;
layers = (
{
hints = (
{
horizontal = 1;
place = "{0, 52}";
type = Stem;
},
{
horizontal = 1;
place = "{474, 59}";
type = Stem;
},
{
place = "{26, 714}";
type = Stem;
}
);
layerId = "A026023B-92C1-4D03-AC7E-471A27A73077";
paths = (
{
closed = 1;
nodes = (
"182 0 LINE",
"252 0 LINE",
"339 319 LINE",
"351.68 357.92 OFFCURVE",
"365.35 409.59 OFFCURVE",
"380 474 CURVE",
"385 474 LINE",
"389.62 457.6 OFFCURVE",
"395.93 433.32 OFFCURVE",
"403.91 401.15 CURVE SMOOTH",
"412.68 365.7 OFFCURVE",
"419.71 338.98 OFFCURVE",
"425 321 CURVE SMOOTH",
"515 0 LINE",
"590 0 LINE",
"740 533 LINE",
"683 533 LINE",
"592 197 LINE SMOOTH",
"588.97 185.13 OFFCURVE",
"584.45 167.48 OFFCURVE",
"578.44 144.07 CURVE SMOOTH",
"567.96 103.29 OFFCURVE",
"560.15 72.6 OFFCURVE",
"555 52 CURVE",
"551 52 LINE",
"540.3 88.73 OFFCURVE",
"527.3 137.06 OFFCURVE",
"512 197 CURVE SMOOTH",
"417 533 LINE",
"353 533 LINE",
"258 197 LINE SMOOTH",
"237.96 119.91 OFFCURVE",
"225.3 71.58 OFFCURVE",
"220 52 CURVE",
"215 52 LINE",
"214.52 54.32 OFFCURVE",
"203.18 102.65 OFFCURVE",
"181 197 CURVE",
"88 533 LINE",
"26 533 LINE"
);
}
);
vertWidth = 1000;
width = 766;
}
);
note = w;
unicode = 0077;
},
{
glyphname = x;
layers = (
{
hints = (
{
horizontal = 1;
place = "{0, 21}";
target = up;
type = BottomGhost;
},
{
horizontal = 1;
place = "{533, -20}";
target = down;
type = TopGhost;
},
{
place = "{15, 430}";
type = Stem;
}
);
layerId = "A026023B-92C1-4D03-AC7E-471A27A73077";
paths = (
{
closed = 1;
nodes = (
"15 0 LINE",
"77 0 LINE",
"163 141 LINE SMOOTH",
"169.49 151.22 OFFCURVE",
"179.11 166.8 OFFCURVE",
"191.86 187.76 CURVE SMOOTH",
"205.61 210.39 OFFCURVE",
"215.99 227.14 OFFCURVE",
"223 238 CURVE",
"228 238 LINE",
"251.03 205.47 OFFCURVE",
"271.37 173.14 OFFCURVE",
"289 141 CURVE",
"380 0 LINE",
"445 0 LINE",
"265 273 LINE",
"430 533 LINE",
"369 533 LINE",
"290 402 LINE SMOOTH",
"259.53 351.19 OFFCURVE",
"241.86 321.86 OFFCURVE",
"237 314 CURVE",
"233 314 LINE",
"211.75 344.85 OFFCURVE",
"192.75 374.18 OFFCURVE",
"176 402 CURVE SMOOTH",
"94 533 LINE",
"30 533 LINE",
"195 279 LINE"
);
}
);
vertWidth = 1000;
width = 460;
}
);
note = x;
unicode = 0078;
},
{
glyphname = y;
layers = (
{
hints = (
{
horizontal = 1;
place = "{-240, 52}";
type = Stem;
},
{
horizontal = 1;
place = "{533, -20}";
target = down;
type = TopGhost;
},
{
place = "{13, 464}";
type = Stem;
}
);
layerId = "A026023B-92C1-4D03-AC7E-471A27A73077";
paths = (
{
closed = 1;
nodes = (
"166.88 -239.22 OFFCURVE",
"228.22 -179.88 OFFCURVE",
"269 -62 CURVE SMOOTH",
"477 533 LINE",
"418 533 LINE",
"309 207 LINE SMOOTH",
"304.75 193.95 OFFCURVE",
"297.99 172.75 OFFCURVE",
"288.73 143.4 CURVE SMOOTH",
"276.31 104.01 OFFCURVE",
"267.07 75.21 OFFCURVE",
"261 57 CURVE",
"256 57 LINE",
"250.45 71.03 OFFCURVE",
"231.79 121.03 OFFCURVE",
"200 207 CURVE SMOOTH",
"76 533 LINE",
"13 533 LINE",
"231 -8 LINE",
"217 -53 LINE SMOOTH",
"186.59 -141.86 OFFCURVE",
"142.26 -186.86 OFFCURVE",
"84 -188 CURVE SMOOTH",
"70.23 -187.83 OFFCURVE",
"55.89 -185.17 OFFCURVE",
"41 -180 CURVE",
"28 -229 LINE",
"43.64 -236.09 OFFCURVE",
"62.64 -239.76 OFFCURVE",
"85 -240 CURVE SMOOTH"
);
}
);
vertWidth = 1000;
width = 490;
}
);
note = y;
unicode = 0079;
},
{
glyphname = z;
layers = (
{
hints = (
{
horizontal = 1;
place = "{0, 50}";
type = Stem;
},
{
horizontal = 1;
place = "{484, 49}";
type = Stem;
},
{
place = "{32, 392}";
type = Stem;
}
);
layerId = "A026023B-92C1-4D03-AC7E-471A27A73077";
paths = (
{
closed = 1;
nodes = (
"32 0 LINE",
"424 0 LINE",
"424 50 LINE",
"107 50 LINE",
"414 502 LINE",
"414 533 LINE",
"65 533 LINE",
"65 484 LINE",
"339 484 LINE",
"32 31 LINE"
);
}
);
vertWidth = 1000;
width = 453;
}
);
note = z;
unicode = 007A;
},
{
glyphname = uni4E00;
layers = (
{
hints = (
{
horizontal = 1;
place = "{364, 53}";
type = Stem;
},
{
place = "{49, 906}";
type = Stem;
}
);
layerId = "A026023B-92C1-4D03-AC7E-471A27A73077";
paths = (
{
closed = 1;
nodes = (
"49 417 LINE",
"49 364 LINE",
"955 364 LINE",
"955 417 LINE"
);
}
);
vertWidth = 1000;
width = 1000;
}
);
note = uni4E00;
unicode = 4E00;
},
{
glyphname = uni4E66;
layers = (
{
hints = (
{
horizontal = 1;
place = "{36, 40}";
type = Stem;
},
{
horizontal = 1;
place = "{338, 46}";
type = Stem;
},
{
horizontal = 1;
place = "{606, 47}";
type = Stem;
},
{
place = "{438, 48}";
type = Stem;
},
{
place = "{744, 47}";
type = Stem;
},
{
place = "{884, 52}";
type = Stem;
}
);
layerId = "A026023B-92C1-4D03-AC7E-471A27A73077";
paths = (
{
closed = 1;
nodes = (
"943 659 LINE",
"900.31 698.24 OFFCURVE",
"840.98 743.24 OFFCURVE",
"765 794 CURVE",
"735 763 LINE",
"811.1 711.34 OFFCURVE",
"870.1 664.67 OFFCURVE",
"912 623 CURVE"
);
},
{
closed = 1;
nodes = (
"486 606 LINE",
"744 606 LINE",
"744 384 LINE",
"486 384 LINE"
);
},
{
closed = 1;
nodes = (
"791 384 LINE",
"791 653 LINE",
"486 653 LINE",
"486 829 LINE",
"438 829 LINE",
"438 653 LINE",
"136 653 LINE",
"136 606 LINE",
"438 606 LINE",
"438 384 LINE",
"64 384 LINE",
"64 338 LINE",
"438 338 LINE",
"438 -74 LINE",
"486 -74 LINE",
"486 338 LINE",
"884 338 LINE",
"883.25 328.49 OFFCURVE",
"882.48 318.98 OFFCURVE",
"881.69 309.5 CURVE SMOOTH",
"870.49 176.66 OFFCURVE",
"855.6 101.82 OFFCURVE",
"837 85 CURVE SMOOTH",
"829.66 79.38 OFFCURVE",
"816 76.38 OFFCURVE",
"796 76 CURVE SMOOTH",
"739.61 76 OFFCURVE",
"689.61 78.33 OFFCURVE",
"646 83 CURVE",
"654.71 69.09 OFFCURVE",
"660.38 53.43 OFFCURVE",
"663 36 CURVE",
"736.33 32.35 OFFCURVE",
"785.67 31.35 OFFCURVE",
"811 33 CURVE SMOOTH",
"840.05 34.1 OFFCURVE",
"861.72 41.77 OFFCURVE",
"876 56 CURVE SMOOTH",
"880.19 60.22 OFFCURVE",
"884.3 65.83 OFFCURVE",
"888.32 72.82 CURVE SMOOTH",
"906.16 105.87 OFFCURVE",
"921.38 201.26 OFFCURVE",
"934 359 CURVE SMOOTH",
"935.25 375 OFFCURVE",
"935.92 383.33 OFFCURVE",
"936 384 CURVE"
);
}
);
vertWidth = 1000;
width = 1000;
}
);
note = uni4E66;
unicode = 4E66;
},
{
glyphname = uni4F20;
layers = (
{
hints = (
{
horizontal = 1;
place = "{475, 46}";
type = Stem;
},
{
horizontal = 1;
place = "{665, 45}";
type = Stem;
},
{
place = "{173, 47}";
type = Stem;
},
{
horizontal = 1;
place = "{290, 46}";
type = Stem;
},
{
horizontal = 1;
place = "{318, 18}";
type = Stem;
}
);
layerId = "A026023B-92C1-4D03-AC7E-471A27A73077";
paths = (
{
closed = 1;
nodes = (
"282 829 LINE",
"272.55 803.93 OFFCURVE",
"262 778.52 OFFCURVE",
"250.33 752.79 CURVE SMOOTH",
"187.59 614.97 OFFCURVE",
"111.47 503.04 OFFCURVE",
"22 417 CURVE",
"36.05 402.51 OFFCURVE",
"46.05 388.18 OFFCURVE",
"52 374 CURVE",
"91.05 412.28 OFFCURVE",
"131.38 461.95 OFFCURVE",
"173 523 CURVE",
"173 -72 LINE",
"220 -72 LINE",
"220 596 LINE",
"262.9 668.32 OFFCURVE",
"298.9 741.65 OFFCURVE",
"328 816 CURVE"
);
},
{
closed = 1;
nodes = (
"946 475 LINE",
"946 521 LINE",
"549 521 LINE",
"564.26 568.89 OFFCURVE",
"577.93 616.89 OFFCURVE",
"590 665 CURVE",
"904 665 LINE",
"904 710 LINE",
"603 710 LINE",
"620.98 775.34 OFFCURVE",
"631.32 813.34 OFFCURVE",
"634 824 CURVE",
"587 831 LINE",
"580.42 803.29 OFFCURVE",
"569.75 762.95 OFFCURVE",
"555 710 CURVE",
"347 710 LINE",
"347 665 LINE",
"543 665 LINE",
"537.09 643.23 OFFCURVE",
"523.09 595.23 OFFCURVE",
"501 521 CURVE",
"291 521 LINE",
"291 475 LINE",
"488 475 LINE",
"467.03 408.32 OFFCURVE",
"446.36 346.65 OFFCURVE",
"426 290 CURVE",
"792 290 LINE",
"734.23 219.97 OFFCURVE",
"676.89 153.63 OFFCURVE",
"620 91 CURVE",
"604.38 102.91 OFFCURVE",
"570.04 126.57 OFFCURVE",
"517 162 CURVE",
"481 132 LINE",
"493.95 123.68 OFFCURVE",
"507.67 114.49 OFFCURVE",
"522.17 104.44 CURVE SMOOTH",
"612.35 41.71 OFFCURVE",
"682.96 -17.11 OFFCURVE",
"734 -72 CURVE",
"771 -36 LINE",
"740.38 -5.48 OFFCURVE",
"702.05 27.85 OFFCURVE",
"656 64 CURVE",
"731.33 147.3 OFFCURVE",
"804.66 231.96 OFFCURVE",
"876 318 CURVE",
"841 339 LINE",
"833 336 LINE",
"493 336 LINE",
"512.29 396.82 OFFCURVE",
"526.62 443.16 OFFCURVE",
"536 475 CURVE"
);
}
);
vertWidth = 1000;
width = 1000;
}
);
note = uni4F20;
unicode = 4F20;
},
{
glyphname = uni4F53;
layers = (
{
hints = (
{
horizontal = 1;
place = "{123, 45}";
type = Stem;
},
{
horizontal = 1;
place = "{571, 46}";
type = Stem;
},
{
place = "{173, 46}";
type = Stem;
},
{
place = "{589, 47}";
type = Stem;
}
);
layerId = "A026023B-92C1-4D03-AC7E-471A27A73077";
paths = (
{
closed = 1;
nodes = (
"269 829 LINE",
"263.43 812.32 OFFCURVE",
"257.39 795.32 OFFCURVE",
"250.88 777.99 CURVE SMOOTH",
"194.58 628.66 OFFCURVE",
"125.28 508.33 OFFCURVE",
"43 417 CURVE",
"57.37 399.26 OFFCURVE",
"67.37 384.92 OFFCURVE",
"73 374 CURVE",
"110.95 418.74 OFFCURVE",
"144.28 465.07 OFFCURVE",
"173 513 CURVE",
"173 -72 LINE",
"219 -72 LINE",
"219 594 LINE",
"257.03 668.06 OFFCURVE",
"288.7 742.4 OFFCURVE",
"314 817 CURVE"
);
},
{
closed = 1;
nodes = (
"948 571 LINE",
"948 617 LINE",
"636 617 LINE",
"636 831 LINE",
"589 831 LINE",
"589 617 LINE",
"290 617 LINE",
"290 571 LINE",
"551 571 LINE",
"532.41 520.81 OFFCURVE",
"510.3 471.04 OFFCURVE",
"484.65 421.69 CURVE SMOOTH",
"415.74 289.6 OFFCURVE",
"340.85 192.71 OFFCURVE",
"260 131 CURVE",
"274.45 121.01 OFFCURVE",
"286.11 109.35 OFFCURVE",
"295 96 CURVE",
"321.51 118.06 OFFCURVE",
"348.32 144.96 OFFCURVE",
"375.42 176.7 CURVE SMOOTH",
"463.49 280.63 OFFCURVE",
"534.69 408.4 OFFCURVE",
"589 560 CURVE",
"589 168 LINE",
"405 168 LINE",
"405 123 LINE",
"589 123 LINE",
"589 -69 LINE",
"636 -69 LINE",
"636 123 LINE",
"812 123 LINE",
"812 168 LINE",
"636 168 LINE",
"636 561 LINE",
"652.68 512.66 OFFCURVE",
"672.25 464.82 OFFCURVE",
"694.72 417.47 CURVE SMOOTH",
"762.9 274.38 OFFCURVE",
"839.66 167.89 OFFCURVE",
"925 98 CURVE",
"939.96 115.86 OFFCURVE",
"952.29 128.86 OFFCURVE",
"962 137 CURVE",
"930.84 160.11 OFFCURVE",
"899.38 190.18 OFFCURVE",
"867.62 227.22 CURVE SMOOTH",
"786.1 323.04 OFFCURVE",
"722.23 437.63 OFFCURVE",
"676 571 CURVE"
);
}
);
vertWidth = 1000;
width = 1000;
}
);
note = uni4F53;
unicode = 4F53;
},
{
glyphname = uni5973;
layers = (
{
hints = (
{
horizontal = 1;
place = "{534, 50}";
type = Stem;
},
{
place = "{52, 888}";
type = Stem;
}
);
layerId = "A026023B-92C1-4D03-AC7E-471A27A73077";
paths = (
{
closed = 1;
nodes = (
"684 534 LINE",
"649.83 386.6 OFFCURVE",
"593.5 271.93 OFFCURVE",
"515 190 CURVE",
"416.86 234.82 OFFCURVE",
"333.52 270.15 OFFCURVE",
"265 296 CURVE",
"303.27 368.24 OFFCURVE",
"340.6 447.57 OFFCURVE",
"377 534 CURVE"
);
},
{
closed = 1;
nodes = (
"940 534 LINE",
"940 584 LINE",
"398 584 LINE",
"438.47 683.51 OFFCURVE",
"468.47 768.17 OFFCURVE",
"488 838 CURVE",
"437 846 LINE",
"416.29 770.92 OFFCURVE",
"384.96 683.58 OFFCURVE",
"343 584 CURVE",
"64 584 LINE",
"64 534 LINE",
"323 534 LINE",
"276.51 429.48 OFFCURVE",
"233.17 342.48 OFFCURVE",
"193 273 CURVE",
"292.38 236.09 OFFCURVE",
"386.38 196.75 OFFCURVE",
"475 155 CURVE",
"378.55 73.59 OFFCURVE",
"237.55 17.59 OFFCURVE",
"52 -13 CURVE",
"65.41 -29.09 OFFCURVE",
"74.74 -45.09 OFFCURVE",
"80 -61 CURVE",
"273.81 -27.09 OFFCURVE",
"422.81 36.58 OFFCURVE",
"527 130 CURVE",
"666.64 62.16 OFFCURVE",
"779.64 -5.18 OFFCURVE",
"866 -72 CURVE",
"909 -32 LINE",
"818.56 33.67 OFFCURVE",
"703.9 100 OFFCURVE",
"565 167 CURVE",
"645.32 255.12 OFFCURVE",
"702.65 377.45 OFFCURVE",
"737 534 CURVE"
);
}
);
vertWidth = 1000;
width = 1000;
}
);
note = uni5973;
unicode = 5973;
},
{
glyphname = uni7EDF;
layers = (
{
hints = (
{
horizontal = 1;
place = "{-50, 43}";
type = Stem;
},
{
horizontal = 1;
place = "{635, 45}";
type = Stem;
},
{
place = "{521, 48}";
type = Stem;
},
{
place = "{708, 47}";
type = Stem;
},
{
place = "{906, 42}";
type = Stem;
}
);
layerId = "A026023B-92C1-4D03-AC7E-471A27A73077";
paths = (
{
closed = 1;
nodes = (
"712 701 LINE",
"693.45 747.86 OFFCURVE",
"671.79 792.19 OFFCURVE",
"647 834 CURVE",
"603 821 LINE",
"630.51 771.53 OFFCURVE",
"651.51 725.87 OFFCURVE",
"666 684 CURVE"
);
},
{
closed = 1;
nodes = (
"937 358 LINE",
"901.4 417.88 OFFCURVE",
"850.74 489.88 OFFCURVE",
"785 574 CURVE",
"747 555 LINE",
"766.02 530.81 OFFCURVE",
"792.35 494.81 OFFCURVE",
"826 447 CURVE",
"502 419 LINE",
"557.36 485.99 OFFCURVE",
"611.36 557.99 OFFCURVE",
"664 635 CURVE",
"941 635 LINE",
"941 680 LINE",
"414 680 LINE",
"414 635 LINE",
"606 635 LINE",
"602.74 630.31 OFFCURVE",
"599.04 625.03 OFFCURVE",
"594.88 619.15 CURVE SMOOTH",
"525.84 521.62 OFFCURVE",
"478.55 460.57 OFFCURVE",
"453 436 CURVE SMOOTH",
"442.07 424.19 OFFCURVE",
"423.07 414.86 OFFCURVE",
"396 408 CURVE",
"406.25 388.82 OFFCURVE",
"412.58 372.49 OFFCURVE",
"415 359 CURVE",
"416.5 359.55 OFFCURVE",
"418.31 360.17 OFFCURVE",
"420.42 360.87 CURVE SMOOTH",
"441.65 367.55 OFFCURVE",
"585.18 383.25 OFFCURVE",
"851 408 CURVE",
"870 379 OFFCURVE",
"885 354 OFFCURVE",
"896 333 CURVE"
);
},
{
closed = 1;
nodes = (
"147 264 LINE",
"225.98 350.65 OFFCURVE",
"305.98 460.98 OFFCURVE",
"387 595 CURVE",
"342 620 LINE",
"320.16 580.54 OFFCURVE",
"297.16 542.87 OFFCURVE",
"273 507 CURVE",
"120 489 LINE",
"184.54 576.2 OFFCURVE",
"246.21 682.87 OFFCURVE",
"305 809 CURVE",
"255 833 LINE",
"243.48 803.33 OFFCURVE",
"229.43 771.29 OFFCURVE",
"212.86 736.87 CURVE SMOOTH",
"171.72 651.75 OFFCURVE",
"135.1 587.13 OFFCURVE",
"103 543 CURVE SMOOTH",
"76.49 504.44 OFFCURVE",
"56.83 483.11 OFFCURVE",
"44 479 CURVE",
"49.57 467.53 OFFCURVE",
"55.23 450.53 OFFCURVE",
"61 428 CURVE",
"72.93 433.9 OFFCURVE",
"133.6 445.23 OFFCURVE",
"243 462 CURVE",
"195.11 391.26 OFFCURVE",
"155.78 339.59 OFFCURVE",
"125 307 CURVE",
"91.45 266.01 OFFCURVE",
"66.78 243.34 OFFCURVE",
"51 239 CURVE",
"58.07 220.45 OFFCURVE",
"63.4 204.12 OFFCURVE",
"67 190 CURVE",
"68.63 191.05 OFFCURVE",
"70.61 192.23 OFFCURVE",
"72.94 193.53 CURVE SMOOTH",
"89.49 202.2 OFFCURVE",
"187.51 225.69 OFFCURVE",
"367 264 CURVE",
"365.14 270.19 OFFCURVE",
"364.14 284.19 OFFCURVE",
"364 306 CURVE"
);
},
{
closed = 1;
nodes = (
"364 126 LINE",
"214.54 86.74 OFFCURVE",
"109.21 59.74 OFFCURVE",
"48 45 CURVE",
"59 -3 LINE",
"205.65 37.93 OFFCURVE",
"309.31 66.59 OFFCURVE",
"370 83 CURVE"
);
},
{
closed = 1;
nodes = (
"521 354 LINE",
"517.69 237.3 OFFCURVE",
"503.8 153.5 OFFCURVE",
"479.35 102.61 CURVE SMOOTH",
"450.63 43.8 OFFCURVE",
"396.51 0.6 OFFCURVE",
"317 -27 CURVE",
"329.83 -36.75 OFFCURVE",
"340.17 -49.09 OFFCURVE",
"348 -64 CURVE",
"429.58 -33.19 OFFCURVE",
"486.69 13.63 OFFCURVE",
"519.35 76.45 CURVE SMOOTH",
"548.02 133.02 OFFCURVE",
"564.57 225.54 OFFCURVE",
"569 354 CURVE"
);
},
{
closed = 1;
nodes = (
"785 -7 LINE SMOOTH",
"777.79 -6.96 OFFCURVE",
"771.96 -6.46 OFFCURVE",
"767.5 -5.51 CURVE SMOOTH",
"759.17 -3.33 OFFCURVE",
"755.01 5.17 OFFCURVE",
"755.01 20 CURVE SMOOTH",
"755.01 356 LINE",
"708.01 356 LINE",
"708.01 20 LINE SMOOTH",
"708.1 0.16 OFFCURVE",
"710.56 -15.02 OFFCURVE",
"715.4 -25.55 CURVE SMOOTH",
"723.56 -41.85 OFFCURVE",
"745.1 -50 OFFCURVE",
"780.01 -50 CURVE SMOOTH",
"879.01 -50 LINE SMOOTH",
"898.03 -49.81 OFFCURVE",
"912.46 -44.65 OFFCURVE",
"922.29 -34.51 CURVE SMOOTH",
"936.97 -17.9 OFFCURVE",
"945.54 28.94 OFFCURVE",
"948.01 106 CURVE",
"930.89 110.13 OFFCURVE",
"916.89 116.46 OFFCURVE",
"906.01 125 CURVE",
"904.49 68.02 OFFCURVE",
"901.84 31.49 OFFCURVE",
"898.05 15.41 CURVE SMOOTH",
"894.31 0.47 OFFCURVE",
"886.3 -7 OFFCURVE",
"874.01 -7 CURVE SMOOTH"
);
}
);
vertWidth = 1000;
width = 1000;
}
);
note = uni7EDF;
unicode = 7EDF;
},
{
glyphname = u16FE1;
layers = (
{
hints = (
{
horizontal = 1;
place = "{246, 88}";
type = Stem;
},
{
horizontal = 1;
place = "{658, 88}";
type = Stem;
},
{
place = "{126, 81}";
type = Stem;
},
{
place = "{312, 81}";
type = Stem;
},
{
place = "{497.5, 56.5}";
type = Stem;
},
{
place = "{570, 55}";
type = Stem;
}
);
layerId = "A026023B-92C1-4D03-AC7E-471A27A73077";
paths = (
{
closed = 1;
nodes = (
"546.62 718.16 OFFCURVE",
"555.96 853.16 OFFCURVE",
"554 1000 CURVE",
"498 999 LINE",
"498.33 968.64 OFFCURVE",
"498.17 938.27 OFFCURVE",
"497.5 907.88 CURVE SMOOTH",
"491.72 652.6 OFFCURVE",
"454.22 458.31 OFFCURVE",
"385 325 CURVE",
"218 668 LINE",
"165 644 LINE",
"361 246 LINE",
"405 243 LINE",
"450.64 317.07 OFFCURVE",
"485.98 409.4 OFFCURVE",
"511 520 CURVE",
"549.9 460.78 OFFCURVE",
"569.57 397.45 OFFCURVE",
"570 330 CURVE SMOOTH",
"569.92 298.84 OFFCURVE",
"565.98 267.17 OFFCURVE",
"558.2 234.99 CURVE SMOOTH",
"537.15 149.82 OFFCURVE",
"478.08 43.82 OFFCURVE",
"381 -83 CURVE",
"425 -120 LINE",
"429.24 -114.81 OFFCURVE",
"433.69 -109.32 OFFCURVE",
"438.33 -103.51 CURVE SMOOTH",
"562.78 52.49 OFFCURVE",
"625 197.33 OFFCURVE",
"625 331 CURVE SMOOTH",
"624.75 421.94 OFFCURVE",
"591.75 509.94 OFFCURVE",
"526 595 CURVE"
);
},
{
closed = 1;
nodes = (
"355.4 658.06 OFFCURVE",
"358.99 658.44 OFFCURVE",
"362.77 659.12 CURVE SMOOTH",
"382.92 663.56 OFFCURVE",
"393 677.18 OFFCURVE",
"393 700 CURVE SMOOTH",
"392.96 703.03 OFFCURVE",
"392.72 706.31 OFFCURVE",
"392.29 709.84 CURVE SMOOTH",
"388.67 733.95 OFFCURVE",
"375.24 746 OFFCURVE",
"352 746 CURVE SMOOTH",
"347.93 745.9 OFFCURVE",
"343.69 745.2 OFFCURVE",
"339.27 743.9 CURVE SMOOTH",
"321.09 737.6 OFFCURVE",
"312 722.96 OFFCURVE",
"312 700 CURVE SMOOTH",
"312.1 695.5 OFFCURVE",
"312.85 690.8 OFFCURVE",
"314.23 685.91 CURVE SMOOTH",
"320.36 667.3 OFFCURVE",
"332.94 658 OFFCURVE",
"352 658 CURVE SMOOTH"
);
},
{
closed = 1;
nodes = (
"162.24 333.91 OFFCURVE",
"158.28 333.33 OFFCURVE",
"154.12 332.27 CURVE SMOOTH",
"135.38 326.57 OFFCURVE",
"126 312.48 OFFCURVE",
"126 290 CURVE SMOOTH",
"126.1 284.98 OFFCURVE",
"126.94 279.79 OFFCURVE",
"128.51 274.44 CURVE SMOOTH",
"134.87 255.48 OFFCURVE",
"147.37 246 OFFCURVE",
"166 246 CURVE SMOOTH",
"170.38 246.09 OFFCURVE",
"174.86 246.75 OFFCURVE",
"179.43 247.97 CURVE SMOOTH",
"197.81 253.76 OFFCURVE",
"207 267.77 OFFCURVE",
"207 290 CURVE",
"204.43 314.74 OFFCURVE",
"190.77 329.41 OFFCURVE",
"166 334 CURVE"
);
}
);
vertWidth = 1000;
width = 769;
}
);
note = u16FE1;
unicode = 16FE1;
},
{
glyphname = u1B170;
layers = (
{
hints = (
{
place = "{511, 57}";
type = Stem;
}
);
layerId = "A026023B-92C1-4D03-AC7E-471A27A73077";
paths = (
{
closed = 1;
nodes = (
"148 -120 LINE",
"243.07 -22.85 OFFCURVE",
"321.42 84.39 OFFCURVE",
"383.06 201.71 CURVE SMOOTH",
"493.41 412.72 OFFCURVE",
"555.06 678.15 OFFCURVE",
"568 998 CURVE",
"511 1000 LINE",
"502.2 805.06 OFFCURVE",
"477.68 637.34 OFFCURVE",
"437.45 496.84 CURVE SMOOTH",
"376.17 283.82 OFFCURVE",
"265.36 93.54 OFFCURVE",
"105 -74 CURVE"
);
}
);
vertWidth = 1000;
width = 769;
}
);
note = u1B170;
unicode = 1B170;
},
{
glyphname = u1B171;
layers = (
{
hints = (
{
place = "{592, 55}";
type = Stem;
}
);
layerId = "A026023B-92C1-4D03-AC7E-471A27A73077";
paths = (
{
closed = 1;
nodes = (
"231 243 LINE",
"282.87 286.29 OFFCURVE",
"330.02 333.03 OFFCURVE",
"372.45 383.23 CURVE SMOOTH",
"499.93 534.83 OFFCURVE",
"591.44 736.75 OFFCURVE",
"647 989 CURVE",
"592 1000 LINE",
"564.94 880.9 OFFCURVE",
"532.05 777.11 OFFCURVE",
"493.31 688.61 CURVE SMOOTH",
"425.47 534.26 OFFCURVE",
"325.37 401.72 OFFCURVE",
"193 291 CURVE"
);
},
{
closed = 1;
nodes = (
"152 -120 LINE",
"179.81 -102.33 OFFCURVE",
"208.31 -82.22 OFFCURVE",
"237.51 -59.68 CURVE SMOOTH",
"354.37 30.92 OFFCURVE",
"455.54 137.15 OFFCURVE",
"541 259 CURVE",
"492 293 LINE",
"488.15 287.62 OFFCURVE",
"484.05 281.96 OFFCURVE",
"479.71 276.02 CURVE SMOOTH",
"377.08 135.79 OFFCURVE",
"257.84 19.79 OFFCURVE",
"122 -72 CURVE"
);
}
);
vertWidth = 1000;
width = 769;
}
);
note = u1B171;
unicode = 1B171;
},
{
glyphname = u1B172;
layers = (
{
hints = (
{
place = "{390, 56}";
type = Stem;
},
{
place = "{593, 55}";
type = Stem;
}
);
layerId = "A026023B-92C1-4D03-AC7E-471A27A73077";
paths = (
{
closed = 1;
nodes = (
"593 1000 LINE",
"578.07 788.11 OFFCURVE",
"517.4 616.45 OFFCURVE",
"411 485 CURVE",
"387.08 572.11 OFFCURVE",
"348.75 671.78 OFFCURVE",
"296 784 CURVE",
"244 758 LINE",
"303.24 629.55 OFFCURVE",
"343.91 521.88 OFFCURVE",
"366 435 CURVE",
"303.42 371.72 OFFCURVE",
"221.42 311.05 OFFCURVE",
"120 253 CURVE",
"147 203 LINE",
"239.53 251.43 OFFCURVE",
"317.2 305.43 OFFCURVE",
"380 365 CURVE",
"386.54 329.16 OFFCURVE",
"389.87 292.49 OFFCURVE",
"390 255 CURVE SMOOTH",
"389.77 134.98 OFFCURVE",
"348.44 22.98 OFFCURVE",
"266 -81 CURVE",
"312 -120 LINE",
"400.83 -10.95 OFFCURVE",
"445.49 112.72 OFFCURVE",
"446 251 CURVE SMOOTH",
"445.93 303.36 OFFCURVE",
"439.93 357.69 OFFCURVE",
"428 414 CURVE",
"556.68 556.9 OFFCURVE",
"630.01 750.9 OFFCURVE",
"648 996 CURVE"
);
}
);
vertWidth = 1000;
width = 769;
}
);
note = u1B172;
unicode = 1B172;
},
{
glyphname = u1B173;
layers = (
{
hints = (
{
place = "{459, 58}";
type = Stem;
}
);
layerId = "A026023B-92C1-4D03-AC7E-471A27A73077";
paths = (
{
closed = 1;
nodes = (
"653 -51 LINE",
"584.78 114.79 OFFCURVE",
"508.78 257.46 OFFCURVE",
"425 377 CURVE",
"476.63 544.36 OFFCURVE",
"507.3 751.36 OFFCURVE",
"517 998 CURVE",
"459 1000 LINE",
"450.38 761.62 OFFCURVE",
"420.87 560.28 OFFCURVE",
"370.46 395.98 CURVE SMOOTH",
"318.84 228.49 OFFCURVE",
"233.69 69.16 OFFCURVE",
"115 -82 CURVE",
"159 -120 LINE",
"269.11 21.55 OFFCURVE",
"350.44 165.55 OFFCURVE",
"403 312 CURVE",
"470.43 212.52 OFFCURVE",
"537.09 84.52 OFFCURVE",
"603 -72 CURVE"
);
}
);
vertWidth = 1000;
width = 769;
}
);
note = u1B173;
unicode = 1B173;
},
{
glyphname = u1B174;
layers = (
{
hints = (
{
place = "{245, 55}";
type = Stem;
},
{
place = "{455, 53}";
type = Stem;
}
);
layerId = "A026023B-92C1-4D03-AC7E-471A27A73077";
paths = (
{
closed = 1;
nodes = (
"455.18 420.26 OFFCURVE",
"498.85 258.26 OFFCURVE",
"586 94 CURVE",
"635 120 LINE",
"550.72 281.3 OFFCURVE",
"508.39 434.64 OFFCURVE",
"508 580 CURVE SMOOTH",
"508.19 695.14 OFFCURVE",
"541.86 828.14 OFFCURVE",
"609 979 CURVE",
"559 1000 LINE",
"489.99 850.53 OFFCURVE",
"455.32 710.53 OFFCURVE",
"455 580 CURVE SMOOTH"
);
},
{
closed = 1;
nodes = (
"191 -120 LINE",
"194.75 -112.84 OFFCURVE",
"198.58 -105.38 OFFCURVE",
"202.47 -97.6 CURVE SMOOTH",
"267.49 32.88 OFFCURVE",
"300 170.75 OFFCURVE",
"300 316 CURVE SMOOTH",
"299.85 474.22 OFFCURVE",
"261.18 629.89 OFFCURVE",
"184 783 CURVE",
"132 757 LINE",
"206.97 614.2 OFFCURVE",
"244.64 467.2 OFFCURVE",
"245 316 CURVE SMOOTH",
"244.86 174.25 OFFCURVE",
"209.53 38.25 OFFCURVE",
"139 -92 CURVE"
);
}
);
vertWidth = 1000;
width = 769;
}
);
note = u1B174;
unicode = 1B174;
},
{
glyphname = u1B175;
layers = (
{
hints = (
{
place = "{563.71, 59.29}";
type = Stem;
}
);
layerId = "A026023B-92C1-4D03-AC7E-471A27A73077";
paths = (
{
closed = 1;
nodes = (
"644 -14 LINE",
"590.25 108.05 OFFCURVE",
"533.25 218.38 OFFCURVE",
"473 317 CURVE",
"480.22 333.1 OFFCURVE",
"487.3 349.68 OFFCURVE",
"494.22 366.76 CURVE SMOOTH",
"559.98 529.67 OFFCURVE",
"602.91 739.42 OFFCURVE",
"623 996 CURVE",
"566 1000 LINE",
"565.29 990.55 OFFCURVE",
"564.53 980.87 OFFCURVE",
"563.71 970.98 CURVE SMOOTH",
"544.03 732.41 OFFCURVE",
"500.79 534.75 OFFCURVE",
"434 378 CURVE",
"368.22 477.46 OFFCURVE",
"288.22 576.46 OFFCURVE",
"194 675 CURVE",
"155 636 LINE",
"250.08 534.87 OFFCURVE",
"333.42 427.87 OFFCURVE",
"405 315 CURVE",
"344.73 191.87 OFFCURVE",
"256.06 60.54 OFFCURVE",
"139 -79 CURVE",
"182 -120 LINE",
"292.13 6.97 OFFCURVE",
"379.13 131.64 OFFCURVE",
"443 254 CURVE",
"494.36 166.31 OFFCURVE",
"544.69 68.31 OFFCURVE",
"594 -40 CURVE"
);
}
);
vertWidth = 1000;
width = 769;
}
);
note = u1B175;
unicode = 1B175;
},
{
glyphname = u1B176;
layers = (
{
hints = (
{
horizontal = 1;
place = "{389, 98}";
type = Stem;
},
{
place = "{219, 90}";
type = Stem;
},
{
place = "{488, 62}";
type = Stem;
}
);
layerId = "A026023B-92C1-4D03-AC7E-471A27A73077";
paths = (
{
closed = 1;
nodes = (
"242 -120 LINE",
"316.74 -74.69 OFFCURVE",
"379.72 -14.84 OFFCURVE",
"430.94 59.55 CURVE SMOOTH",
"510.31 175.93 OFFCURVE",
"550 307.41 OFFCURVE",
"550 454 CURVE SMOOTH",
"549.87 541.91 OFFCURVE",
"534.43 625.08 OFFCURVE",
"503.68 703.51 CURVE SMOOTH",
"450.61 837.66 OFFCURVE",
"362.05 936.49 OFFCURVE",
"238 1000 CURVE",
"208 948 LINE",
"266.38 915.86 OFFCURVE",
"316.79 874.75 OFFCURVE",
"359.21 824.67 CURVE SMOOTH",
"445.07 722.28 OFFCURVE",
"488 597.72 OFFCURVE",
"488 451 CURVE SMOOTH",
"487.91 393.59 OFFCURVE",
"480.35 337.31 OFFCURVE",
"465.31 282.16 CURVE SMOOTH",
"425.18 136.75 OFFCURVE",
"340.41 19.03 OFFCURVE",
"211 -71 CURVE"
);
},
{
closed = 1;
nodes = (
"269.36 389.12 OFFCURVE",
"274.8 390.12 OFFCURVE",
"280.32 392.02 CURVE SMOOTH",
"299.44 399.52 OFFCURVE",
"309 414.84 OFFCURVE",
"309 438 CURVE SMOOTH",
"308.91 443.44 OFFCURVE",
"308.15 448.95 OFFCURVE",
"306.73 454.54 CURVE SMOOTH",
"300.42 476.18 OFFCURVE",
"286.17 487 OFFCURVE",
"264 487 CURVE SMOOTH",
"258.46 486.88 OFFCURVE",
"252.89 485.83 OFFCURVE",
"247.28 483.87 CURVE SMOOTH",
"228.43 476.31 OFFCURVE",
"219 461.02 OFFCURVE",
"219 438 CURVE SMOOTH",
"219.09 432.72 OFFCURVE",
"219.81 427.33 OFFCURVE",
"221.17 421.85 CURVE SMOOTH",
"227.39 399.95 OFFCURVE",
"241.66 389 OFFCURVE",
"264 389 CURVE SMOOTH"
);
}
);
vertWidth = 1000;
width = 769;
}
);
note = u1B176;
unicode = 1B176;
},
{
glyphname = u1B177;
layers = (
{
hints = (
{
horizontal = 1;
place = "{385, 97}";
type = Stem;
},
{
place = "{218, 58}";
type = Stem;
},
{
place = "{460, 90}";
type = Stem;
}
);
layerId = "A026023B-92C1-4D03-AC7E-471A27A73077";
paths = (
{
closed = 1;
nodes = (
"553 -67 LINE",
"491.17 -28.82 OFFCURVE",
"438.21 19.64 OFFCURVE",
"394.14 78.38 CURVE SMOOTH",
"315.38 184.41 OFFCURVE",
"276 305.61 OFFCURVE",
"276 442 CURVE SMOOTH",
"276.16 526.9 OFFCURVE",
"295.07 608.93 OFFCURVE",
"332.74 688.08 CURVE SMOOTH",
"386.94 800.99 OFFCURVE",
"468.69 888.29 OFFCURVE",
"578 950 CURVE",
"548 1000 LINE",
"467.84 955.5 OFFCURVE",
"399.65 895.33 OFFCURVE",
"343.42 819.5 CURVE SMOOTH",
"259.81 705.77 OFFCURVE",
"218 580.27 OFFCURVE",
"218 443 CURVE SMOOTH",
"218.12 359.08 OFFCURVE",
"232.74 277.84 OFFCURVE",
"261.85 199.26 CURVE SMOOTH",
"313.29 61.6 OFFCURVE",
"399.34 -44.82 OFFCURVE",
"520 -120 CURVE"
);
},
{
closed = 1;
nodes = (
"510.07 385.1 OFFCURVE",
"515.17 385.86 OFFCURVE",
"520.29 387.29 CURVE SMOOTH",
"540.09 393.7 OFFCURVE",
"550 408.94 OFFCURVE",
"550 433 CURVE SMOOTH",
"549.94 437.06 OFFCURVE",
"549.54 441.31 OFFCURVE",
"548.8 445.75 CURVE SMOOTH",
"544.05 469.92 OFFCURVE",
"529.45 482 OFFCURVE",
"505 482 CURVE SMOOTH",
"498.99 482 OFFCURVE",
"493.24 480.76 OFFCURVE",
"487.75 478.29 CURVE SMOOTH",
"469.25 469.95 OFFCURVE",
"460 454.86 OFFCURVE",
"460 433 CURVE SMOOTH",
"460.14 426.67 OFFCURVE",
"461.51 420.19 OFFCURVE",
"464.1 413.54 CURVE SMOOTH",
"472.38 394.51 OFFCURVE",
"486.01 385 OFFCURVE",
"505 385 CURVE SMOOTH"
);
}
);
vertWidth = 1000;
width = 769;
}
);
note = u1B177;
unicode = 1B177;
},
{
glyphname = u1B178;
layers = (
{
hints = (
{
place = "{215, 55}";
type = Stem;
},
{
place = "{395, 58}";
type = Stem;
},
{
place = "{509, 52}";
type = Stem;
}
);
layerId = "A026023B-92C1-4D03-AC7E-471A27A73077";
paths = (
{
closed = 1;
nodes = (
"215 -120 LINE",
"232.39 -101.15 OFFCURVE",
"249.06 -81.21 OFFCURVE",
"265.01 -60.19 CURVE SMOOTH",
"390.34 106.13 OFFCURVE",
"453 339.53 OFFCURVE",
"453 640 CURVE SMOOTH",
"452.96 743.78 OFFCURVE",
"445.96 863.78 OFFCURVE",
"432 1000 CURVE",
"375 993 LINE",
"388.26 860.13 OFFCURVE",
"394.93 742.46 OFFCURVE",
"395 640 CURVE SMOOTH",
"394.98 589.86 OFFCURVE",
"393.32 541.8 OFFCURVE",
"390.01 495.83 CURVE SMOOTH",
"371.98 248.54 OFFCURVE",
"299.98 56.92 OFFCURVE",
"174 -79 CURVE"
);
},
{
closed = 1;
nodes = (
"130 53 LINE",
"222.77 148.02 OFFCURVE",
"269.44 269.35 OFFCURVE",
"270 417 CURVE SMOOTH",
"269.9 486.51 OFFCURVE",
"259.24 559.51 OFFCURVE",
"238 636 CURVE",
"185 620 LINE",
"204.82 546.7 OFFCURVE",
"214.82 478.36 OFFCURVE",
"215 415 CURVE SMOOTH",
"214.76 288.89 OFFCURVE",
"173.09 181.56 OFFCURVE",
"90 93 CURVE"
);
},
{
closed = 1;
nodes = (
"612 -56 LINE",
"578 26 OFFCURVE",
"561 106 OFFCURVE",
"561 184 CURVE SMOOTH",
"561.18 287.74 OFFCURVE",
"590.51 393.08 OFFCURVE",
"649 500 CURVE",
"601 528 LINE",
"540.02 414.71 OFFCURVE",
"509.36 300.38 OFFCURVE",
"509 185 CURVE SMOOTH",
"509.13 95.89 OFFCURVE",
"527.47 8.23 OFFCURVE",
"564 -78 CURVE"
);
}
);
vertWidth = 1000;
width = 769;
}
);
note = u1B178;
unicode = 1B178;
},
{
glyphname = u1B179;
layers = (
{
hints = (
{
place = "{346, 60}";
type = Stem;
},
{
place = "{468, 56}";
type = Stem;
},
{
place = "{614, 54}";
type = Stem;
}
);
layerId = "A026023B-92C1-4D03-AC7E-471A27A73077";
paths = (
{
closed = 1;
nodes = (
"614 1000 LINE",
"566.43 759.23 OFFCURVE",
"415.43 582.23 OFFCURVE",
"161 469 CURVE",
"182 418 LINE",
"291.94 459.41 OFFCURVE",
"386.28 519.75 OFFCURVE",
"465 599 CURVE",
"466.92 583.34 OFFCURVE",
"467.92 567.67 OFFCURVE",
"468 552 CURVE SMOOTH",
"467.72 469.02 OFFCURVE",
"437.72 399.71 OFFCURVE",
"378 344.06 CURVE SMOOTH",
"326.76 297.05 OFFCURVE",
"233.76 246.03 OFFCURVE",
"99 191 CURVE",
"119 136 LINE",
"226.11 177.42 OFFCURVE",
"308.11 217.42 OFFCURVE",
"365 256 CURVE",
"377.79 122.24 OFFCURVE",
"371.46 0.58 OFFCURVE",
"346 -109 CURVE",
"406 -120 LINE",
"408.06 -110.64 OFFCURVE",
"410.07 -100.55 OFFCURVE",
"412 -89.74 CURVE SMOOTH",
"432.33 25.42 OFFCURVE",
"435 155.33 OFFCURVE",
"420 300 CURVE",
"488.78 364.16 OFFCURVE",
"523.45 447.5 OFFCURVE",
"524 550 CURVE SMOOTH",
"524 582 OFFCURVE",
"521 617 OFFCURVE",
"515 655 CURVE",
"593.02 751.33 OFFCURVE",
"644.02 862.66 OFFCURVE",
"668 989 CURVE"
);
}
);
vertWidth = 1000;
width = 769;
}
);
note = u1B179;
unicode = 1B179;
},
{
glyphname = u1B17A;
layers = (
{
hints = (
{
place = "{400, 56}";
type = Stem;
},
{
place = "{548, 53}";
type = Stem;
}
);
layerId = "A026023B-92C1-4D03-AC7E-471A27A73077";
paths = (
{
closed = 1;
nodes = (
"537.49 706.8 OFFCURVE",
"581.49 840.13 OFFCURVE",
"601 993 CURVE",
"548 1000 LINE",
"531.94 863.64 OFFCURVE",
"492.61 743.31 OFFCURVE",
"430 639 CURVE",
"361.4 715.82 OFFCURVE",
"291.06 783.15 OFFCURVE",
"219 841 CURVE",
"187 802 LINE",
"264.41 735.85 OFFCURVE",
"335.08 665.51 OFFCURVE",
"399 591 CURVE",
"332.5 496.04 OFFCURVE",
"240.5 409.04 OFFCURVE",
"123 330 CURVE",
"152 284 LINE",
"271.23 357.72 OFFCURVE",
"366.57 445.06 OFFCURVE",
"438 546 CURVE",
"501.75 467.76 OFFCURVE",
"556.75 388.43 OFFCURVE",
"603 308 CURVE",
"652 336 LINE",
"596.5 428.72 OFFCURVE",
"535.5 514.38 OFFCURVE",
"469 593 CURVE"
);
},
{
closed = 1;
nodes = (
"400 393 LINE",
"401.26 379.21 OFFCURVE",
"402.41 365.35 OFFCURVE",
"403.47 351.44 CURVE SMOOTH",
"415.41 193.05 OFFCURVE",
"407.25 39.57 OFFCURVE",
"379 -109 CURVE",
"435 -120 LINE",
"466.05 35.79 OFFCURVE",
"473.05 208.46 OFFCURVE",
"456 398 CURVE"
);
}
);
vertWidth = 1000;
width = 769;
}
);
note = u1B17A;
unicode = 1B17A;
},
{
glyphname = u1B17B;
layers = (
{
hints = (
{
horizontal = 1;
place = "{-1, 21}";
target = up;
type = BottomGhost;
},
{
place = "{519, 55}";
type = Stem;
}
);
layerId = "A026023B-92C1-4D03-AC7E-471A27A73077";
paths = (
{
closed = 1;
nodes = (
"410 515 LINE",
"495.59 648.66 OFFCURVE",
"550.26 808.33 OFFCURVE",
"574 994 CURVE",
"519 1000 LINE",
"498.97 837.02 OFFCURVE",
"452.64 695.69 OFFCURVE",
"380 576 CURVE",
"287 767 LINE",
"235 741 LINE",
"343 521 LINE",
"287.53 444.48 OFFCURVE",
"213.19 366.81 OFFCURVE",
"120 288 CURVE",
"155 243 LINE",
"239.89 309.06 OFFCURVE",
"312.22 381.73 OFFCURVE",
"372 461 CURVE",
"429 344 LINE",
"358.05 183.73 OFFCURVE",
"276.39 39.4 OFFCURVE",
"184 -89 CURVE",
"229 -120 LINE",
"315.85 1.18 OFFCURVE",
"393.19 133.51 OFFCURVE",
"461 277 CURVE",
"597 -1 LINE",
"649 24 LINE"
);
}
);
vertWidth = 1000;
width = 769;
}
);
note = u1B17B;
unicode = 1B17B;
},
{
glyphname = u1B17C;
layers = (
{
hints = (
{
place = "{441, 53}";
type = Stem;
},
{
place = "{486, 51}";
type = Stem;
}
);
layerId = "A026023B-92C1-4D03-AC7E-471A27A73077";
paths = (
{
closed = 1;
nodes = (
"646 -14 LINE",
"599.51 61.3 OFFCURVE",
"536.84 137.97 OFFCURVE",
"458 216 CURVE",
"481.76 275.75 OFFCURVE",
"493.76 341.41 OFFCURVE",
"494 413 CURVE SMOOTH",
"493.91 498.03 OFFCURVE",
"478.91 585.69 OFFCURVE",
"449 676 CURVE",
"491.28 775.54 OFFCURVE",
"520.61 881.54 OFFCURVE",
"537 994 CURVE",
"486 1000 LINE",
"476.06 939.33 OFFCURVE",
"463.35 882.38 OFFCURVE",
"447.87 829.15 CURVE SMOOTH",
"399.36 663.27 OFFCURVE",
"312.07 511.88 OFFCURVE",
"186 375 CURVE",
"186 372 LINE",
"259.46 322.27 OFFCURVE",
"328.12 266.61 OFFCURVE",
"392 205 CURVE",
"344.27 114.85 OFFCURVE",
"253.6 21.85 OFFCURVE",
"120 -74 CURVE",
"150 -120 LINE",
"151.09 -119.24 OFFCURVE",
"152.51 -118.25 OFFCURVE",
"154.26 -117.02 CURVE SMOOTH",
"291.15 -21.19 OFFCURVE",
"384.06 72.48 OFFCURVE",
"433 164 CURVE",
"499.83 95.05 OFFCURVE",
"555.49 25.05 OFFCURVE",
"600 -46 CURVE"
);
},
{
closed = 1;
nodes = (
"322.32 448.15 OFFCURVE",
"372.32 523.15 OFFCURVE",
"415 605 CURVE",
"432.13 547.25 OFFCURVE",
"440.8 481.59 OFFCURVE",
"441 408 CURVE SMOOTH",
"440.89 353.68 OFFCURVE",
"432.22 303.68 OFFCURVE",
"415 258 CURVE",
"362.53 306.2 OFFCURVE",
"312.53 346.87 OFFCURVE",
"265 380 CURVE"
);
}
);
vertWidth = 1000;
width = 769;
}
);
note = u1B17C;
unicode = 1B17C;
},
{
glyphname = u1B17D;
layers = (
{
hints = (
{
horizontal = 1;
place = "{151, 89}";
type = Stem;
},
{
place = "{548, 54}";
type = Stem;
},
{
place = "{548, 82}";
type = Stem;
}
);
layerId = "A026023B-92C1-4D03-AC7E-471A27A73077";
paths = (
{
closed = 1;
nodes = (
"548 1000 LINE",
"527.76 907.42 OFFCURVE",
"503.07 823.91 OFFCURVE",
"473.94 749.45 CURVE SMOOTH",
"404.36 572.38 OFFCURVE",
"296.38 424.56 OFFCURVE",
"150 306 CURVE",
"183 260 LINE",
"267.55 325.06 OFFCURVE",
"339.22 399.4 OFFCURVE",
"398 483 CURVE",
"398 274.05 OFFCURVE",
"364 79.71 OFFCURVE",
"296 -100 CURVE",
"349 -120 LINE",
"362.93 -81.73 OFFCURVE",
"375.7 -41.31 OFFCURVE",
"387.31 1.27 CURVE SMOOTH",
"438.22 189.04 OFFCURVE",
"458.45 375.61 OFFCURVE",
"448.01 561 CURVE",
"516.25 679.73 OFFCURVE",
"567.58 823.06 OFFCURVE",
"602.01 991 CURVE"
);
},
{
closed = 1;
nodes = (
"584.08 239.86 OFFCURVE",
"578.96 238.74 OFFCURVE",
"573.65 236.63 CURVE SMOOTH",
"556.56 228.88 OFFCURVE",
"548.01 215 OFFCURVE",
"548.01 195 CURVE SMOOTH",
"548.16 189.65 OFFCURVE",
"549.47 183.95 OFFCURVE",
"551.93 177.88 CURVE SMOOTH",
"560.06 159.96 OFFCURVE",
"572.42 151 OFFCURVE",
"589.01 151 CURVE SMOOTH",
"594.5 151.13 OFFCURVE",
"599.96 152.22 OFFCURVE",
"605.39 154.27 CURVE SMOOTH",
"621.8 161.42 OFFCURVE",
"630.01 174.99 OFFCURVE",
"630.01 195 CURVE SMOOTH",
"629.96 198.53 OFFCURVE",
"629.62 202.28 OFFCURVE",
"629 206.25 CURVE SMOOTH",
"624.78 228.75 OFFCURVE",
"611.45 240 OFFCURVE",
"589.01 240 CURVE SMOOTH"
);
}
);
vertWidth = 1000;
width = 769;
}
);
note = u1B17D;
unicode = 1B17D;
},
{
glyphname = u1B17E;
layers = (
{
hints = (
{
place = "{281, 56}";
type = Stem;
},
{
place = "{574, 56}";
type = Stem;
},
{
place = "{519, 55}";
type = Stem;
}
);
layerId = "A026023B-92C1-4D03-AC7E-471A27A73077";
paths = (
{
closed = 1;
nodes = (
"508.51 562.31 OFFCURVE",
"557.51 417.65 OFFCURVE",
"574 248 CURVE",
"630 253 LINE",
"612.86 432.71 OFFCURVE",
"556.86 593.04 OFFCURVE",
"462 734 CURVE",
"509.83 809.91 OFFCURVE",
"547.16 893.25 OFFCURVE",
"574 984 CURVE",
"519 1000 LINE",
"459.91 800.67 OFFCURVE",
"332.25 625 OFFCURVE",
"136 473 CURVE",
"136 470 LINE",
"232.09 376.92 OFFCURVE",
"280.42 277.58 OFFCURVE",
"281 172 CURVE SMOOTH",
"280.72 82.13 OFFCURVE",
"244.06 -1.54 OFFCURVE",
"171 -79 CURVE",
"213 -120 LINE",
"295.06 -37.51 OFFCURVE",
"336.39 59.16 OFFCURVE",
"337 170 CURVE SMOOTH",
"336.69 275.83 OFFCURVE",
"297.35 373.49 OFFCURVE",
"219 463 CURVE",
"302.44 532.5 OFFCURVE",
"371.77 605.5 OFFCURVE",
"427 682 CURVE"
);
}
);
vertWidth = 1000;
width = 769;
}
);
note = u1B17E;
unicode = 1B17E;
},
{
glyphname = u1B17F;
layers = (
{
hints = (
{
place = "{113, 87}";
type = Stem;
},
{
place = "{391, 60}";
type = Stem;
},
{
place = "{577, 87}";
type = Stem;
},
{
horizontal = 1;
place = "{268, 95}";
type = Stem;
},
{
horizontal = 1;
place = "{230, 95}";
type = Stem;
}
);
layerId = "A026023B-92C1-4D03-AC7E-471A27A73077";
paths = (
{
closed = 1;
nodes = (
"194 -120 LINE",
"303.54 -5.89 OFFCURVE",
"378.83 136.83 OFFCURVE",
"419.86 308.15 CURVE SMOOTH",
"460 477.45 OFFCURVE",
"470.38 708.07 OFFCURVE",
"451 1000 CURVE",
"391 994 LINE",
"391.57 983.68 OFFCURVE",
"392.12 973.3 OFFCURVE",
"392.66 962.84 CURVE SMOOTH",
"405.48 714.11 OFFCURVE",
"399.5 521.94 OFFCURVE",
"374.7 386.32 CURVE SMOOTH",
"341.55 204.99 OFFCURVE",
"266.31 50.55 OFFCURVE",
"149 -77 CURVE"
);
},
{
closed = 1;
nodes = (
"577.13 309.07 OFFCURVE",
"578.29 302.99 OFFCURVE",
"580.48 296.75 CURVE SMOOTH",
"588.06 277.58 OFFCURVE",
"601.23 268 OFFCURVE",
"620 268 CURVE SMOOTH",
"625.38 268.12 OFFCURVE",
"630.78 269.09 OFFCURVE",
"636.2 270.91 CURVE SMOOTH",
"654.73 278.08 OFFCURVE",
"664 292.78 OFFCURVE",
"664 315 CURVE SMOOTH",
"663.93 319.51 OFFCURVE",
"663.37 324.21 OFFCURVE",
"662.34 329.08 CURVE SMOOTH",
"656.79 351.69 OFFCURVE",
"642.68 363 OFFCURVE",
"620 363 CURVE SMOOTH",
"615.43 362.89 OFFCURVE",
"610.69 362.06 OFFCURVE",
"605.78 360.5 CURVE SMOOTH",
"586.59 353.47 OFFCURVE",
"577 338.3 OFFCURVE",
"577 315 CURVE SMOOTH"
);
},
{
closed = 1;
nodes = (
"161.38 230.12 OFFCURVE",
"166.78 231.09 OFFCURVE",
"172.2 232.91 CURVE SMOOTH",
"190.73 240.08 OFFCURVE",
"200 254.78 OFFCURVE",
"200 277 CURVE SMOOTH",
"199.93 281.51 OFFCURVE",
"199.37 286.21 OFFCURVE",
"198.34 291.08 CURVE SMOOTH",
"192.79 313.69 OFFCURVE",
"178.68 325 OFFCURVE",
"156 325 CURVE SMOOTH",
"150.96 324.87 OFFCURVE",
"145.78 323.83 OFFCURVE",
"140.46 321.87 CURVE SMOOTH",
"122.16 314.16 OFFCURVE",
"113 299.2 OFFCURVE",
"113 277 CURVE SMOOTH",
"113.13 271.07 OFFCURVE",
"114.29 264.99 OFFCURVE",
"116.48 258.75 CURVE SMOOTH",
"124.06 239.58 OFFCURVE",
"137.23 230 OFFCURVE",
"156 230 CURVE SMOOTH"
);
}
);
vertWidth = 1000;
width = 769;
}
);
note = u1B17F;
unicode = 1B17F;
},
{
glyphname = u1B180;
layers = (
{
hints = (
{
place = "{499, 57}";
type = Stem;
}
);
layerId = "A026023B-92C1-4D03-AC7E-471A27A73077";
paths = (
{
closed = 1;
nodes = (
"597 277 LINE",
"552.73 219.4 OFFCURVE",
"507.73 165.73 OFFCURVE",
"462 116 CURVE",
"353 339 LINE",
"383.91 378.88 OFFCURVE",
"411.22 419.13 OFFCURVE",
"434.96 459.76 CURVE SMOOTH",
"525.39 615.41 OFFCURVE",
"565.74 795.49 OFFCURVE",
"556 1000 CURVE",
"499 998 LINE",
"502.7 936.22 OFFCURVE",
"501.77 877.75 OFFCURVE",
"496.21 822.61 CURVE SMOOTH",
"480.65 671.46 OFFCURVE",
"423.25 529.59 OFFCURVE",
"324 397 CURVE",
"179 695 LINE",
"127 671 LINE",
"285 347 LINE",
"239.45 291.85 OFFCURVE",
"184.45 233.52 OFFCURVE",
"120 172 CURVE",
"158 130 LINE",
"213.61 181.84 OFFCURVE",
"265.28 235.18 OFFCURVE",
"313 290 CURVE",
"420 72 LINE",
"364.18 16.24 OFFCURVE",
"310.18 -32.76 OFFCURVE",
"258 -75 CURVE",
"293 -120 LINE",
"422.99 -13.87 OFFCURVE",
"539.32 106.46 OFFCURVE",
"642 241 CURVE"
);
}
);
vertWidth = 1000;
width = 769;
}
);
note = u1B180;
unicode = 1B180;
},
{
glyphname = u1B181;
layers = (
{
hints = (
{
place = "{466, 58}";
type = Stem;
},
{
place = "{588, 55}";
type = Stem;
}
);
layerId = "A026023B-92C1-4D03-AC7E-471A27A73077";
paths = (
{
closed = 1;
nodes = (
"664 -93 LINE",
"612.21 15.3 OFFCURVE",
"545.55 118.64 OFFCURVE",
"464 217 CURVE",
"503.64 283.76 OFFCURVE",
"523.64 356.76 OFFCURVE",
"524 436 CURVE SMOOTH",
"523.84 510.66 OFFCURVE",
"507.5 578.33 OFFCURVE",
"475 639 CURVE",
"544.62 736.87 OFFCURVE",
"600.62 851.53 OFFCURVE",
"643 983 CURVE",
"588 1000 LINE",
"554.01 889.13 OFFCURVE",
"504.67 786.46 OFFCURVE",
"440 692 CURVE",
"378.11 769.44 OFFCURVE",
"284.45 829.44 OFFCURVE",
"159 872 CURVE",
"140 820 LINE",
"259.77 777.51 OFFCURVE",
"347.44 717.84 OFFCURVE",
"403 641 CURVE",
"339.53 559.29 OFFCURVE",
"265.86 485.62 OFFCURVE",
"182 420 CURVE",
"182 415 LINE",
"257.45 353.95 OFFCURVE",
"326.79 287.28 OFFCURVE",
"390 215 CURVE",
"325.91 128.93 OFFCURVE",
"230.58 64.27 OFFCURVE",
"104 21 CURVE",
"123 -35 LINE",
"256.41 9.06 OFFCURVE",
"358.75 76.39 OFFCURVE",
"430 167 CURVE",
"498.71 82.15 OFFCURVE",
"560.04 -13.52 OFFCURVE",
"614 -120 CURVE"
);
},
{
closed = 1;
nodes = (
"329.91 468.17 OFFCURVE",
"385.91 525.17 OFFCURVE",
"435 585 CURVE",
"455.4 538.75 OFFCURVE",
"465.73 489.09 OFFCURVE",
"466 436 CURVE SMOOTH",
"465.82 376.98 OFFCURVE",
"451.16 319.98 OFFCURVE",
"422 265 CURVE",
"373.08 319.8 OFFCURVE",
"321.41 369.47 OFFCURVE",
"267 414 CURVE"
);
}
);
vertWidth = 1000;
width = 769;
}
);
note = u1B181;
unicode = 1B181;
},
{
glyphname = u1B182;
layers = (
{
hints = (
{
place = "{527, 53}";
type = Stem;
}
);
layerId = "A026023B-92C1-4D03-AC7E-471A27A73077";
paths = (
{
closed = 1;
nodes = (
"579.85 507.54 OFFCURVE",
"562.52 584.54 OFFCURVE",
"528 667 CURVE",
"577.47 757.57 OFFCURVE",
"617.8 864.91 OFFCURVE",
"649 989 CURVE",
"598 1000 LINE",
"593.29 981.64 OFFCURVE",
"588.26 963.37 OFFCURVE",
"582.93 945.17 CURVE SMOOTH",
"530.66 767.57 OFFCURVE",
"444.68 611.18 OFFCURVE",
"325 476 CURVE",
"168 800 LINE",
"120 776 LINE",
"417 156 LINE",
"352.17 79.56 OFFCURVE",
"254.17 4.23 OFFCURVE",
"123 -70 CURVE",
"148 -120 LINE",
"276.38 -49.57 OFFCURVE",
"375.05 23.76 OFFCURVE",
"444 100 CURVE",
"547 -114 LINE",
"600 -92 LINE",
"483 149 LINE",
"547.21 235.31 OFFCURVE",
"579.55 330.98 OFFCURVE",
"580 436 CURVE SMOOTH"
);
},
{
closed = 1;
nodes = (
"351 421 LINE",
"404.27 480.08 OFFCURVE",
"451.6 542.08 OFFCURVE",
"493 607 CURVE",
"515.39 549.28 OFFCURVE",
"526.72 494.95 OFFCURVE",
"527 444 CURVE SMOOTH",
"526.8 358.45 OFFCURVE",
"502.8 279.45 OFFCURVE",
"455 207 CURVE"
);
}
);
vertWidth = 1000;
width = 769;
}
);
note = u1B182;
unicode = 1B182;
},
{
glyphname = u1B183;
layers = (
{
hints = (
{
place = "{428, 52}";
type = Stem;
}
);
layerId = "A026023B-92C1-4D03-AC7E-471A27A73077";
paths = (
{
closed = 1;
nodes = (
"603 364 LINE",
"552.17 282.95 OFFCURVE",
"503.5 213.29 OFFCURVE",
"457 155 CURVE",
"336 401 LINE",
"339.53 406.6 OFFCURVE",
"343.21 412.55 OFFCURVE",
"347.02 418.86 CURVE SMOOTH",
"441.48 576.07 OFFCURVE",
"485.81 769.78 OFFCURVE",
"480 1000 CURVE",
"428 998 LINE",
"431.15 903.9 OFFCURVE",
"424.89 816.31 OFFCURVE",
"409.23 735.23 CURVE SMOOTH",
"372.61 547.62 OFFCURVE",
"277.54 379.88 OFFCURVE",
"124 232 CURVE",
"160 192 LINE",
"215.01 243.12 OFFCURVE",
"262.34 295.78 OFFCURVE",
"302 350 CURVE",
"419 107 LINE",
"365.56 43.76 OFFCURVE",
"305.56 -18.24 OFFCURVE",
"239 -79 CURVE",
"274 -120 LINE",
"280.21 -114.24 OFFCURVE",
"286.69 -108.18 OFFCURVE",
"293.44 -101.79 CURVE SMOOTH",
"421.99 20.01 OFFCURVE",
"540.51 165.6 OFFCURVE",
"649 335 CURVE"
);
}
);
vertWidth = 1000;
width = 769;
}
);
note = u1B183;
unicode = 1B183;
},
{
glyphname = u1B184;
layers = (
{
hints = (
{
place = "{227, 78}";
type = Stem;
},
{
place = "{469, 54}";
type = Stem;
},
{
place = "{598, 50}";
type = Stem;
}
);
layerId = "A026023B-92C1-4D03-AC7E-471A27A73077";
paths = (
{
closed = 1;
nodes = (
"598 1000 LINE",
"521.75 751.92 OFFCURVE",
"362.42 551.25 OFFCURVE",
"120 398 CURVE",
"147 354 LINE",
"247.08 413.23 OFFCURVE",
"334.74 482.9 OFFCURVE",
"410 563 CURVE",
"449.03 484.57 OFFCURVE",
"468.69 400.23 OFFCURVE",
"469 310 CURVE SMOOTH",
"468.84 257.89 OFFCURVE",
"456.95 207.22 OFFCURVE",
"433.33 158 CURVE SMOOTH",
"386.46 61.7 OFFCURVE",
"303.35 -14.3 OFFCURVE",
"184 -70 CURVE",
"209 -120 LINE",
"282.37 -87.18 OFFCURVE",
"344.82 -44.15 OFFCURVE",
"396.36 9.09 CURVE SMOOTH",
"480.79 97.09 OFFCURVE",
"523 197.06 OFFCURVE",
"523 309 CURVE SMOOTH",
"522.83 409.27 OFFCURVE",
"498.49 509.27 OFFCURVE",
"450 609 CURVE",
"533.93 712.24 OFFCURVE",
"599.93 837.57 OFFCURVE",
"648 985 CURVE"
);
},
{
closed = 1;
nodes = (
"304.92 227.37 OFFCURVE",
"304.34 231.93 OFFCURVE",
"303.27 236.7 CURVE SMOOTH",
"297.98 256.9 OFFCURVE",
"285.56 267 OFFCURVE",
"266 267 CURVE SMOOTH",
"261.65 266.87 OFFCURVE",
"257.09 265.94 OFFCURVE",
"252.32 264.21 CURVE SMOOTH",
"235.44 257.08 OFFCURVE",
"227 243.34 OFFCURVE",
"227 223 CURVE SMOOTH",
"227.14 217.92 OFFCURVE",
"228.29 212.54 OFFCURVE",
"230.43 206.88 CURVE SMOOTH",
"237.84 189.63 OFFCURVE",
"249.69 181 OFFCURVE",
"266 181 CURVE SMOOTH",
"270.77 181.12 OFFCURVE",
"275.61 182.06 OFFCURVE",
"280.53 183.79 CURVE SMOOTH",
"296.85 190.53 OFFCURVE",
"305 203.6 OFFCURVE",
"305 223 CURVE SMOOTH"
);
}
);
vertWidth = 1000;
width = 769;
}
);
note = u1B184;
unicode = 1B184;
},
{
glyphname = u1B185;
layers = (
{
hints = (
{
place = "{381, 54}";
type = Stem;
},
{
place = "{360, 54}";
type = Stem;
},
{
place = "{334, 54}";
type = Stem;
}
);
layerId = "A026023B-92C1-4D03-AC7E-471A27A73077";
paths = (
{
closed = 1;
nodes = (
"413.67 768 OFFCURVE",
"428 873 OFFCURVE",
"435 998 CURVE",
"381 1000 LINE",
"370.85 822.74 OFFCURVE",
"343.81 684.64 OFFCURVE",
"299.9 585.72 CURVE SMOOTH",
"263.83 505.12 OFFCURVE",
"203.2 423.21 OFFCURVE",
"118 340 CURVE",
"154 300 LINE",
"168.83 314.01 OFFCURVE",
"183.01 327.98 OFFCURVE",
"196.55 341.9 CURVE SMOOTH",
"281.38 429.46 OFFCURVE",
"340.86 524.83 OFFCURVE",
"375 628 CURVE",
"453.02 554.09 OFFCURVE",
"532.35 461.75 OFFCURVE",
"613 351 CURVE",
"657 382 LINE",
"656.11 383.26 OFFCURVE",
"654.98 384.85 OFFCURVE",
"653.61 386.77 CURVE SMOOTH",
"583.6 485.03 OFFCURVE",
"496.39 583.78 OFFCURVE",
"392 683 CURVE"
);
},
{
closed = 1;
nodes = (
"360 365 LINE",
"361.1 354.86 OFFCURVE",
"362.13 344.22 OFFCURVE",
"363.07 333.08 CURVE SMOOTH",
"375.93 178.72 OFFCURVE",
"366.24 31.36 OFFCURVE",
"334 -109 CURVE",
"388 -119 LINE",
"423.18 38.85 OFFCURVE",
"431.84 202.19 OFFCURVE",
"414 371 CURVE"
);
}
);
vertWidth = 1000;
width = 769;
}
);
note = u1B185;
unicode = 1B185;
},
{
glyphname = u1B186;
layers = (
{
hints = (
{
place = "{248, 59}";
type = Stem;
},
{
place = "{591.26, 61.74}";
type = Stem;
}
);
layerId = "A026023B-92C1-4D03-AC7E-471A27A73077";
paths = (
{
closed = 1;
nodes = (
"598 1000 LINE",
"596.14 980.52 OFFCURVE",
"593.9 961.03 OFFCURVE",
"591.26 941.54 CURVE SMOOTH",
"559 705.35 OFFCURVE",
"464.25 506.84 OFFCURVE",
"307 346 CURVE",
"307.87 482.24 OFFCURVE",
"282.87 629.57 OFFCURVE",
"232 788 CURVE",
"176 768 LINE",
"226.91 618.83 OFFCURVE",
"250.91 474.16 OFFCURVE",
"248 334 CURVE SMOOTH",
"243.94 194.79 OFFCURVE",
"203.28 53.46 OFFCURVE",
"126 -90 CURVE",
"176 -120 LINE",
"247.08 9.39 OFFCURVE",
"289.08 135.72 OFFCURVE",
"302 259 CURVE",
"362.52 313.98 OFFCURVE",
"417.18 376.32 OFFCURVE",
"466 446 CURVE",
"569 58 LINE",
"624 71 LINE",
"507 512 LINE",
"586.89 651.64 OFFCURVE",
"635.56 813.31 OFFCURVE",
"653 997 CURVE"
);
}
);
vertWidth = 1000;
width = 769;
}
);
note = u1B186;
unicode = 1B186;
},
{
glyphname = u1B187;
layers = (
{
hints = (
{
place = "{396, 56}";
type = Stem;
},
{
place = "{563, 54}";
type = Stem;
}
);
layerId = "A026023B-92C1-4D03-AC7E-471A27A73077";
paths = (
{
closed = 1;
nodes = (
"613 464 LINE",
"559.81 400.96 OFFCURVE",
"502.14 344.3 OFFCURVE",
"440 294 CURVE",
"428.3 363.83 OFFCURVE",
"409.3 434.83 OFFCURVE",
"383 507 CURVE",
"517.65 635.97 OFFCURVE",
"595.65 798.31 OFFCURVE",
"617 994 CURVE",
"563 1000 LINE",
"544.27 827.66 OFFCURVE",
"476.93 682.66 OFFCURVE",
"361 565 CURVE",
"324.52 651.22 OFFCURVE",
"275.85 741.89 OFFCURVE",
"215 837 CURVE",
"167 806 LINE",
"231.62 704.2 OFFCURVE",
"281.62 610.2 OFFCURVE",
"317 524 CURVE",
"263.75 477.54 OFFCURVE",
"198.08 432.87 OFFCURVE",
"120 390 CURVE",
"146 341 LINE",
"216.47 377.31 OFFCURVE",
"280.47 418.97 OFFCURVE",
"338 466 CURVE",
"362.87 396.15 OFFCURVE",
"379.87 325.82 OFFCURVE",
"389 255 CURVE",
"310.14 197.84 OFFCURVE",
"229.81 151.51 OFFCURVE",
"148 116 CURVE",
"170 65 LINE",
"245.74 96.65 OFFCURVE",
"320.74 137.32 OFFCURVE",
"395 187 CURVE",
"395.63 176.52 OFFCURVE",
"395.96 159.85 OFFCURVE",
"396 137 CURVE SMOOTH",
"395.92 56.11 OFFCURVE",
"385.25 -25.22 OFFCURVE",
"364 -107 CURVE",
"419 -120 LINE",
"440.83 -31.37 OFFCURVE",
"451.83 54.97 OFFCURVE",
"452 139 CURVE SMOOTH",
"451.97 171.48 OFFCURVE",
"450.64 200.81 OFFCURVE",
"448 227 CURVE",
"516.49 280.5 OFFCURVE",
"585.49 346.83 OFFCURVE",
"655 426 CURVE"
);
}
);
vertWidth = 1000;
width = 769;
}
);
note = u1B187;
unicode = 1B187;
},
{
glyphname = u1B188;
layers = (
{
hints = (
{
horizontal = 1;
place = "{-21, 98}";
type = Stem;
},
{
place = "{124, 89}";
type = Stem;
}
);
layerId = "A026023B-92C1-4D03-AC7E-471A27A73077";
paths = (
{
closed = 1;
nodes = (
"526 993 LINE",
"535.92 904.39 OFFCURVE",
"543.16 823.26 OFFCURVE",
"547.74 749.64 CURVE SMOOTH",
"566.48 446.25 OFFCURVE",
"539.9 187.71 OFFCURVE",
"468 -26 CURVE",
"249 497 LINE",
"195 475 LINE",
"449 -120 LINE",
"493 -120 LINE",
"544.39 4.41 OFFCURVE",
"578.83 142.91 OFFCURVE",
"596.32 295.51 CURVE SMOOTH",
"616.6 474.44 OFFCURVE",
"613.16 709.27 OFFCURVE",
"586 1000 CURVE"
);
},
{
closed = 1;
nodes = (
"162.85 76.88 OFFCURVE",
"157.59 75.87 OFFCURVE",
"152.22 73.98 CURVE SMOOTH",
"133.41 66.4 OFFCURVE",
"124 51.07 OFFCURVE",
"124 28 CURVE SMOOTH",
"124.11 22.04 OFFCURVE",
"125.14 15.95 OFFCURVE",
"127.09 9.73 CURVE SMOOTH",
"134.31 -10.76 OFFCURVE",
"147.94 -21 OFFCURVE",
"168 -21 CURVE SMOOTH",
"173.53 -20.89 OFFCURVE",
"179.02 -19.96 OFFCURVE",
"184.49 -18.2 CURVE SMOOTH",
"203.49 -11.17 OFFCURVE",
"213 4.23 OFFCURVE",
"213 28 CURVE SMOOTH",
"212.94 32.19 OFFCURVE",
"212.52 36.56 OFFCURVE",
"211.73 41.09 CURVE SMOOTH",
"206.87 65.03 OFFCURVE",
"192.29 77 OFFCURVE",
"168 77 CURVE SMOOTH"
);
}
);
vertWidth = 1000;
width = 769;
}
);
note = u1B188;
unicode = 1B188;
},
{
glyphname = u1B189;
layers = (
{
hints = (
{
place = "{553, 49}";
type = Stem;
}
);
layerId = "A026023B-92C1-4D03-AC7E-471A27A73077";
paths = (
{
closed = 1;
nodes = (
"590 516 LINE",
"542.93 458.49 OFFCURVE",
"487.6 401.49 OFFCURVE",
"424 345 CURVE",
"415.1 404.02 OFFCURVE",
"401.1 466.36 OFFCURVE",
"382 532 CURVE",
"499.2 649.56 OFFCURVE",
"572.54 803.9 OFFCURVE",
"602 995 CURVE",
"553 1000 LINE",
"541.13 930.07 OFFCURVE",
"523.49 865.99 OFFCURVE",
"500.06 807.77 CURVE SMOOTH",
"433.94 644.61 OFFCURVE",
"311.26 514.02 OFFCURVE",
"132 416 CURVE",
"158 369 LINE",
"222.87 403.88 OFFCURVE",
"282.2 443.88 OFFCURVE",
"336 489 CURVE",
"354.02 423.76 OFFCURVE",
"367.02 362.1 OFFCURVE",
"375 304 CURVE",
"297.93 241.86 OFFCURVE",
"212.93 186.19 OFFCURVE",
"120 137 CURVE",
"145 89 LINE",
"225.39 129.77 OFFCURVE",
"303.72 179.43 OFFCURVE",
"380 238 CURVE",
"385.83 126.47 OFFCURVE",
"365.83 14.47 OFFCURVE",
"320 -98 CURVE",
"372 -120 LINE",
"422.88 9.49 OFFCURVE",
"442.88 142.49 OFFCURVE",
"432 279 CURVE",
"505.4 341.14 OFFCURVE",
"572.07 408.8 OFFCURVE",
"632 482 CURVE"
);
}
);
vertWidth = 1000;
width = 769;
}
);
note = u1B189;
unicode = 1B189;
},
{
glyphname = u1B18A;
layers = (
{
hints = (
{
place = "{608, 50}";
type = Stem;
}
);
layerId = "A026023B-92C1-4D03-AC7E-471A27A73077";
paths = (
{
closed = 1;
nodes = (
"155 364 LINE",
"219.31 398.36 OFFCURVE",
"277.7 435.9 OFFCURVE",
"330.15 476.64 CURVE SMOOTH",
"495.29 605.45 OFFCURVE",
"604.57 775.91 OFFCURVE",
"658 988 CURVE",
"608 1000 LINE",
"591.43 935.76 OFFCURVE",
"569.58 875.79 OFFCURVE",
"542.47 820.07 CURVE SMOOTH",
"461.65 654.98 OFFCURVE",
"324.16 518.63 OFFCURVE",
"130 411 CURVE"
);
},
{
closed = 1;
nodes = (
"192 142 LINE",
"350.33 228.03 OFFCURVE",
"483.66 327.03 OFFCURVE",
"592 439 CURVE",
"554 478 LINE",
"451.74 374.91 OFFCURVE",
"322.41 279.58 OFFCURVE",
"166 192 CURVE"
);
},
{
closed = 1;
nodes = (
"149 -120 LINE",
"330.1 -28.8 OFFCURVE",
"483.77 72.53 OFFCURVE",
"610 184 CURVE",
"573 227 LINE",
"448.5 117.97 OFFCURVE",
"298.83 19.64 OFFCURVE",
"124 -68 CURVE"
);
}
);
vertWidth = 1000;
width = 769;
}
);
note = u1B18A;
unicode = 1B18A;
},
{
glyphname = u1B18B;
layers = (
{
hints = (
{
place = "{262, 54}";
type = Stem;
},
{
place = "{334, 53}";
type = Stem;
},
{
place = "{519, 52}";
type = Stem;
}
);
layerId = "A026023B-92C1-4D03-AC7E-471A27A73077";
paths = (
{
closed = 1;
nodes = (
"334 1000 LINE",
"332.8 765.83 OFFCURVE",
"278.14 587.16 OFFCURVE",
"170 464 CURVE",
"170 463 LINE",
"183.72 445.24 OFFCURVE",
"196.48 426.82 OFFCURVE",
"208.27 407.73 CURVE SMOOTH",
"293.37 268.72 OFFCURVE",
"311.28 97.14 OFFCURVE",
"262 -107 CURVE",
"316 -120 LINE",
"317.84 -112.43 OFFCURVE",
"319.66 -104.55 OFFCURVE",
"321.48 -96.36 CURVE SMOOTH",
"369.69 122.92 OFFCURVE",
"342.2 308.71 OFFCURVE",
"239 461 CURVE",
"335.31 581.08 OFFCURVE",
"384.64 760.74 OFFCURVE",
"387 1000 CURVE"
);
},
{
closed = 1;
nodes = (
"548 838 LINE",
"546.4 817.5 OFFCURVE",
"544.35 797.55 OFFCURVE",
"541.86 778.14 CURVE SMOOTH",
"526.39 659.21 OFFCURVE",
"487.1 554.5 OFFCURVE",
"424 464 CURVE",
"424 462 LINE",
"440.99 438.93 OFFCURVE",
"455.68 414.5 OFFCURVE",
"468.08 388.69 CURVE SMOOTH",
"506.66 307.28 OFFCURVE",
"523.63 192.05 OFFCURVE",
"519 43 CURVE",
"571 42 LINE",
"572.35 84.98 OFFCURVE",
"572.1 124.56 OFFCURVE",
"570.24 160.72 CURVE SMOOTH",
"564.27 272.8 OFFCURVE",
"536.86 373.56 OFFCURVE",
"488 463 CURVE",
"501.51 484.36 OFFCURVE",
"513.65 506.04 OFFCURVE",
"524.42 528.04 CURVE SMOOTH",
"559.91 601.21 OFFCURVE",
"585.11 702.86 OFFCURVE",
"600 833 CURVE"
);
}
);
vertWidth = 1000;
width = 769;
}
);
note = u1B18B;
unicode = 1B18B;
},
{
glyphname = u1B18C;
layers = (
{
hints = (
{
horizontal = 1;
place = "{274, 89}";
type = Stem;
},
{
place = "{131, 80}";
type = Stem;
},
{
place = "{299, 53}";
type = Stem;
},
{
place = "{437, 50}";
type = Stem;
},
{
place = "{558, 80}";
type = Stem;
}
);
layerId = "A026023B-92C1-4D03-AC7E-471A27A73077";
paths = (
{
closed = 1;
nodes = (
"642 189 LINE",
"539.19 334.6 OFFCURVE",
"487.53 465.93 OFFCURVE",
"487 583 CURVE SMOOTH",
"487.21 713.89 OFFCURVE",
"526.54 843.89 OFFCURVE",
"605 973 CURVE",
"559 1000 LINE",
"478.05 868.7 OFFCURVE",
"437.38 728.04 OFFCURVE",
"437 578 CURVE SMOOTH",
"437.27 446.69 OFFCURVE",
"490.93 305.69 OFFCURVE",
"598 155 CURVE"
);
},
{
closed = 1;
nodes = (
"203 -120 LINE",
"301.86 5.22 OFFCURVE",
"351.53 145.56 OFFCURVE",
"352 301 CURVE SMOOTH",
"351.78 469.5 OFFCURVE",
"301.78 621.83 OFFCURVE",
"202 758 CURVE",
"159 727 LINE",
"251.9 598.18 OFFCURVE",
"298.56 454.51 OFFCURVE",
"299 296 CURVE SMOOTH",
"298.75 162.76 OFFCURVE",
"252.08 36.09 OFFCURVE",
"159 -84 CURVE"
);
},
{
closed = 1;
nodes = (
"558.14 564.31 OFFCURVE",
"559.39 558.38 OFFCURVE",
"561.75 552.21 CURVE SMOOTH",
"569.53 534.07 OFFCURVE",
"581.95 525 OFFCURVE",
"599 525 CURVE SMOOTH",
"603.96 525.14 OFFCURVE",
"608.96 526.18 OFFCURVE",
"614 528.14 CURVE SMOOTH",
"630 535.38 OFFCURVE",
"638 549.33 OFFCURVE",
"638 570 CURVE SMOOTH",
"637.92 574.19 OFFCURVE",
"637.34 578.62 OFFCURVE",
"636.27 583.31 CURVE SMOOTH",
"630.83 603.77 OFFCURVE",
"618.41 614 OFFCURVE",
"599 614 CURVE SMOOTH",
"593.96 613.85 OFFCURVE",
"588.73 612.69 OFFCURVE",
"583.31 610.5 CURVE SMOOTH",
"566.44 602.71 OFFCURVE",
"558 589.21 OFFCURVE",
"558 570 CURVE SMOOTH"
);
},
{
closed = 1;
nodes = (
"175.96 274.15 OFFCURVE",
"181.87 275.51 OFFCURVE",
"187.73 278.08 CURVE SMOOTH",
"203.25 285.85 OFFCURVE",
"211 298.82 OFFCURVE",
"211 317 CURVE SMOOTH",
"210.92 321.53 OFFCURVE",
"210.36 326.22 OFFCURVE",
"209.31 331.09 CURVE SMOOTH",
"203.97 352.37 OFFCURVE",
"190.87 363 OFFCURVE",
"170 363 CURVE SMOOTH",
"165.61 362.85 OFFCURVE",
"160.97 361.77 OFFCURVE",
"156.07 359.76 CURVE SMOOTH",
"139.36 351.84 OFFCURVE",
"131 337.59 OFFCURVE",
"131 317 CURVE SMOOTH",
"131.15 311.54 OFFCURVE",
"132.44 305.77 OFFCURVE",
"134.88 299.68 CURVE SMOOTH",
"142.57 282.56 OFFCURVE",
"154.28 274 OFFCURVE",
"170 274 CURVE SMOOTH"
);
}
);
vertWidth = 1000;
width = 769;
}
);
note = u1B18C;
unicode = 1B18C;
},
{
glyphname = u1B18D;
layers = (
{
hints = (
{
place = "{254, 56}";
type = Stem;
}
);
layerId = "A026023B-92C1-4D03-AC7E-471A27A73077";
paths = (
{
closed = 1;
nodes = (
"566 1000 LINE",
"549.15 956.84 OFFCURVE",
"530.29 915.78 OFFCURVE",
"509.44 876.8 CURVE SMOOTH",
"427.93 725.25 OFFCURVE",
"307.45 600.98 OFFCURVE",
"148 504 CURVE",
"148 500 LINE",
"161.29 480.14 OFFCURVE",
"173.52 460.13 OFFCURVE",
"184.69 439.97 CURVE SMOOTH",
"233.33 351.55 OFFCURVE",
"256.43 259.23 OFFCURVE",
"254 163 CURVE SMOOTH",
"253.71 155.39 OFFCURVE",
"253.19 147.31 OFFCURVE",
"252.43 138.75 CURVE SMOOTH",
"244.58 54.26 OFFCURVE",
"219.11 -21.99 OFFCURVE",
"176 -90 CURVE",
"228 -120 LINE",
"233.25 -111.76 OFFCURVE",
"238.51 -102.74 OFFCURVE",
"243.8 -92.95 CURVE SMOOTH",
"283.83 -17.82 OFFCURVE",
"305.89 66.49 OFFCURVE",
"310 160 CURVE SMOOTH",
"310.12 163.63 OFFCURVE",
"310.21 167.6 OFFCURVE",
"310.27 171.91 CURVE SMOOTH",
"311.6 283.93 OFFCURVE",
"283.17 388.96 OFFCURVE",
"225 487 CURVE",
"301.56 537.14 OFFCURVE",
"367.9 593.48 OFFCURVE",
"424 656 CURVE",
"505.03 515.39 OFFCURVE",
"541.37 374.39 OFFCURVE",
"533 233 CURVE",
"398 361 LINE",
"363 320 LINE",
"535 155 LINE",
"575 167 LINE",
"581.65 200.01 OFFCURVE",
"585.48 234.32 OFFCURVE",
"586.47 269.95 CURVE SMOOTH",
"590.05 414.79 OFFCURVE",
"548.56 558.47 OFFCURVE",
"462 701 CURVE",
"521.35 777.08 OFFCURVE",
"573.69 869.74 OFFCURVE",
"619 979 CURVE"
);
}
);
vertWidth = 1000;
width = 769;
}
);
note = u1B18D;
unicode = 1B18D;
},
{
glyphname = u1B18E;
layers = (
{
hints = (
{
horizontal = 1;
place = "{-120, 95}";
type = Stem;
},
{
place = "{376, 87}";
type = Stem;
},
{
place = "{512, 55}";
type = Stem;
}
);
layerId = "A026023B-92C1-4D03-AC7E-471A27A73077";
paths = (
{
closed = 1;
nodes = (
"417 598 LINE",
"485.94 703.97 OFFCURVE",
"535.94 834.97 OFFCURVE",
"567 991 CURVE",
"512 1000 LINE",
"489.56 872.15 OFFCURVE",
"447.89 758.48 OFFCURVE",
"387 659 CURVE",
"300 837 LINE",
"248 812 LINE",
"350 603 LINE",
"292.09 523.35 OFFCURVE",
"215.42 445.02 OFFCURVE",
"120 368 CURVE",
"155 322 LINE",
"247.02 394.36 OFFCURVE",
"321.69 468.36 OFFCURVE",
"379 544 CURVE",
"432 435 LINE",
"350.63 264.24 OFFCURVE",
"251.96 110.57 OFFCURVE",
"136 -26 CURVE",
"179 -66 LINE",
"286.96 61.39 OFFCURVE",
"382.29 206.05 OFFCURVE",
"465 368 CURVE",
"597 98 LINE",
"649 123 LINE"
);
},
{
closed = 1;
nodes = (
"415.23 -25.11 OFFCURVE",
"410.32 -25.94 OFFCURVE",
"405.27 -27.5 CURVE SMOOTH",
"385.75 -34.45 OFFCURVE",
"376 -49.62 OFFCURVE",
"376 -73 CURVE SMOOTH",
"376.13 -78.72 OFFCURVE",
"377.3 -84.66 OFFCURVE",
"379.5 -90.82 CURVE SMOOTH",
"387.31 -110.27 OFFCURVE",
"400.81 -120 OFFCURVE",
"420 -120 CURVE SMOOTH",
"424.97 -119.89 OFFCURVE",
"429.98 -119.07 OFFCURVE",
"435.02 -117.54 CURVE SMOOTH",
"453.68 -110.91 OFFCURVE",
"463 -96.07 OFFCURVE",
"463 -73 CURVE SMOOTH",
"462.96 -69.97 OFFCURVE",
"462.74 -66.7 OFFCURVE",
"462.34 -63.19 CURVE SMOOTH",
"458.8 -37.73 OFFCURVE",
"444.68 -25 OFFCURVE",
"420 -25 CURVE SMOOTH"
);
}
);
vertWidth = 1000;
width = 769;
}
);
note = u1B18E;
unicode = 1B18E;
},
{
glyphname = u1B18F;
layers = (
{
hints = (
{
horizontal = 1;
place = "{246, 92}";
type = Stem;
},
{
horizontal = 1;
place = "{366, 93}";
type = Stem;
},
{
place = "{128, 85}";
type = Stem;
},
{
place = "{528, 53}";
type = Stem;
},
{
place = "{589, 84}";
type = Stem;
},
{
place = "{501, 54}";
type = Stem;
}
);
layerId = "A026023B-92C1-4D03-AC7E-471A27A73077";
paths = (
{
closed = 1;
nodes = (
"528 1000 LINE",
"504.37 749.67 OFFCURVE",
"460.03 537.01 OFFCURVE",
"395 362 CURVE",
"334.94 484.04 OFFCURVE",
"268.61 595.71 OFFCURVE",
"196 697 CURVE",
"151 665 LINE",
"232.33 548.7 OFFCURVE",
"303.99 423.37 OFFCURVE",
"366 289 CURVE",
"309.62 158.02 OFFCURVE",
"235.28 34.69 OFFCURVE",
"143 -81 CURVE",
"187 -120 LINE",
"272.05 -16.01 OFFCURVE",
"342.39 96.33 OFFCURVE",
"398 217 CURVE",
"438.67 119.92 OFFCURVE",
"473 23.25 OFFCURVE",
"501 -73 CURVE",
"555 -55 LINE",
"523.04 57.15 OFFCURVE",
"481.04 172.15 OFFCURVE",
"429 290 CURVE",
"503.47 477.93 OFFCURVE",
"554.14 713.26 OFFCURVE",
"581 996 CURVE"
);
},
{
closed = 1;
nodes = (
"626.35 458.89 OFFCURVE",
"621.55 458.02 OFFCURVE",
"616.61 456.41 CURVE SMOOTH",
"598.2 449.43 OFFCURVE",
"589 434.63 OFFCURVE",
"589 412 CURVE SMOOTH",
"589.1 406.97 OFFCURVE",
"589.87 401.79 OFFCURVE",
"591.32 396.44 CURVE SMOOTH",
"597.61 376.15 OFFCURVE",
"610.84 366 OFFCURVE",
"631 366 CURVE SMOOTH",
"634.32 366.06 OFFCURVE",
"637.83 366.42 OFFCURVE",
"641.54 367.08 CURVE SMOOTH",
"662.51 371.63 OFFCURVE",
"673 386.61 OFFCURVE",
"673 412 CURVE",
"670.07 437.93 OFFCURVE",
"656.07 453.59 OFFCURVE",
"631 459 CURVE"
);
},
{
closed = 1;
nodes = (
"212.95 295.47 OFFCURVE",
"212.62 299.16 OFFCURVE",
"212.02 303.08 CURVE SMOOTH",
"207.76 326.36 OFFCURVE",
"193.75 338 OFFCURVE",
"170 338 CURVE SMOOTH",
"164.87 338 OFFCURVE",
"159.97 337.1 OFFCURVE",
"155.32 335.31 CURVE SMOOTH",
"137.11 328.28 OFFCURVE",
"128 313.85 OFFCURVE",
"128 292 CURVE SMOOTH",
"128.1 286.97 OFFCURVE",
"128.87 281.79 OFFCURVE",
"130.32 276.44 CURVE SMOOTH",
"136.61 256.15 OFFCURVE",
"149.84 246 OFFCURVE",
"170 246 CURVE SMOOTH",
"174.51 246.09 OFFCURVE",
"179.11 246.72 OFFCURVE",
"183.77 247.89 CURVE SMOOTH",
"203.25 253.66 OFFCURVE",
"213 268.36 OFFCURVE",
"213 292 CURVE SMOOTH"
);
}
);
vertWidth = 1000;
width = 769;
}
);
note = u1B18F;
unicode = 1B18F;
},
{
glyphname = u1B190;
layers = (
{
hints = (
{
horizontal = 1;
place = "{-120, 56}";
type = Stem;
},
{
horizontal = 1;
place = "{140, 56}";
type = Stem;
},
{
place = "{438, 53}";
type = Stem;
},
{
place = "{262, 56}";
type = Stem;
},
{
place = "{306, 55}";
type = Stem;
},
{
place = "{486, 54}";
type = Stem;
}
);
layerId = "A026023B-92C1-4D03-AC7E-471A27A73077";
paths = (
{
closed = 1;
nodes = (
"648 259 LINE",
"543.89 395.16 OFFCURVE",
"491.56 519.83 OFFCURVE",
"491 633 CURVE SMOOTH",
"491.21 736.56 OFFCURVE",
"525.54 850.56 OFFCURVE",
"594 975 CURVE",
"545 1000 LINE",
"474.05 871.78 OFFCURVE",
"438.39 749.45 OFFCURVE",
"438 633 CURVE SMOOTH",
"438.27 506.35 OFFCURVE",
"492.93 369.35 OFFCURVE",
"602 222 CURVE"
);
},
{
closed = 1;
nodes = (
"166 73 LINE",
"266.79 189.79 OFFCURVE",
"317.46 316.12 OFFCURVE",
"318 452 CURVE SMOOTH",
"317.78 569.88 OFFCURVE",
"277.78 690.21 OFFCURVE",
"198 813 CURVE",
"150 782 LINE",
"224.21 665.49 OFFCURVE",
"261.54 555.49 OFFCURVE",
"262 452 CURVE SMOOTH",
"261.72 334.8 OFFCURVE",
"214.38 222.13 OFFCURVE",
"120 114 CURVE"
);
},
{
closed = 1;
nodes = (
"442.83 -119.78 OFFCURVE",
"460.93 -113.94 OFFCURVE",
"478.32 -102.48 CURVE SMOOTH",
"519.44 -74.29 OFFCURVE",
"540 -26.46 OFFCURVE",
"540 41 CURVE SMOOTH",
"539.82 80.14 OFFCURVE",
"531.44 113.56 OFFCURVE",
"514.86 141.25 CURVE SMOOTH",
"492.33 177.75 OFFCURVE",
"462.05 196 OFFCURVE",
"424 196 CURVE SMOOTH",
"404.84 195.79 OFFCURVE",
"386.43 190.17 OFFCURVE",
"368.75 179.15 CURVE SMOOTH",
"326.92 152.02 OFFCURVE",
"306 105.97 OFFCURVE",
"306 41 CURVE SMOOTH",
"306.19 -0.53 OFFCURVE",
"315.19 -35.86 OFFCURVE",
"333.01 -64.98 CURVE SMOOTH",
"356.12 -101.66 OFFCURVE",
"386.45 -120 OFFCURVE",
"424 -120 CURVE SMOOTH"
);
},
{
closed = 1;
nodes = (
"414.58 -63.76 OFFCURVE",
"405.35 -60.43 OFFCURVE",
"396.33 -54.02 CURVE SMOOTH",
"372.78 -35.87 OFFCURVE",
"361 -5.2 OFFCURVE",
"361 38 CURVE SMOOTH",
"361.13 57.64 OFFCURVE",
"364.48 76.07 OFFCURVE",
"371.05 93.28 CURVE SMOOTH",
"383.47 124.43 OFFCURVE",
"401.12 140 OFFCURVE",
"424 140 CURVE SMOOTH",
"433.44 139.73 OFFCURVE",
"442.73 136.06 OFFCURVE",
"451.88 128.98 CURVE SMOOTH",
"474.62 109.92 OFFCURVE",
"486 79.59 OFFCURVE",
"486 38 CURVE SMOOTH",
"485.88 18.35 OFFCURVE",
"482.71 0.06 OFFCURVE",
"476.5 -16.86 CURVE SMOOTH",
"464.45 -48.29 OFFCURVE",
"446.94 -64 OFFCURVE",
"424 -64 CURVE SMOOTH"
);
}
);
vertWidth = 1000;
width = 769;
}
);
note = u1B190;
unicode = 1B190;
},
{
glyphname = u1B191;
layers = (
{
hints = (
{
place = "{364, 53}";
type = Stem;
},
{
place = "{434, 49}";
type = Stem;
},
{
place = "{533, 53}";
type = Stem;
}
);
layerId = "A026023B-92C1-4D03-AC7E-471A27A73077";
paths = (
{
closed = 1;
nodes = (
"608 423 LINE",
"555.84 358.89 OFFCURVE",
"491.84 294.22 OFFCURVE",
"416 229 CURVE",
"414.21 270.54 OFFCURVE",
"410.54 319.21 OFFCURVE",
"405 375 CURVE",
"456.48 434.31 OFFCURVE",
"482.48 496.31 OFFCURVE",
"483 561 CURVE SMOOTH",
"482.92 595.07 OFFCURVE",
"478.59 630.07 OFFCURVE",
"470 666 CURVE",
"537.13 761.94 OFFCURVE",
"575.8 871.94 OFFCURVE",
"586 996 CURVE",
"533 1000 LINE",
"510.98 771.49 OFFCURVE",
"386.32 597.82 OFFCURVE",
"159 479 CURVE",
"184 430 LINE",
"284.02 479.18 OFFCURVE",
"365.68 540.18 OFFCURVE",
"429 613 CURVE",
"432.2 595.71 OFFCURVE",
"433.87 580.37 OFFCURVE",
"434 567 CURVE SMOOTH",
"433.95 557.82 OFFCURVE",
"433.23 548.34 OFFCURVE",
"431.84 538.58 CURVE SMOOTH",
"417.22 443 OFFCURVE",
"324.28 349.81 OFFCURVE",
"153 259 CURVE",
"176 213 LINE",
"249.61 249.34 OFFCURVE",
"309.94 287.67 OFFCURVE",
"357 328 CURVE",
"361.61 273.62 OFFCURVE",
"363.94 226.62 OFFCURVE",
"364 187 CURVE",
"292.04 130.07 OFFCURVE",
"212.71 76.07 OFFCURVE",
"126 25 CURVE",
"152 -22 LINE",
"227.5 20.33 OFFCURVE",
"298.16 66 OFFCURVE",
"364 115 CURVE",
"361.9 35.15 OFFCURVE",
"353.56 -40.52 OFFCURVE",
"339 -112 CURVE",
"392 -120 LINE",
"408.54 -34 OFFCURVE",
"416.88 58.33 OFFCURVE",
"417 157 CURVE",
"501.28 226.34 OFFCURVE",
"578.62 303.01 OFFCURVE",
"649 387 CURVE"
);
}
);
vertWidth = 1000;
width = 769;
}
);
note = u1B191;
unicode = 1B191;
},
{
glyphname = u1B192;
layers = (
{
hints = (
{
horizontal = 1;
place = "{88, 99}";
type = Stem;
},
{
place = "{131, 91}";
type = Stem;
},
{
place = "{369, 51}";
type = Stem;
},
{
place = "{558, 49}";
type = Stem;
}
);
layerId = "A026023B-92C1-4D03-AC7E-471A27A73077";
paths = (
{
closed = 1;
nodes = (
"519.04 504.87 OFFCURVE",
"567.7 368.21 OFFCURVE",
"583 203 CURVE",
"634 206 LINE",
"632.51 229.46 OFFCURVE",
"629.95 253.54 OFFCURVE",
"626.3 278.23 CURVE SMOOTH",
"604.02 426.8 OFFCURVE",
"551.58 553.4 OFFCURVE",
"469 658 CURVE",
"531.08 752.36 OFFCURVE",
"577.08 862.36 OFFCURVE",
"607 988 CURVE",
"558 1000 LINE",
"506.49 781.22 OFFCURVE",
"393.49 605.55 OFFCURVE",
"219 473 CURVE",
"219 469 LINE",
"318.43 362.35 OFFCURVE",
"368.43 245.35 OFFCURVE",
"369 118 CURVE SMOOTH",
"369 57.56 OFFCURVE",
"354.67 -15.1 OFFCURVE",
"326 -100 CURVE",
"377 -120 LINE",
"405.43 -33.4 OFFCURVE",
"419.77 45.93 OFFCURVE",
"420 118 CURVE SMOOTH",
"419.77 244.4 OFFCURVE",
"377.43 359.4 OFFCURVE",
"293 463 CURVE",
"347 508 OFFCURVE",
"395 558 OFFCURVE",
"437 613 CURVE"
);
},
{
closed = 1;
nodes = (
"170.1 187 OFFCURVE",
"164.45 185.81 OFFCURVE",
"159.07 183.42 CURVE SMOOTH",
"140.36 175.12 OFFCURVE",
"131 159.65 OFFCURVE",
"131 137 CURVE SMOOTH",
"131.12 131.06 OFFCURVE",
"132.2 124.97 OFFCURVE",
"134.24 118.73 CURVE SMOOTH",
"141.78 98.24 OFFCURVE",
"155.7 88 OFFCURVE",
"176 88 CURVE SMOOTH",
"181.54 88.11 OFFCURVE",
"187.07 89.04 OFFCURVE",
"192.6 90.8 CURVE SMOOTH",
"212.2 97.96 OFFCURVE",
"222 113.36 OFFCURVE",
"222 137 CURVE SMOOTH",
"221.93 141.51 OFFCURVE",
"221.42 146.21 OFFCURVE",
"220.46 151.08 CURVE SMOOTH",
"214.99 175.03 OFFCURVE",
"200.17 187 OFFCURVE",
"176 187 CURVE SMOOTH"
);
}
);
vertWidth = 1000;
width = 769;
}
);
note = u1B192;
unicode = 1B192;
},
{
glyphname = u1B193;
layers = (
{
hints = (
{
horizontal = 1;
place = "{-17, 91}";
type = Stem;
},
{
horizontal = 1;
place = "{442, 93}";
type = Stem;
},
{
place = "{123, 82}";
type = Stem;
},
{
place = "{354, 86}";
type = Stem;
},
{
place = "{522, 59}";
type = Stem;
}
);
layerId = "A026023B-92C1-4D03-AC7E-471A27A73077";
paths = (
{
closed = 1;
nodes = (
"522 996 LINE",
"530.54 894.61 OFFCURVE",
"536.53 805.98 OFFCURVE",
"539.98 730.11 CURVE SMOOTH",
"555.16 394.06 OFFCURVE",
"524.83 137.36 OFFCURVE",
"449 -40 CURVE",
"225 497 LINE",
"170 475 LINE",
"424 -120 LINE",
"471 -120 LINE",
"525.25 -22.71 OFFCURVE",
"562.37 103.46 OFFCURVE",
"582.34 258.51 CURVE SMOOTH",
"604.86 435.46 OFFCURVE",
"604.42 682.62 OFFCURVE",
"581 1000 CURVE"
);
},
{
closed = 1;
nodes = (
"400.84 442.07 OFFCURVE",
"404.82 442.54 OFFCURVE",
"408.96 443.4 CURVE SMOOTH",
"429.65 448.57 OFFCURVE",
"440 463.77 OFFCURVE",
"440 489 CURVE SMOOTH",
"439.95 492.47 OFFCURVE",
"439.62 496.16 OFFCURVE",
"439.02 500.08 CURVE SMOOTH",
"434.76 523.36 OFFCURVE",
"420.75 535 OFFCURVE",
"397 535 CURVE SMOOTH",
"392.04 534.89 OFFCURVE",
"386.98 533.99 OFFCURVE",
"381.8 532.31 CURVE SMOOTH",
"363.27 525.36 OFFCURVE",
"354 510.93 OFFCURVE",
"354 489 CURVE SMOOTH",
"354.11 483.36 OFFCURVE",
"355.05 477.62 OFFCURVE",
"356.82 471.77 CURVE SMOOTH",
"363.64 451.92 OFFCURVE",
"377.03 442 OFFCURVE",
"397 442 CURVE SMOOTH"
);
},
{
closed = 1;
nodes = (
"160.25 73.91 OFFCURVE",
"156.31 73.36 OFFCURVE",
"152.17 72.33 CURVE SMOOTH",
"132.73 66.59 OFFCURVE",
"123 51.81 OFFCURVE",
"123 28 CURVE SMOOTH",
"123.11 22.55 OFFCURVE",
"124.08 16.95 OFFCURVE",
"125.9 11.2 CURVE SMOOTH",
"132.66 -7.6 OFFCURVE",
"145.36 -17 OFFCURVE",
"164 -17 CURVE SMOOTH",
"167.27 -16.94 OFFCURVE",
"170.74 -16.58 OFFCURVE",
"174.4 -15.92 CURVE SMOOTH",
"194.8 -11.44 OFFCURVE",
"205 3.2 OFFCURVE",
"205 28 CURVE SMOOTH",
"202.6 54.24 OFFCURVE",
"188.93 69.58 OFFCURVE",
"164 74 CURVE"
);
}
);
vertWidth = 1000;
width = 769;
}
);
note = u1B193;
unicode = 1B193;
},
{
glyphname = u1B194;
layers = (
{
hints = (
{
place = "{524, 54}";
type = Stem;
}
);
layerId = "A026023B-92C1-4D03-AC7E-471A27A73077";
paths = (
{
closed = 1;
nodes = (
"456 429 LINE",
"513.3 487.42 OFFCURVE",
"560.63 543.75 OFFCURVE",
"598 598 CURVE",
"551 630 LINE",
"516.31 581.13 OFFCURVE",
"475.98 532.13 OFFCURVE",
"430 483 CURVE",
"368 611 LINE",
"455.56 707.85 OFFCURVE",
"525.56 832.85 OFFCURVE",
"578 986 CURVE",
"524 1000 LINE",
"486.28 874.81 OFFCURVE",
"425.28 763.14 OFFCURVE",
"341 665 CURVE",
"249 853 LINE",
"200 829 LINE",
"301 622 LINE",
"249.4 569.57 OFFCURVE",
"189.07 520.57 OFFCURVE",
"120 475 CURVE",
"149 429 LINE",
"215.75 470.71 OFFCURVE",
"275.09 517.38 OFFCURVE",
"327 569 CURVE",
"389 442 LINE",
"310.94 366.14 OFFCURVE",
"231.94 302.81 OFFCURVE",
"152 252 CURVE",
"182 204 LINE",
"261.24 254.63 OFFCURVE",
"338.9 316.29 OFFCURVE",
"415 389 CURVE",
"470 276 LINE",
"390.39 151.35 OFFCURVE",
"295.39 32.68 OFFCURVE",
"185 -80 CURVE",
"223 -120 LINE",
"314.24 -30.44 OFFCURVE",
"406.57 81.56 OFFCURVE",
"500 216 CURVE",
"600 11 LINE",
"649 35 LINE"
);
}
);
vertWidth = 1000;
width = 769;
}
);
note = u1B194;
unicode = 1B194;
},
{
glyphname = u1B195;
layers = (
{
hints = (
{
place = "{133, 83}";
type = Stem;
},
{
place = "{405, 55}";
type = Stem;
},
{
place = "{550, 83}";
type = Stem;
},
{
place = "{414, 54}";
type = Stem;
},
{
horizontal = 1;
place = "{452, 90}";
type = Stem;
},
{
horizontal = 1;
place = "{410, 91}";
type = Stem;
}
);
layerId = "A026023B-92C1-4D03-AC7E-471A27A73077";
paths = (
{
closed = 1;
nodes = (
"405 1000 LINE",
"410.32 826.17 OFFCURVE",
"399.17 674.39 OFFCURVE",
"371.56 544.65 CURVE SMOOTH",
"332 359.99 OFFCURVE",
"249.15 187.44 OFFCURVE",
"123 27 CURVE",
"165 -11 LINE",
"252.55 95.63 OFFCURVE",
"319.88 208.96 OFFCURVE",
"367 329 CURVE",
"400.1 196.26 OFFCURVE",
"415.77 46.59 OFFCURVE",
"414 -120 CURVE",
"468 -120 LINE",
"468.1 -109.9 OFFCURVE",
"468.14 -99.6 OFFCURVE",
"468.13 -89.09 CURVE SMOOTH",
"467.77 82.06 OFFCURVE",
"444.06 251.09 OFFCURVE",
"397 418 CURVE",
"443.83 575.15 OFFCURVE",
"464.83 769.48 OFFCURVE",
"460 1001 CURVE"
);
},
{
closed = 1;
nodes = (
"178.99 452.09 OFFCURVE",
"183.14 452.67 OFFCURVE",
"187.44 453.73 CURVE SMOOTH",
"206.48 459.36 OFFCURVE",
"216 473.78 OFFCURVE",
"216 497 CURVE SMOOTH",
"215.92 501.6 OFFCURVE",
"215.3 506.36 OFFCURVE",
"214.14 511.28 CURVE SMOOTH",
"208.54 531.76 OFFCURVE",
"195.5 542 OFFCURVE",
"175 542 CURVE SMOOTH",
"170.48 541.9 OFFCURVE",
"165.82 541.14 OFFCURVE",
"161.03 539.72 CURVE SMOOTH",
"142.34 533.27 OFFCURVE",
"133 519.03 OFFCURVE",
"133 497 CURVE SMOOTH",
"133.09 492.24 OFFCURVE",
"133.74 487.35 OFFCURVE",
"134.97 482.34 CURVE SMOOTH",
"140.7 462.12 OFFCURVE",
"154.05 452 OFFCURVE",
"175 452 CURVE SMOOTH"
);
},
{
closed = 1;
nodes = (
"587.14 500.88 OFFCURVE",
"582.15 499.95 OFFCURVE",
"577.02 498.2 CURVE SMOOTH",
"559.01 491.12 OFFCURVE",
"550 477.06 OFFCURVE",
"550 456 CURVE SMOOTH",
"550.11 450.26 OFFCURVE",
"551.08 444.45 OFFCURVE",
"552.92 438.57 CURVE SMOOTH",
"559.68 419.52 OFFCURVE",
"572.7 410 OFFCURVE",
"592 410 CURVE SMOOTH",
"595.51 410.07 OFFCURVE",
"599.21 410.52 OFFCURVE",
"603.09 411.34 CURVE SMOOTH",
"623.03 416.43 OFFCURVE",
"633 431.32 OFFCURVE",
"633 456 CURVE SMOOTH",
"632.93 460.07 OFFCURVE",
"632.47 464.33 OFFCURVE",
"631.6 468.77 CURVE SMOOTH",
"626.68 490.25 OFFCURVE",
"613.48 501 OFFCURVE",
"592 501 CURVE SMOOTH"
);
}
);
vertWidth = 1000;
width = 769;
}
);
note = u1B195;
unicode = 1B195;
},
{
glyphname = u1B196;
layers = (
{
hints = (
{
place = "{277, 54}";
type = Stem;
},
{
place = "{432, 54}";
type = Stem;
},
{
place = "{613, 52}";
type = Stem;
}
);
layerId = "A026023B-92C1-4D03-AC7E-471A27A73077";
paths = (
{
closed = 1;
nodes = (
"665 283 LINE",
"647.9 487.4 OFFCURVE",
"612.23 681.07 OFFCURVE",
"558 864 CURVE",
"515 864 LINE",
"410 561 LINE",
"384.29 627.07 OFFCURVE",
"351.62 692.73 OFFCURVE",
"312 758 CURVE",
"325.5 839.35 OFFCURVE",
"331.84 920.02 OFFCURVE",
"331 1000 CURVE",
"277 999 LINE",
"279.74 777.86 OFFCURVE",
"224.08 564.86 OFFCURVE",
"110 360 CURVE",
"156 331 LINE",
"219.91 445.82 OFFCURVE",
"266.58 562.15 OFFCURVE",
"296 680 CURVE",
"331.21 617.27 OFFCURVE",
"360.21 551.93 OFFCURVE",
"383 484 CURVE",
"230 40 LINE",
"278 21 LINE",
"409 397 LINE",
"448.61 239.92 OFFCURVE",
"456.28 69.92 OFFCURVE",
"432 -113 CURVE",
"486 -120 LINE",
"510.59 102.3 OFFCURVE",
"494.92 302.64 OFFCURVE",
"439 481 CURVE",
"535 757 LINE",
"577.76 590.04 OFFCURVE",
"603.76 431.37 OFFCURVE",
"613 281 CURVE"
);
}
);
vertWidth = 1000;
width = 769;
}
);
note = u1B196;
unicode = 1B196;
},
{
glyphname = u1B197;
layers = (
{
layerId = "A026023B-92C1-4D03-AC7E-471A27A73077";
paths = (
{
closed = 1;
nodes = (
"602 237 LINE",
"571.96 199.77 OFFCURVE",
"536.96 161.1 OFFCURVE",
"497 121 CURVE",
"426 264 LINE",
"466.73 303.99 OFFCURVE",
"512.73 357.32 OFFCURVE",
"564 424 CURVE",
"522 459 LINE",
"481.13 405.63 OFFCURVE",
"440.46 358.63 OFFCURVE",
"400 318 CURVE",
"336 449 LINE",
"458.32 586.68 OFFCURVE",
"540.32 767.68 OFFCURVE",
"582 992 CURVE",
"528 1000 LINE",
"523.81 978.81 OFFCURVE",
"519.33 957.96 OFFCURVE",
"514.57 937.44 CURVE SMOOTH",
"472.85 758.6 OFFCURVE",
"404.33 613.79 OFFCURVE",
"309 503 CURVE",
"216 694 LINE",
"167 667 LINE",
"269 459 LINE",
"226.89 416.99 OFFCURVE",
"178.22 376.33 OFFCURVE",
"123 337 CURVE",
"152 291 LINE",
"204.57 325.47 OFFCURVE",
"252.24 363.47 OFFCURVE",
"295 405 CURVE",
"358 276 LINE",
"307.19 228.21 OFFCURVE",
"251.52 183.21 OFFCURVE",
"191 141 CURVE",
"221 95 LINE",
"278.12 134.1 OFFCURVE",
"332.45 176.76 OFFCURVE",
"384 223 CURVE",
"454 80 LINE",
"393.94 25.12 OFFCURVE",
"328.94 -25.55 OFFCURVE",
"259 -72 CURVE",
"290 -120 LINE",
"301.51 -111.83 OFFCURVE",
"313.04 -103.51 OFFCURVE",
"324.58 -95.06 CURVE SMOOTH",
"448.31 -4.29 OFFCURVE",
"553.78 94.73 OFFCURVE",
"641 202 CURVE"
);
}
);
vertWidth = 1000;
width = 769;
}
);
note = u1B197;
unicode = 1B197;
},
{
glyphname = u1B198;
layers = (
{
hints = (
{
place = "{272, 54}";
type = Stem;
},
{
place = "{381, 53}";
type = Stem;
},
{
place = "{574, 52}";
type = Stem;
}
);
layerId = "A026023B-92C1-4D03-AC7E-471A27A73077";
paths = (
{
closed = 1;
nodes = (
"464.42 834.04 OFFCURVE",
"490.42 907.37 OFFCURVE",
"510 988 CURVE",
"457 1000 LINE",
"448.03 962.78 OFFCURVE",
"437.5 926.92 OFFCURVE",
"425.4 892.43 CURVE SMOOTH",
"368.17 730.34 OFFCURVE",
"268.37 594.87 OFFCURVE",
"126 486 CURVE",
"126 483 LINE",
"222.67 380.21 OFFCURVE",
"271.34 279.54 OFFCURVE",
"272 181 CURVE SMOOTH",
"271.73 95.25 OFFCURVE",
"235.39 7.91 OFFCURVE",
"163 -81 CURVE",
"207 -120 LINE",
"285.78 -26.43 OFFCURVE",
"325.45 72.91 OFFCURVE",
"326 178 CURVE SMOOTH",
"325.72 280.98 OFFCURVE",
"284.72 380.64 OFFCURVE",
"203 477 CURVE",
"287 549.76 OFFCURVE",
"355 630.76 OFFCURVE",
"407 720 CURVE",
"437.04 696.59 OFFCURVE",
"464.71 669.26 OFFCURVE",
"490 638 CURVE",
"418.03 572.54 OFFCURVE",
"381.69 502.54 OFFCURVE",
"381 428 CURVE SMOOTH",
"381.02 423.56 OFFCURVE",
"381.14 418.8 OFFCURVE",
"381.36 413.71 CURVE SMOOTH",
"386.03 321.9 OFFCURVE",
"430.24 243.99 OFFCURVE",
"514 180 CURVE",
"559 186 LINE",
"603.26 254.23 OFFCURVE",
"625.59 327.23 OFFCURVE",
"626 405 CURVE SMOOTH",
"625.92 434.12 OFFCURVE",
"622.62 463.47 OFFCURVE",
"616.09 493.06 CURVE SMOOTH",
"591.75 600.79 OFFCURVE",
"530.39 692.44 OFFCURVE",
"432 768 CURVE"
);
},
{
closed = 1;
nodes = (
"466.02 291.39 OFFCURVE",
"434.68 351.72 OFFCURVE",
"434 420 CURVE SMOOTH",
"434.34 480.26 OFFCURVE",
"463.34 537.59 OFFCURVE",
"521 592 CURVE",
"555.96 533.04 OFFCURVE",
"573.63 472.37 OFFCURVE",
"574 410 CURVE SMOOTH",
"573.83 346.25 OFFCURVE",
"558.49 289.25 OFFCURVE",
"528 239 CURVE"
);
}
);
vertWidth = 1000;
width = 769;
}
);
note = u1B198;
unicode = 1B198;
},
{
glyphname = u1B199;
layers = (
{
hints = (
{
place = "{396, 56}";
type = Stem;
},
{
place = "{371, 55}";
type = Stem;
}
);
layerId = "A026023B-92C1-4D03-AC7E-471A27A73077";
paths = (
{
closed = 1;
nodes = (
"480.53 523.35 OFFCURVE",
"556.2 429.69 OFFCURVE",
"616 327 CURVE",
"663 357 LINE",
"595.32 466.02 OFFCURVE",
"509.99 567.69 OFFCURVE",
"407 662 CURVE",
"432.84 751.34 OFFCURVE",
"447.84 863.34 OFFCURVE",
"452 998 CURVE",
"396 1000 LINE",
"392.2 848.54 OFFCURVE",
"372.22 725.7 OFFCURVE",
"336.07 631.48 CURVE SMOOTH",
"292.8 519.63 OFFCURVE",
"216.11 425.13 OFFCURVE",
"106 348 CURVE",
"138 300 LINE",
"145.59 305.31 OFFCURVE",
"153.34 310.87 OFFCURVE",
"161.24 316.69 CURVE SMOOTH",
"269.43 396.86 OFFCURVE",
"345.35 493.96 OFFCURVE",
"389 608 CURVE"
);
},
{
closed = 1;
nodes = (
"416.85 254.82 OFFCURVE",
"425.85 333.82 OFFCURVE",
"426 426 CURVE",
"371 427 LINE",
"371.33 315.25 OFFCURVE",
"356.02 222.72 OFFCURVE",
"325.06 149.41 CURVE SMOOTH",
"289.62 66.46 OFFCURVE",
"224.61 -7.68 OFFCURVE",
"130 -73 CURVE",
"159 -120 LINE",
"168.65 -113.37 OFFCURVE",
"178.25 -106.55 OFFCURVE",
"187.8 -99.54 CURVE SMOOTH",
"280.59 -31.12 OFFCURVE",
"344.66 47.06 OFFCURVE",
"380 135 CURVE",
"462.64 54.38 OFFCURVE",
"532.31 -29.95 OFFCURVE",
"589 -118 CURVE",
"633 -85 LINE",
"560.58 18.75 OFFCURVE",
"482.58 110.09 OFFCURVE",
"399 189 CURVE"
);
}
);
vertWidth = 1000;
width = 769;
}
);
note = u1B199;
unicode = 1B199;
},
{
glyphname = u1B19A;
layers = (
{
hints = (
{
place = "{241, 53}";
type = Stem;
},
{
place = "{448, 53}";
type = Stem;
},
{
place = "{601, 52}";
type = Stem;
}
);
layerId = "A026023B-92C1-4D03-AC7E-471A27A73077";
paths = (
{
closed = 1;
nodes = (
"601 342 LINE",
"586.8 220.1 OFFCURVE",
"565.13 114.76 OFFCURVE",
"536 26 CURVE",
"351 405 LINE",
"374.33 439.88 OFFCURVE",
"394.88 475.67 OFFCURVE",
"412.65 512.38 CURVE SMOOTH",
"475.46 643.03 OFFCURVE",
"504.91 805.57 OFFCURVE",
"501 1000 CURVE",
"448 998 LINE",
"449.97 926.71 OFFCURVE",
"447.61 861.62 OFFCURVE",
"440.9 802.75 CURVE SMOOTH",
"423.98 656.36 OFFCURVE",
"372.68 524.77 OFFCURVE",
"287 408 CURVE",
"272.06 517.46 OFFCURVE",
"230.4 635.8 OFFCURVE",
"162 763 CURVE",
"115 737 LINE",
"198.6 585.23 OFFCURVE",
"240.6 444.57 OFFCURVE",
"241 315 CURVE SMOOTH",
"240.86 173.13 OFFCURVE",
"206.19 37.13 OFFCURVE",
"137 -93 CURVE",
"187 -120 LINE",
"257.97 20.53 OFFCURVE",
"293.63 165.86 OFFCURVE",
"294 316 CURVE SMOOTH",
"294 328 LINE",
"315 355 LINE",
"515 -57 LINE",
"558 -58 LINE",
"600.08 39.12 OFFCURVE",
"631.75 170.79 OFFCURVE",
"653 337 CURVE"
);
}
);
vertWidth = 1000;
width = 769;
}
);
note = u1B19A;
unicode = 1B19A;
},
{
glyphname = u1B19B;
layers = (
{
hints = (
{
horizontal = 1;
place = "{439, 90}";
type = Stem;
},
{
place = "{589, 56}";
type = Stem;
},
{
place = "{569, 57}";
type = Stem;
},
{
place = "{127, 84}";
type = Stem;
},
{
place = "{135, 83}";
type = Stem;
}
);
layerId = "A026023B-92C1-4D03-AC7E-471A27A73077";
paths = (
{
closed = 1;
nodes = (
"589 1000 LINE",
"564.93 815.24 OFFCURVE",
"515.93 637.91 OFFCURVE",
"442 468 CURVE",
"395.38 583.46 OFFCURVE",
"341.38 696.13 OFFCURVE",
"280 806 CURVE",
"231 778 LINE",
"300.3 652.37 OFFCURVE",
"359.97 525.7 OFFCURVE",
"410 398 CURVE",
"344.28 262.76 OFFCURVE",
"267.95 145.42 OFFCURVE",
"181 46 CURVE",
"224 5 LINE",
"302.61 90.76 OFFCURVE",
"374.28 196.09 OFFCURVE",
"439 321 CURVE",
"484.75 192.4 OFFCURVE",
"528.08 45.4 OFFCURVE",
"569 -120 CURVE",
"626 -107 LINE",
"578.34 78.53 OFFCURVE",
"527.34 244.53 OFFCURVE",
"473 391 CURVE",
"558.93 577.8 OFFCURVE",
"616.27 778.46 OFFCURVE",
"645 993 CURVE"
);
},
{
closed = 1;
nodes = (
"174.03 439.12 OFFCURVE",
"179.16 440.09 OFFCURVE",
"184.38 441.91 CURVE SMOOTH",
"202.12 449.05 OFFCURVE",
"211 463.07 OFFCURVE",
"211 484 CURVE SMOOTH",
"210.91 488.76 OFFCURVE",
"210.26 493.65 OFFCURVE",
"209.03 498.66 CURVE SMOOTH",
"203.3 518.88 OFFCURVE",
"189.95 529 OFFCURVE",
"169 529 CURVE SMOOTH",
"164.32 528.88 OFFCURVE",
"159.46 527.99 OFFCURVE",
"154.42 526.32 CURVE SMOOTH",
"136.14 519.31 OFFCURVE",
"127 505.21 OFFCURVE",
"127 484 CURVE SMOOTH",
"127.12 478.38 OFFCURVE",
"128.18 472.64 OFFCURVE",
"130.19 466.78 CURVE SMOOTH",
"137.37 448.26 OFFCURVE",
"150.3 439 OFFCURVE",
"169 439 CURVE SMOOTH"
);
},
{
closed = 1;
nodes = (
"217.91 313.04 OFFCURVE",
"217.18 318.23 OFFCURVE",
"215.8 323.56 CURVE SMOOTH",
"209.81 343.85 OFFCURVE",
"196.88 354 OFFCURVE",
"177 354 CURVE SMOOTH",
"171.87 354 OFFCURVE",
"166.97 353.1 OFFCURVE",
"162.32 351.31 CURVE SMOOTH",
"144.11 344.28 OFFCURVE",
"135 329.85 OFFCURVE",
"135 308 CURVE SMOOTH",
"135.12 302.74 OFFCURVE",
"136.09 297.28 OFFCURVE",
"137.92 291.62 CURVE SMOOTH",
"144.9 272.54 OFFCURVE",
"157.93 263 OFFCURVE",
"177 263 CURVE SMOOTH",
"182 263.13 OFFCURVE",
"187.09 264.14 OFFCURVE",
"192.26 266.03 CURVE SMOOTH",
"209.42 273.29 OFFCURVE",
"218 287.28 OFFCURVE",
"218 308 CURVE SMOOTH"
);
}
);
vertWidth = 1000;
width = 769;
}
);
note = u1B19B;
unicode = 1B19B;
},
{
glyphname = u1B19C;
layers = (
{
hints = (
{
place = "{229, 54}";
type = Stem;
},
{
place = "{473, 54}";
type = Stem;
},
{
place = "{486, 52}";
type = Stem;
}
);
layerId = "A026023B-92C1-4D03-AC7E-471A27A73077";
paths = (
{
closed = 1;
nodes = (
"473 1001 LINE",
"470.81 758.53 OFFCURVE",
"435.81 554.86 OFFCURVE",
"368 390 CURVE",
"211 758 LINE",
"158 737 LINE",
"340 316 LINE",
"390 312 LINE",
"479.04 494.44 OFFCURVE",
"524.7 724.44 OFFCURVE",
"527 1002 CURVE"
);
},
{
closed = 1;
nodes = (
"605 530 LINE",
"526.21 441.74 OFFCURVE",
"486.55 346.74 OFFCURVE",
"486 245 CURVE SMOOTH",
"486.25 151.11 OFFCURVE",
"519.59 63.78 OFFCURVE",
"586 -17 CURVE",
"627 15 LINE",
"568.18 87.15 OFFCURVE",
"538.51 164.15 OFFCURVE",
"538 246 CURVE SMOOTH",
"538.29 333.04 OFFCURVE",
"573.63 414.04 OFFCURVE",
"644 489 CURVE"
);
},
{
closed = 1;
nodes = (
"123 395 LINE",
"193.07 318.72 OFFCURVE",
"228.4 238.39 OFFCURVE",
"229 154 CURVE SMOOTH",
"228.71 73.36 OFFCURVE",
"194.71 -4.64 OFFCURVE",
"127 -80 CURVE",
"169 -120 LINE",
"244.45 -39.12 OFFCURVE",
"282.45 51.54 OFFCURVE",
"283 152 CURVE SMOOTH",
"282.7 254.96 OFFCURVE",
"242.37 348.96 OFFCURVE",
"162 434 CURVE"
);
}
);
vertWidth = 1000;
width = 769;
}
);
note = u1B19C;
unicode = 1B19C;
},
{
glyphname = u1B19D;
layers = (
{
hints = (
{
place = "{386, 54}";
type = Stem;
}
);
layerId = "A026023B-92C1-4D03-AC7E-471A27A73077";
paths = (
{
closed = 1;
nodes = (
"667 315 LINE",
"589.64 443.39 OFFCURVE",
"496.97 558.39 OFFCURVE",
"389 660 CURVE",
"419.96 758.36 OFFCURVE",
"436.96 871.36 OFFCURVE",
"440 999 CURVE",
"386 1000 LINE",
"382.57 876.27 OFFCURVE",
"366.07 767.99 OFFCURVE",
"336.5 675.14 CURVE SMOOTH",
"295.08 546.12 OFFCURVE",
"219.92 432.08 OFFCURVE",
"111 333 CURVE",
"144 292 LINE",
"182.73 325.43 OFFCURVE",
"216.4 359.1 OFFCURVE",
"245 393 CURVE",
"286.17 348.79 OFFCURVE",
"325.84 299.46 OFFCURVE",
"364 245 CURVE",
"288.26 120 OFFCURVE",
"198.26 12.33 OFFCURVE",
"94 -78 CURVE",
"128 -120 LINE",
"234.02 -28.37 OFFCURVE",
"324.02 76.29 OFFCURVE",
"398 194 CURVE",
"456.81 102.6 OFFCURVE",
"504.48 8.93 OFFCURVE",
"541 -87 CURVE",
"592 -68 LINE",
"550.67 40.37 OFFCURVE",
"496.34 144.7 OFFCURVE",
"429 245 CURVE",
"462.55 304.31 OFFCURVE",
"492.88 368.98 OFFCURVE",
"520 439 CURVE",
"554.62 394.26 OFFCURVE",
"588.62 342.93 OFFCURVE",
"622 285 CURVE"
);
},
{
closed = 1;
nodes = (
"363.41 336.34 OFFCURVE",
"325.41 383.67 OFFCURVE",
"279 437 CURVE",
"314.56 486.56 OFFCURVE",
"344.89 543.22 OFFCURVE",
"370 607 CURVE",
"413.74 564.27 OFFCURVE",
"451.41 523.94 OFFCURVE",
"483 486 CURVE",
"455.66 417.26 OFFCURVE",
"425.66 353.6 OFFCURVE",
"393 295 CURVE"
);
}
);
vertWidth = 1000;
width = 769;
}
);
note = u1B19D;
unicode = 1B19D;
},
{
glyphname = u1B19E;
layers = (
{
hints = (
{
place = "{340, 55}";
type = Stem;
},
{
place = "{510, 51}";
type = Stem;
}
);
layerId = "A026023B-92C1-4D03-AC7E-471A27A73077";
paths = (
{
closed = 1;
nodes = (
"596 186 LINE",
"532.45 109.3 OFFCURVE",
"461.12 37.96 OFFCURVE",
"382 -28 CURVE",
"391.53 57 OFFCURVE",
"395.86 140.34 OFFCURVE",
"395 222 CURVE",
"452.06 277.41 OFFCURVE",
"510.4 343.41 OFFCURVE",
"570 420 CURVE",
"530 456 LINE",
"488.31 400.5 OFFCURVE",
"442.97 347.17 OFFCURVE",
"394 296 CURVE",
"390.96 367.22 OFFCURVE",
"384.96 440.89 OFFCURVE",
"376 517 CURVE",
"471.19 645.21 OFFCURVE",
"532.86 803.54 OFFCURVE",
"561 992 CURVE",
"510 1000 LINE",
"500.64 932.7 OFFCURVE",
"486.55 869.58 OFFCURVE",
"467.73 810.64 CURVE SMOOTH",
"409.71 630.15 OFFCURVE",
"298.47 479.27 OFFCURVE",
"134 358 CURVE",
"163 314 LINE",
"225.43 356.74 OFFCURVE",
"280.77 405.07 OFFCURVE",
"329 459 CURVE",
"335.95 384.26 OFFCURVE",
"339.95 312.6 OFFCURVE",
"341 244 CURVE",
"282.03 189.46 OFFCURVE",
"225.7 143.46 OFFCURVE",
"172 106 CURVE",
"198 60 LINE",
"248.85 94.64 OFFCURVE",
"296.18 131.31 OFFCURVE",
"340 170 CURVE",
"337.94 77.45 OFFCURVE",
"329.61 -9.55 OFFCURVE",
"315 -91 CURVE",
"356 -120 LINE",
"456.72 -42.3 OFFCURVE",
"550.06 47.03 OFFCURVE",
"636 148 CURVE"
);
}
);
vertWidth = 1000;
width = 769;
}
);
note = u1B19E;
unicode = 1B19E;
},
{
glyphname = u1B19F;
layers = (
{
hints = (
{
place = "{175, 57}";
type = Stem;
},
{
place = "{479, 56}";
type = Stem;
}
);
layerId = "A026023B-92C1-4D03-AC7E-471A27A73077";
paths = (
{
closed = 1;
nodes = (
"527.13 283.72 OFFCURVE",
"534.8 337.06 OFFCURVE",
"535 397 CURVE SMOOTH",
"534.91 465.94 OFFCURVE",
"521.58 544.28 OFFCURVE",
"495 632 CURVE",
"540.61 748.25 OFFCURVE",
"571.27 868.58 OFFCURVE",
"587 993 CURVE",
"533 1000 LINE",
"529.67 977.08 OFFCURVE",
"525.93 954.31 OFFCURVE",
"521.81 931.69 CURVE SMOOTH",
"479.89 703.39 OFFCURVE",
"392.96 510.16 OFFCURVE",
"261 352 CURVE",
"261 348 LINE",
"328.86 306.03 OFFCURVE",
"389.19 263.7 OFFCURVE",
"442 221 CURVE",
"397.73 122.83 OFFCURVE",
"304.06 25.83 OFFCURVE",
"161 -70 CURVE",
"193 -120 LINE",
"209.17 -109.07 OFFCURVE",
"224.92 -98.1 OFFCURVE",
"240.25 -87.1 CURVE SMOOTH",
"365.21 2.81 OFFCURVE",
"448.46 91.84 OFFCURVE",
"490 180 CURVE",
"552.83 123.33 OFFCURVE",
"611.5 58.99 OFFCURVE",
"666 -13 CURVE",
"710 25 LINE",
"647.83 105.7 OFFCURVE",
"581.83 176.36 OFFCURVE",
"512 237 CURVE"
);
},
{
closed = 1;
nodes = (
"387.26 419.17 OFFCURVE",
"426.26 482.83 OFFCURVE",
"460 552 CURVE",
"472.49 500.87 OFFCURVE",
"478.82 453.21 OFFCURVE",
"479 409 CURVE SMOOTH",
"478.92 362.68 OFFCURVE",
"473.25 319.01 OFFCURVE",
"462 278 CURVE",
"421.24 309.9 OFFCURVE",
"381.58 337.56 OFFCURVE",
"343 361 CURVE"
);
},
{
closed = 1;
nodes = (
"185 53 LINE",
"215.99 109.75 OFFCURVE",
"231.66 174.08 OFFCURVE",
"232 246 CURVE SMOOTH",
"231.85 329.82 OFFCURVE",
"211.18 404.49 OFFCURVE",
"170 470 CURVE",
"121 439 LINE",
"156.6 381.11 OFFCURVE",
"174.6 317.11 OFFCURVE",
"175 247 CURVE SMOOTH",
"174.84 187.16 OFFCURVE",
"161.51 131.82 OFFCURVE",
"135 81 CURVE"
);
}
);
vertWidth = 1000;
width = 769;
}
);
note = u1B19F;
unicode = 1B19F;
},
{
glyphname = u1B1A0;
layers = (
{
hints = (
{
place = "{268, 56}";
type = Stem;
},
{
place = "{390, 55}";
type = Stem;
},
{
place = "{606, 55}";
type = Stem;
}
);
layerId = "A026023B-92C1-4D03-AC7E-471A27A73077";
paths = (
{
closed = 1;
nodes = (
"661 357 LINE",
"645.99 555.73 OFFCURVE",
"615.32 735.73 OFFCURVE",
"569 897 CURVE",
"519 896 LINE",
"493.4 769.07 OFFCURVE",
"459.4 628.73 OFFCURVE",
"417 475 CURVE",
"394.49 575.36 OFFCURVE",
"359.49 667.69 OFFCURVE",
"312 752 CURVE",
"321.92 829.78 OFFCURVE",
"325.92 912.44 OFFCURVE",
"324 1000 CURVE",
"268 997 LINE",
"269.83 725.38 OFFCURVE",
"214.83 488.05 OFFCURVE",
"103 285 CURVE",
"152 254 LINE",
"222.56 378.23 OFFCURVE",
"271.23 513.56 OFFCURVE",
"298 660 CURVE",
"359.08 525.92 OFFCURVE",
"389.75 374.26 OFFCURVE",
"390 205 CURVE SMOOTH",
"389.94 94.67 OFFCURVE",
"378.28 -8.66 OFFCURVE",
"355 -105 CURVE",
"413 -120 LINE",
"434.16 -24.38 OFFCURVE",
"444.83 82.62 OFFCURVE",
"445 201 CURVE SMOOTH",
"444.96 248.53 OFFCURVE",
"442.3 297.53 OFFCURVE",
"437 348 CURVE",
"481.42 500.21 OFFCURVE",
"518.42 639.54 OFFCURVE",
"548 766 CURVE",
"579.41 627.35 OFFCURVE",
"598.74 489.69 OFFCURVE",
"606 353 CURVE"
);
}
);
vertWidth = 1000;
width = 769;
}
);
note = u1B1A0;
unicode = 1B1A0;
},
{
glyphname = u1B1A1;
layers = (
{
hints = (
{
place = "{152, 86}";
type = Stem;
},
{
place = "{473, 57}";
type = Stem;
},
{
place = "{603, 55}";
type = Stem;
}
);
layerId = "A026023B-92C1-4D03-AC7E-471A27A73077";
paths = (
{
closed = 1;
nodes = (
"603 309 LINE",
"572.17 174.68 OFFCURVE",
"531.84 57.68 OFFCURVE",
"482 -42 CURVE",
"336 279 LINE",
"444.28 467.07 OFFCURVE",
"508.95 706.4 OFFCURVE",
"530 997 CURVE",
"473 1000 LINE",
"466.6 898.49 OFFCURVE",
"454.98 805.2 OFFCURVE",
"438.15 720.12 CURVE SMOOTH",
"390.3 479.65 OFFCURVE",
"289.92 275.28 OFFCURVE",
"137 107 CURVE",
"177 67 LINE",
"221.2 113.23 OFFCURVE",
"262.2 164.57 OFFCURVE",
"300 221 CURVE",
"455 -119 LINE",
"502 -120 LINE",
"506.44 -112.53 OFFCURVE",
"511.07 -104.38 OFFCURVE",
"515.91 -95.53 CURVE SMOOTH",
"572.31 8.23 OFFCURVE",
"619.68 139.08 OFFCURVE",
"658 297 CURVE"
);
},
{
closed = 1;
nodes = (
"200.7 490.14 OFFCURVE",
"206.39 491.35 OFFCURVE",
"212.09 493.62 CURVE SMOOTH",
"229.37 501.52 OFFCURVE",
"238 515.98 OFFCURVE",
"238 537 CURVE SMOOTH",
"237.92 542.05 OFFCURVE",
"237.24 547.24 OFFCURVE",
"235.96 552.57 CURVE SMOOTH",
"230.04 574.19 OFFCURVE",
"216.38 585 OFFCURVE",
"195 585 CURVE SMOOTH",
"189.69 584.85 OFFCURVE",
"184.22 583.62 OFFCURVE",
"178.58 581.3 CURVE SMOOTH",
"160.86 573.01 OFFCURVE",
"152 558.24 OFFCURVE",
"152 537 CURVE SMOOTH",
"152.14 530.78 OFFCURVE",
"153.5 524.37 OFFCURVE",
"156.06 517.78 CURVE SMOOTH",
"164.09 499.26 OFFCURVE",
"177.07 490 OFFCURVE",
"195 490 CURVE SMOOTH"
);
}
);
vertWidth = 1000;
width = 769;
}
);
note = u1B1A1;
unicode = 1B1A1;
},
{
glyphname = u1B1A2;
layers = (
{
hints = (
{
place = "{476, 55}";
type = Stem;
}
);
layerId = "A026023B-92C1-4D03-AC7E-471A27A73077";
paths = (
{
closed = 1;
nodes = (
"595 435 LINE",
"571.49 360.88 OFFCURVE",
"540.16 280.21 OFFCURVE",
"501 193 CURVE",
"407 349 LINE",
"477.04 531.8 OFFCURVE",
"518.37 748.47 OFFCURVE",
"531 999 CURVE",
"476 1000 LINE",
"463.38 769.88 OFFCURVE",
"427.71 573.54 OFFCURVE",
"369 411 CURVE",
"221 658 LINE",
"174 627 LINE",
"344 345 LINE",
"323.77 296.92 OFFCURVE",
"299.77 246.59 OFFCURVE",
"272 194 CURVE",
"179 386 LINE",
"126 361 LINE",
"358 -116 LINE",
"392 -120 LINE",
"492.78 29.1 OFFCURVE",
"578.78 207.77 OFFCURVE",
"650 416 CURVE"
);
},
{
closed = 1;
nodes = (
"303 129 LINE",
"333.7 184.11 OFFCURVE",
"359.7 236.11 OFFCURVE",
"381 285 CURVE",
"472 133 LINE",
"442.24 72.51 OFFCURVE",
"412.24 16.85 OFFCURVE",
"382 -34 CURVE"
);
}
);
vertWidth = 1000;
width = 769;
}
);
note = u1B1A2;
unicode = 1B1A2;
},
{
glyphname = u1B1A3;
layers = (
{
hints = (
{
horizontal = 1;
place = "{259, 54}";
type = Stem;
},
{
place = "{414, 56}";
type = Stem;
},
{
place = "{465, 53}";
type = Stem;
}
);
layerId = "A026023B-92C1-4D03-AC7E-471A27A73077";
paths = (
{
closed = 1;
nodes = (
"602 694 LINE",
"550.19 640.26 OFFCURVE",
"496.19 592.59 OFFCURVE",
"440 551 CURVE",
"426.43 592.58 OFFCURVE",
"409.43 633.92 OFFCURVE",
"389 675 CURVE",
"468.13 759.92 OFFCURVE",
"526.79 862.92 OFFCURVE",
"565 984 CURVE",
"512 1000 LINE",
"495.72 952.11 OFFCURVE",
"476.79 907.81 OFFCURVE",
"455.2 867.12 CURVE SMOOTH",
"385.73 736.97 OFFCURVE",
"276.33 631.27 OFFCURVE",
"127 550 CURVE",
"153 501 LINE",
"224.73 536.99 OFFCURVE",
"289.06 580.65 OFFCURVE",
"346 632 CURVE",
"365 592 OFFCURVE",
"380 553 OFFCURVE",
"391 515 CURVE",
"327.3 471.4 OFFCURVE",
"254.63 429.4 OFFCURVE",
"173 389 CURVE",
"198 338 LINE",
"272.03 373.01 OFFCURVE",
"341.36 411.68 OFFCURVE",
"406 454 CURVE",
"411.22 422.42 OFFCURVE",
"413.89 393.42 OFFCURVE",
"414 367 CURVE SMOOTH",
"413.84 316.07 OFFCURVE",
"402.18 267.07 OFFCURVE",
"379 220 CURVE",
"329.99 266.67 OFFCURVE",
"270.66 297.67 OFFCURVE",
"201 313 CURVE",
"188 259 LINE",
"248.93 247.14 OFFCURVE",
"302.27 218.14 OFFCURVE",
"348 172 CURVE",
"300.85 107.59 OFFCURVE",
"224.85 50.26 OFFCURVE",
"120 0 CURVE",
"145 -54 LINE",
"250.47 -5.06 OFFCURVE",
"331.13 54.61 OFFCURVE",
"387 125 CURVE",
"433.48 56.92 OFFCURVE",
"459.48 -24.75 OFFCURVE",
"465 -120 CURVE",
"518 -117 LINE",
"512.66 -2.02 OFFCURVE",
"479.99 94.98 OFFCURVE",
"420 174 CURVE",
"452.99 232.35 OFFCURVE",
"469.66 297.02 OFFCURVE",
"470 368 CURVE SMOOTH",
"469.93 408.86 OFFCURVE",
"465.6 449.19 OFFCURVE",
"457 489 CURVE",
"525.62 539.28 OFFCURVE",
"588.29 594.62 OFFCURVE",
"645 655 CURVE"
);
}
);
vertWidth = 1000;
width = 769;
}
);
note = u1B1A3;
unicode = 1B1A3;
},
{
glyphname = u1B1A4;
layers = (
{
layerId = "A026023B-92C1-4D03-AC7E-471A27A73077";
paths = (
{
closed = 1;
nodes = (
"605 647 LINE",
"541.69 569.24 OFFCURVE",
"476.69 497.91 OFFCURVE",
"410 433 CURVE",
"325 607 LINE",
"448.61 724.34 OFFCURVE",
"539.27 847.34 OFFCURVE",
"597 976 CURVE",
"544 1000 LINE",
"484.07 863.68 OFFCURVE",
"387.74 737.01 OFFCURVE",
"255 620 CURVE",
"366 391 LINE",
"289 319 OFFCURVE",
"207 252 OFFCURVE",
"120 190 CURVE",
"151 143 LINE",
"233.89 199.94 OFFCURVE",
"314.56 263.94 OFFCURVE",
"393 335 CURVE",
"467 183 LINE",
"379.99 89.43 OFFCURVE",
"282.33 4.77 OFFCURVE",
"174 -71 CURVE",
"204 -120 LINE",
"323.92 -35.85 OFFCURVE",
"435.25 61.48 OFFCURVE",
"538 172 CURVE",
"438 377 LINE",
"515.42 452.44 OFFCURVE",
"585.76 530.44 OFFCURVE",
"649 611 CURVE"
);
}
);
vertWidth = 1000;
width = 769;
}
);
note = u1B1A4;
unicode = 1B1A4;
},
{
glyphname = u1B1A5;
layers = (
{
hints = (
{
place = "{244, 59}";
type = Stem;
},
{
place = "{513, 56}";
type = Stem;
},
{
place = "{481, 54}";
type = Stem;
},
{
place = "{462, 55}";
type = Stem;
}
);
layerId = "A026023B-92C1-4D03-AC7E-471A27A73077";
paths = (
{
closed = 1;
nodes = (
"597 545 LINE",
"568.61 510.07 OFFCURVE",
"534.94 473.07 OFFCURVE",
"496 434 CURVE",
"474.34 498.7 OFFCURVE",
"442.01 566.7 OFFCURVE",
"399 638 CURVE",
"477.56 731.29 OFFCURVE",
"534.23 847.29 OFFCURVE",
"569 986 CURVE",
"513 1000 LINE",
"497.38 932.25 OFFCURVE",
"475.16 870.1 OFFCURVE",
"446.34 813.56 CURVE SMOOTH",
"386.18 696.38 OFFCURVE",
"286.07 590.52 OFFCURVE",
"146 496 CURVE",
"146 493 LINE",
"210.86 403.23 OFFCURVE",
"243.53 310.57 OFFCURVE",
"244 215 CURVE SMOOTH",
"244 118.88 OFFCURVE",
"212.33 18.22 OFFCURVE",
"149 -87 CURVE",
"201 -120 LINE",
"266.62 -8.63 OFFCURVE",
"300.62 101.03 OFFCURVE",
"303 209 CURVE",
"368.28 252.56 OFFCURVE",
"423.28 293.56 OFFCURVE",
"468 332 CURVE",
"476.54 287.04 OFFCURVE",
"480.88 239.04 OFFCURVE",
"481 188 CURVE SMOOTH",
"480.94 125.77 OFFCURVE",
"474.61 59.44 OFFCURVE",
"462 -11 CURVE",
"517 -22 LINE",
"528.87 42.79 OFFCURVE",
"534.87 111.79 OFFCURVE",
"535 185 CURVE SMOOTH",
"534.93 251.27 OFFCURVE",
"527.59 313.93 OFFCURVE",
"513 373 CURVE",
"554.39 411.65 OFFCURVE",
"596.73 456.65 OFFCURVE",
"640 508 CURVE"
);
},
{
closed = 1;
nodes = (
"290.25 341.78 OFFCURVE",
"265.59 409.78 OFFCURVE",
"225 479 CURVE",
"282.05 521.84 OFFCURVE",
"327.38 560.84 OFFCURVE",
"361 596 CURVE",
"402.76 527.23 OFFCURVE",
"433.09 459.9 OFFCURVE",
"452 394 CURVE",
"406.91 353.79 OFFCURVE",
"355.91 314.12 OFFCURVE",
"299 275 CURVE"
);
}
);
vertWidth = 1000;
width = 769;
}
);
note = u1B1A5;
unicode = 1B1A5;
},
{
glyphname = u1B1A6;
layers = (
{
hints = (
{
place = "{460, 50}";
type = Stem;
},
{
place = "{586, 50}";
type = Stem;
},
{
place = "{421, 50}";
type = Stem;
}
);
layerId = "A026023B-92C1-4D03-AC7E-471A27A73077";
paths = (
{
closed = 1;
nodes = (
"636 173 LINE",
"611.59 260.2 OFFCURVE",
"577.93 347.87 OFFCURVE",
"535 436 CURVE",
"570.82 511.84 OFFCURVE",
"601.48 589.84 OFFCURVE",
"627 670 CURVE",
"578 687 LINE",
"555.88 617.58 OFFCURVE",
"531.54 552.91 OFFCURVE",
"505 493 CURVE",
"473.74 548.77 OFFCURVE",
"443.4 598.11 OFFCURVE",
"414 641 CURVE",
"452.81 741.39 OFFCURVE",
"484.81 858.06 OFFCURVE",
"510 991 CURVE",
"460 1000 LINE",
"436.35 880.8 OFFCURVE",
"408.68 777.8 OFFCURVE",
"377 691 CURVE",
"333.12 748.72 OFFCURVE",
"288.78 800.05 OFFCURVE",
"244 845 CURVE",
"207 810 LINE",
"262.63 751.21 OFFCURVE",
"311.63 692.54 OFFCURVE",
"354 634 CURVE",
"333.94 586.58 OFFCURVE",
"311.94 541.25 OFFCURVE",
"288 498 CURVE",
"257.65 540.75 OFFCURVE",
"218.98 588.41 OFFCURVE",
"172 641 CURVE",
"136 606 LINE",
"185.01 549.48 OFFCURVE",
"226.01 497.48 OFFCURVE",
"259 450 CURVE",
"223.01 392.52 OFFCURVE",
"182.01 336.86 OFFCURVE",
"136 283 CURVE",
"174 247 LINE",
"217.54 294.52 OFFCURVE",
"256.87 345.52 OFFCURVE",
"292 400 CURVE",
"322.75 349.66 OFFCURVE",
"347.75 299.66 OFFCURVE",
"367 250 CURVE",
"326.03 191.26 OFFCURVE",
"281.36 135.26 OFFCURVE",
"233 82 CURVE",
"269 45 LINE",
"313.09 92.24 OFFCURVE",
"352.75 140.24 OFFCURVE",
"388 189 CURVE",
"416.49 94.98 OFFCURVE",
"427.49 -6.68 OFFCURVE",
"421 -116 CURVE",
"471 -120 LINE",
"477.86 8.43 OFFCURVE",
"462.2 128.43 OFFCURVE",
"424 240 CURVE",
"450.92 280.91 OFFCURVE",
"478.25 326.91 OFFCURVE",
"506 378 CURVE",
"539.57 305.64 OFFCURVE",
"566.23 232.64 OFFCURVE",
"586 159 CURVE"
);
},
{
closed = 1;
nodes = (
"379.28 350.2 OFFCURVE",
"352.95 399.86 OFFCURVE",
"322 449 CURVE",
"347.52 492.97 OFFCURVE",
"370.19 537.64 OFFCURVE",
"390 583 CURVE",
"422 535 OFFCURVE",
"451 486 OFFCURVE",
"477 436 CURVE",
"457.98 396.35 OFFCURVE",
"432.65 351.02 OFFCURVE",
"401 300 CURVE"
);
}
);
vertWidth = 1000;
width = 769;
}
);
note = u1B1A6;
unicode = 1B1A6;
},
{
glyphname = u1B1A7;
layers = (
{
hints = (
{
place = "{447, 56}";
type = Stem;
}
);
layerId = "A026023B-92C1-4D03-AC7E-471A27A73077";
paths = (
{
closed = 1;
nodes = (
"588 312 LINE",
"552.5 260.78 OFFCURVE",
"514.83 211.12 OFFCURVE",
"475 163 CURVE",
"417 281 LINE",
"466.67 346.08 OFFCURVE",
"511.34 417.08 OFFCURVE",
"551 494 CURVE",
"503 519 LINE",
"472.93 457.08 OFFCURVE",
"435.59 395.42 OFFCURVE",
"391 334 CURVE",
"324 470 LINE",
"418.35 604.85 OFFCURVE",
"478.01 780.19 OFFCURVE",
"503 996 CURVE",
"447 1000 LINE",
"441.45 937.93 OFFCURVE",
"432.24 879.26 OFFCURVE",
"419.37 823.99 CURVE SMOOTH",
"375.7 638 OFFCURVE",
"282.24 480.01 OFFCURVE",
"139 350 CURVE",
"174 308 LINE",
"216.68 344.68 OFFCURVE",
"254.34 382.68 OFFCURVE",
"287 422 CURVE",
"354 286 LINE",
"311.11 233.26 OFFCURVE",
"263.45 183.59 OFFCURVE",
"211 137 CURVE",
"244 96 LINE",
"289.15 134.94 OFFCURVE",
"334.49 180.94 OFFCURVE",
"380 234 CURVE",
"436 118 LINE",
"377.5 50.97 OFFCURVE",
"311.83 -14.36 OFFCURVE",
"239 -78 CURVE",
"271 -120 LINE",
"404.81 -6.55 OFFCURVE",
"525.47 126.79 OFFCURVE",
"633 280 CURVE"
);
}
);
vertWidth = 1000;
width = 769;
}
);
note = u1B1A7;
unicode = 1B1A7;
},
{
glyphname = u1B1A8;
layers = (
{
hints = (
{
horizontal = 1;
place = "{-24, 86}";
type = Stem;
},
{
horizontal = 1;
place = "{122, 86}";
type = Stem;
},
{
place = "{186, 79}";
type = Stem;
},
{
place = "{395, 55}";
type = Stem;
},
{
place = "{539, 53}";
type = Stem;
},
{
place = "{560, 79}";
type = Stem;
}
);
layerId = "A026023B-92C1-4D03-AC7E-471A27A73077";
paths = (
{
closed = 1;
nodes = (
"565 527 LINE",
"525 478.96 OFFCURVE",
"475.67 431.96 OFFCURVE",
"417 386 CURVE",
"401.46 447.96 OFFCURVE",
"381.79 507.63 OFFCURVE",
"358 565 CURVE",
"480.7 679.06 OFFCURVE",
"558.7 820.73 OFFCURVE",
"592 990 CURVE",
"539 1000 LINE",
"495.02 776.03 OFFCURVE",
"361.02 602.7 OFFCURVE",
"137 480 CURVE",
"163 431 LINE",
"216.63 458.39 OFFCURVE",
"266.96 490.39 OFFCURVE",
"314 527 CURVE",
"337.4 470.28 OFFCURVE",
"355.74 411.61 OFFCURVE",
"369 351 CURVE",
"310.65 310.76 OFFCURVE",
"248.98 275.76 OFFCURVE",
"184 246 CURVE",
"206 196 LINE",
"272.01 225.07 OFFCURVE",
"330.35 256.4 OFFCURVE",
"381 290 CURVE",
"390.24 227.08 OFFCURVE",
"394.9 164.75 OFFCURVE",
"395 103 CURVE SMOOTH",
"394.95 33.96 OFFCURVE",
"389.95 -37.7 OFFCURVE",
"380 -112 CURVE",
"435 -120 LINE",
"444.91 -44.39 OFFCURVE",
"449.91 28.28 OFFCURVE",
"450 98 CURVE SMOOTH",
"449.94 173.09 OFFCURVE",
"443.27 248.75 OFFCURVE",
"430 325 CURVE",
"484.27 365.63 OFFCURVE",
"543.27 420.63 OFFCURVE",
"607 490 CURVE"
);
},
{
closed = 1;
nodes = (
"595.81 207.89 OFFCURVE",
"591.43 207.14 OFFCURVE",
"586.84 205.74 CURVE SMOOTH",
"568.95 199.34 OFFCURVE",
"560 185.76 OFFCURVE",
"560 165 CURVE SMOOTH",
"560.11 159.9 OFFCURVE",
"561.03 154.64 OFFCURVE",
"562.74 149.24 CURVE SMOOTH",
"569.35 131.08 OFFCURVE",
"581.77 122 OFFCURVE",
"600 122 CURVE SMOOTH",
"602.98 122 OFFCURVE",
"605.83 122.25 OFFCURVE",
"608.54 122.75 CURVE SMOOTH",
"628.85 126.49 OFFCURVE",
"639 140.57 OFFCURVE",
"639 165 CURVE",
"636.53 189.14 OFFCURVE",
"623.53 203.48 OFFCURVE",
"600 208 CURVE"
);
},
{
closed = 1;
nodes = (
"220.83 61.89 OFFCURVE",
"216.48 61.14 OFFCURVE",
"211.95 59.74 CURVE SMOOTH",
"194.65 53.44 OFFCURVE",
"186 39.87 OFFCURVE",
"186 19 CURVE SMOOTH",
"186.09 14.24 OFFCURVE",
"186.8 9.35 OFFCURVE",
"188.12 4.32 CURVE SMOOTH",
"193.88 -14.56 OFFCURVE",
"206.18 -24 OFFCURVE",
"225 -24 CURVE SMOOTH",
"228.19 -23.94 OFFCURVE",
"231.58 -23.58 OFFCURVE",
"235.18 -22.93 CURVE SMOOTH",
"255.06 -18.51 OFFCURVE",
"265 -4.53 OFFCURVE",
"265 19 CURVE SMOOTH",
"264.96 21.54 OFFCURVE",
"264.77 24.35 OFFCURVE",
"264.44 27.42 CURVE SMOOTH",
"261.23 50.47 OFFCURVE",
"248.09 62 OFFCURVE",
"225 62 CURVE SMOOTH"
);
}
);
vertWidth = 1000;
width = 769;
}
);
note = u1B1A8;
unicode = 1B1A8;
},
{
glyphname = u1B1A9;
layers = (
{
hints = (
{
place = "{471, 48}";
type = Stem;
}
);
layerId = "A026023B-92C1-4D03-AC7E-471A27A73077";
paths = (
{
closed = 1;
nodes = (
"588 446 LINE",
"544.49 373.84 OFFCURVE",
"485.83 309.5 OFFCURVE",
"412 253 CURVE",
"350 379 LINE",
"458.68 461.15 OFFCURVE",
"513.35 568.15 OFFCURVE",
"514 700 CURVE SMOOTH",
"513.94 713.41 OFFCURVE",
"512.61 726.07 OFFCURVE",
"510 738 CURVE",
"565.9 808.58 OFFCURVE",
"611.24 889.92 OFFCURVE",
"646 982 CURVE",
"597 1000 LINE",
"587.13 972.66 OFFCURVE",
"575.98 946.02 OFFCURVE",
"563.57 920.08 CURVE SMOOTH",
"481.77 750.33 OFFCURVE",
"341.25 621.63 OFFCURVE",
"142 534 CURVE",
"162 485 LINE",
"286.19 538.66 OFFCURVE",
"387.19 606 OFFCURVE",
"465 687 CURVE",
"460.65 527.22 OFFCURVE",
"348.31 405.56 OFFCURVE",
"128 322 CURVE",
"147 271 LINE",
"208.66 294.71 OFFCURVE",
"262.33 321.04 OFFCURVE",
"308 350 CURVE",
"371 224 LINE",
"306.02 181.14 OFFCURVE",
"235.02 146.14 OFFCURVE",
"158 119 CURVE",
"176 67 LINE",
"289.19 106.81 OFFCURVE",
"387.52 161.47 OFFCURVE",
"471 231 CURVE",
"471 229 LINE SMOOTH",
"470.78 182.86 OFFCURVE",
"456.37 137.13 OFFCURVE",
"427.79 91.82 CURVE SMOOTH",
"383.58 22.82 OFFCURVE",
"317.65 -31.12 OFFCURVE",
"230 -70 CURVE",
"251 -120 LINE",
"303.84 -96.7 OFFCURVE",
"351.1 -66.33 OFFCURVE",
"392.78 -28.9 CURVE SMOOTH",
"476.93 47.35 OFFCURVE",
"519 133.65 OFFCURVE",
"519 230 CURVE SMOOTH",
"518.97 239.81 OFFCURVE",
"518.3 254.15 OFFCURVE",
"517 273 CURVE",
"561.11 317.26 OFFCURVE",
"599.11 365.93 OFFCURVE",
"631 419 CURVE"
);
}
);
vertWidth = 1000;
width = 769;
}
);
note = u1B1A9;
unicode = 1B1A9;
},
{
glyphname = u1B1AA;
layers = (
{
hints = (
{
horizontal = 1;
place = "{22, 58}";
type = Stem;
},
{
horizontal = 1;
place = "{248, 58}";
type = Stem;
},
{
place = "{101, 60}";
type = Stem;
},
{
place = "{264, 60}";
type = Stem;
},
{
place = "{523, 53}";
type = Stem;
},
{
place = "{618, 54}";
type = Stem;
},
{
place = "{471, 57}";
type = Stem;
}
);
layerId = "A026023B-92C1-4D03-AC7E-471A27A73077";
paths = (
{
closed = 1;
nodes = (
"609.98 778.01 OFFCURVE",
"650.31 876.68 OFFCURVE",
"672 990 CURVE",
"618 1000 LINE",
"575.33 782.98 OFFCURVE",
"454.66 622.31 OFFCURVE",
"256 518 CURVE",
"279 468 LINE",
"371.45 511.98 OFFCURVE",
"448.79 569.98 OFFCURVE",
"511 642 CURVE",
"518.81 613.4 OFFCURVE",
"522.81 586.07 OFFCURVE",
"523 560 CURVE SMOOTH",
"522.45 450.04 OFFCURVE",
"445.45 353.04 OFFCURVE",
"292 269 CURVE",
"271.34 293.03 OFFCURVE",
"245.34 305.36 OFFCURVE",
"214 306 CURVE SMOOTH",
"195.64 306 OFFCURVE",
"178.43 301.38 OFFCURVE",
"162.36 292.14 CURVE SMOOTH",
"121.45 268.62 OFFCURVE",
"101 226.91 OFFCURVE",
"101 167 CURVE SMOOTH",
"101.17 132.24 OFFCURVE",
"108.32 102.33 OFFCURVE",
"122.44 77.28 CURVE SMOOTH",
"143.91 40.43 OFFCURVE",
"174.43 22 OFFCURVE",
"214 22 CURVE SMOOTH",
"231.18 22.19 OFFCURVE",
"247.75 26.97 OFFCURVE",
"263.7 36.32 CURVE SMOOTH",
"303.9 60.91 OFFCURVE",
"324 104.48 OFFCURVE",
"324 167 CURVE SMOOTH",
"324 185 OFFCURVE",
"322 201 OFFCURVE",
"318 215 CURVE",
"380.72 249.03 OFFCURVE",
"431.38 284.7 OFFCURVE",
"470 322 CURVE",
"470.64 317.49 OFFCURVE",
"471.3 312.61 OFFCURVE",
"471.99 307.36 CURVE SMOOTH",
"490.65 163.86 OFFCURVE",
"490.32 23.41 OFFCURVE",
"471 -114 CURVE",
"528 -120 LINE",
"546.17 40.31 OFFCURVE",
"542.84 205.97 OFFCURVE",
"518 377 CURVE",
"556.25 430.71 OFFCURVE",
"575.59 492.04 OFFCURVE",
"576 561 CURVE SMOOTH",
"575.88 603.29 OFFCURVE",
"567.55 647.63 OFFCURVE",
"551 694 CURVE"
);
},
{
closed = 1;
nodes = (
"206.73 80.21 OFFCURVE",
"199.54 82.47 OFFCURVE",
"192.41 86.8 CURVE SMOOTH",
"171.47 100.9 OFFCURVE",
"161 126.3 OFFCURVE",
"161 163 CURVE SMOOTH",
"161.11 177.13 OFFCURVE",
"163.35 190.85 OFFCURVE",
"167.7 204.15 CURVE SMOOTH",
"177.79 233.39 OFFCURVE",
"193.23 248 OFFCURVE",
"214 248 CURVE SMOOTH",
"221.07 247.72 OFFCURVE",
"228.23 244.73 OFFCURVE",
"235.49 239.05 CURVE SMOOTH",
"254.5 222.58 OFFCURVE",
"264 197.23 OFFCURVE",
"264 163 CURVE SMOOTH",
"263.88 147.94 OFFCURVE",
"261.34 133.51 OFFCURVE",
"256.39 119.72 CURVE SMOOTH",
"246.37 93.24 OFFCURVE",
"232.24 80 OFFCURVE",
"214 80 CURVE SMOOTH"
);
}
);
vertWidth = 1000;
width = 769;
}
);
note = u1B1AA;
unicode = 1B1AA;
},
{
glyphname = u1B1AB;
layers = (
{
hints = (
{
place = "{195, 58}";
type = Stem;
},
{
place = "{333, 57}";
type = Stem;
},
{
place = "{570, 56}";
type = Stem;
}
);
layerId = "A026023B-92C1-4D03-AC7E-471A27A73077";
paths = (
{
closed = 1;
nodes = (
"631 192 LINE",
"573.35 318.4 OFFCURVE",
"506.02 432.07 OFFCURVE",
"429 533 CURVE",
"424.03 591.13 OFFCURVE",
"415.03 650.46 OFFCURVE",
"402 711 CURVE",
"448.02 760.51 OFFCURVE",
"482.35 800.85 OFFCURVE",
"505 832 CURVE",
"538.13 716.85 OFFCURVE",
"559.8 590.18 OFFCURVE",
"570 452 CURVE",
"626 456 LINE",
"612.7 619.87 OFFCURVE",
"583.03 774.54 OFFCURVE",
"537 920 CURVE",
"500 923 LINE",
"476.34 886.16 OFFCURVE",
"438.34 838.83 OFFCURVE",
"386 781 CURVE",
"371.96 838.66 OFFCURVE",
"350.63 911.66 OFFCURVE",
"322 1000 CURVE",
"267 980 LINE",
"299.38 886.02 OFFCURVE",
"323.71 803.02 OFFCURVE",
"340 731 CURVE",
"257.54 644.04 OFFCURVE",
"194.54 584.38 OFFCURVE",
"151 552 CURVE",
"152.65 547.74 OFFCURVE",
"154.41 543.14 OFFCURVE",
"156.27 538.22 CURVE SMOOTH",
"234.53 329.93 OFFCURVE",
"247.44 115.19 OFFCURVE",
"195 -106 CURVE",
"253 -120 LINE",
"257.59 -99 OFFCURVE",
"261.74 -77.93 OFFCURVE",
"265.45 -56.79 CURVE SMOOTH",
"300.08 142.3 OFFCURVE",
"284.93 339.23 OFFCURVE",
"220 534 CURVE",
"263.71 572.15 OFFCURVE",
"308.37 614.49 OFFCURVE",
"354 661 CURVE",
"388.24 478.05 OFFCURVE",
"381.24 293.72 OFFCURVE",
"333 108 CURVE",
"390 91 LINE",
"419.48 213.15 OFFCURVE",
"433.81 327.82 OFFCURVE",
"433 435 CURVE",
"488.66 353.36 OFFCURVE",
"537.66 264.69 OFFCURVE",
"580 169 CURVE"
);
}
);
vertWidth = 1000;
width = 769;
}
);
note = u1B1AB;
unicode = 1B1AB;
},
{
glyphname = u1B1AC;
layers = (
{
hints = (
{
place = "{478, 55}";
type = Stem;
}
);
layerId = "A026023B-92C1-4D03-AC7E-471A27A73077";
paths = (
{
closed = 1;
nodes = (
"669 101 LINE",
"630.55 164.56 OFFCURVE",
"580.89 230.56 OFFCURVE",
"520 299 CURVE",
"528.54 345.19 OFFCURVE",
"532.88 388.86 OFFCURVE",
"533 430 CURVE SMOOTH",
"532.89 517.47 OFFCURVE",
"516.22 605.81 OFFCURVE",
"483 695 CURVE",
"528.71 779.8 OFFCURVE",
"566.05 876.8 OFFCURVE",
"595 986 CURVE",
"542 1000 LINE",
"536.85 981.27 OFFCURVE",
"531.32 962.57 OFFCURVE",
"525.39 943.89 CURVE SMOOTH",
"470.96 773.24 OFFCURVE",
"379.83 617.61 OFFCURVE",
"252 477 CURVE",
"252 473 LINE",
"323.53 420.48 OFFCURVE",
"392.53 357.48 OFFCURVE",
"459 284 CURVE",
"441.52 218.49 OFFCURVE",
"411.18 154.15 OFFCURVE",
"368 91 CURVE",
"345.71 114.14 OFFCURVE",
"319.37 139.8 OFFCURVE",
"289 168 CURVE",
"316 208 OFFCURVE",
"342 252 OFFCURVE",
"367 300 CURVE",
"318 328 LINE",
"292.01 278.34 OFFCURVE",
"268.01 237.34 OFFCURVE",
"246 205 CURVE",
"198.6 243.12 OFFCURVE",
"155.27 275.45 OFFCURVE",
"116 302 CURVE",
"87 258 LINE",
"133.87 224.17 OFFCURVE",
"176.21 191.17 OFFCURVE",
"214 159 CURVE",
"179.37 112.63 OFFCURVE",
"140.7 69.97 OFFCURVE",
"98 31 CURVE",
"135 -10 LINE",
"177 27.46 OFFCURVE",
"217.34 71.12 OFFCURVE",
"256 121 CURVE",
"278.31 101.11 OFFCURVE",
"304.31 75.78 OFFCURVE",
"334 45 CURVE",
"303.81 6.72 OFFCURVE",
"265.14 -33.95 OFFCURVE",
"218 -77 CURVE",
"255 -120 LINE",
"378.49 -6.41 OFFCURVE",
"460.82 111.93 OFFCURVE",
"502 235 CURVE",
"550.9 176.65 OFFCURVE",
"590.23 122.31 OFFCURVE",
"620 72 CURVE"
);
},
{
closed = 1;
nodes = (
"374.19 530.17 OFFCURVE",
"412.53 580.5 OFFCURVE",
"446 632 CURVE",
"467.08 574.25 OFFCURVE",
"477.74 509.25 OFFCURVE",
"478 437 CURVE SMOOTH",
"477.96 408.05 OFFCURVE",
"475.96 379.38 OFFCURVE",
"472 351 CURVE",
"424.02 400.89 OFFCURVE",
"377.02 444.22 OFFCURVE",
"331 481 CURVE"
);
}
);
vertWidth = 1000;
width = 769;
}
);
note = u1B1AC;
unicode = 1B1AC;
},
{
glyphname = u1B1AD;
layers = (
{
hints = (
{
place = "{353, 58}";
type = Stem;
}
);
layerId = "A026023B-92C1-4D03-AC7E-471A27A73077";
paths = (
{
closed = 1;
nodes = (
"401.3 851.78 OFFCURVE",
"408.97 922.78 OFFCURVE",
"411 998 CURVE",
"353 1000 LINE",
"351.71 919.79 OFFCURVE",
"342.9 846.04 OFFCURVE",
"326.56 778.75 CURVE SMOOTH",
"293.64 644.57 OFFCURVE",
"222.46 521.32 OFFCURVE",
"113 409 CURVE",
"154 366 LINE",
"258.64 470.87 OFFCURVE",
"330.97 588.87 OFFCURVE",
"371 720 CURVE",
"460.37 624.55 OFFCURVE",
"542.04 519.22 OFFCURVE",
"616 404 CURVE",
"663 436 LINE",
"582.54 560.47 OFFCURVE",
"490.87 676.8 OFFCURVE",
"388 785 CURVE"
);
},
{
closed = 1;
nodes = (
"391 581 LINE",
"389.47 577.96 OFFCURVE",
"387.77 574.61 OFFCURVE",
"385.9 570.95 CURVE SMOOTH",
"330.75 463.19 OFFCURVE",
"264.12 367.88 OFFCURVE",
"186 285 CURVE",
"226 245 LINE",
"231.57 250.95 OFFCURVE",
"237.33 257.2 OFFCURVE",
"243.28 263.73 CURVE SMOOTH",
"316.5 344.54 OFFCURVE",
"381.74 441.29 OFFCURVE",
"439 554 CURVE"
);
},
{
closed = 1;
nodes = (
"431 408 LINE",
"373.42 296.42 OFFCURVE",
"300.42 198.75 OFFCURVE",
"212 115 CURVE",
"251 71 LINE",
"336.18 154.46 OFFCURVE",
"413.18 257.12 OFFCURVE",
"482 379 CURVE"
);
},
{
closed = 1;
nodes = (
"263 -120 LINE",
"357.05 -31.05 OFFCURVE",
"445.72 79.62 OFFCURVE",
"529 212 CURVE",
"480 245 LINE",
"476.09 238.67 OFFCURVE",
"472.02 232.12 OFFCURVE",
"467.76 225.35 CURVE SMOOTH",
"397.73 114.14 OFFCURVE",
"316.48 14.02 OFFCURVE",
"224 -75 CURVE"
);
}
);
vertWidth = 1000;
width = 769;
}
);
note = u1B1AD;
unicode = 1B1AD;
},
{
glyphname = u1B1AE;
layers = (
{
hints = (
{
place = "{375, 55}";
type = Stem;
}
);
layerId = "A026023B-92C1-4D03-AC7E-471A27A73077";
paths = (
{
closed = 1;
nodes = (
"420.04 853.87 OFFCURVE",
"428.04 927.53 OFFCURVE",
"430 999 CURVE",
"375 1000 LINE",
"373.44 946.1 OFFCURVE",
"368.63 891.5 OFFCURVE",
"360.56 836.18 CURVE SMOOTH",
"338.42 685.88 OFFCURVE",
"300.23 563.48 OFFCURVE",
"246 469 CURVE",
"131 703 LINE",
"82 678 LINE",
"223 396 LINE",
"260 391 LINE",
"316.35 474.21 OFFCURVE",
"360.68 582.54 OFFCURVE",
"393 716 CURVE",
"470.08 628.4 OFFCURVE",
"544.08 526.4 OFFCURVE",
"615 410 CURVE",
"664 439 LINE",
"587.59 561.12 OFFCURVE",
"501.59 674.12 OFFCURVE",
"406 778 CURVE"
);
},
{
closed = 1;
nodes = (
"415 488 LINE",
"372.34 371.37 OFFCURVE",
"310 263.37 OFFCURVE",
"228 164 CURVE",
"268 128 LINE",
"349.85 225.32 OFFCURVE",
"415.18 338.32 OFFCURVE",
"464 467 CURVE"
);
},
{
closed = 1;
nodes = (
"269 -120 LINE",
"280.96 -106.54 OFFCURVE",
"293.29 -91.98 OFFCURVE",
"305.98 -76.33 CURVE SMOOTH",
"400.96 41.31 OFFCURVE",
"481.97 175.42 OFFCURVE",
"549 326 CURVE",
"499 349 LINE",
"489.94 327.46 OFFCURVE",
"479.79 305.06 OFFCURVE",
"468.55 281.81 CURVE SMOOTH",
"400.78 142.15 OFFCURVE",
"320.6 20.88 OFFCURVE",
"228 -82 CURVE"
);
}
);
vertWidth = 1000;
width = 769;
}
);
note = u1B1AE;
unicode = 1B1AE;
},
{
glyphname = u1B1AF;
layers = (
{
hints = (
{
horizontal = 1;
place = "{722, 91}";
type = Stem;
},
{
place = "{135, 84}";
type = Stem;
},
{
place = "{314, 57}";
type = Stem;
},
{
place = "{581, 55}";
type = Stem;
},
{
place = "{361, 85}";
type = Stem;
}
);
layerId = "A026023B-92C1-4D03-AC7E-471A27A73077";
paths = (
{
closed = 1;
nodes = (
"581 1000 LINE",
"574.17 894.17 OFFCURVE",
"561.44 803.77 OFFCURVE",
"542.8 728.81 CURVE SMOOTH",
"511.11 602.33 OFFCURVE",
"452.17 491.73 OFFCURVE",
"366 397 CURVE",
"350.55 522.59 OFFCURVE",
"307.55 644.59 OFFCURVE",
"237 763 CURVE",
"189 731 LINE",
"199.14 713.89 OFFCURVE",
"208.95 696.08 OFFCURVE",
"218.43 677.57 CURVE SMOOTH",
"282.14 552.51 OFFCURVE",
"314 431.65 OFFCURVE",
"314 315 CURVE SMOOTH",
"313.99 307.97 OFFCURVE",
"313.92 300.72 OFFCURVE",
"313.77 293.27 CURVE SMOOTH",
"310.81 153.94 OFFCURVE",
"271.88 27.51 OFFCURVE",
"197 -86 CURVE",
"247 -120 LINE",
"260.53 -98.57 OFFCURVE",
"273.08 -76.83 OFFCURVE",
"284.65 -54.8 CURVE SMOOTH",
"342.22 55.52 OFFCURVE",
"371 179.12 OFFCURVE",
"371 316 CURVE SMOOTH",
"371 317 LINE",
"413.96 360.07 OFFCURVE",
"451.29 404.73 OFFCURVE",
"483 451 CURVE",
"581 81 LINE",
"636 94 LINE",
"524 520 LINE",
"524.66 521.27 OFFCURVE",
"525.48 522.87 OFFCURVE",
"526.47 524.8 CURVE SMOOTH",
"585.55 640.5 OFFCURVE",
"622.06 797.9 OFFCURVE",
"636 997 CURVE"
);
},
{
closed = 1;
nodes = (
"408.76 722.14 OFFCURVE",
"414.54 723.35 OFFCURVE",
"420.34 725.64 CURVE SMOOTH",
"437.45 733.34 OFFCURVE",
"446 747.12 OFFCURVE",
"446 767 CURVE SMOOTH",
"445.92 771.67 OFFCURVE",
"445.29 776.5 OFFCURVE",
"444.11 781.47 CURVE SMOOTH",
"438.34 802.49 OFFCURVE",
"424.64 813 OFFCURVE",
"403 813 CURVE SMOOTH",
"398.25 812.88 OFFCURVE",
"393.35 811.99 OFFCURVE",
"388.32 810.31 CURVE SMOOTH",
"370.11 803.28 OFFCURVE",
"361 788.85 OFFCURVE",
"361 767 CURVE SMOOTH",
"361.1 762.06 OFFCURVE",
"361.91 756.94 OFFCURVE",
"363.42 751.64 CURVE SMOOTH",
"369.87 731.88 OFFCURVE",
"383.07 722 OFFCURVE",
"403 722 CURVE SMOOTH"
);
},
{
closed = 1;
nodes = (
"218.92 304.69 OFFCURVE",
"218.32 309.51 OFFCURVE",
"217.21 314.47 CURVE SMOOTH",
"211.73 335.49 OFFCURVE",
"198.32 346 OFFCURVE",
"177 346 CURVE SMOOTH",
"171.87 346 OFFCURVE",
"166.97 345.1 OFFCURVE",
"162.32 343.31 CURVE SMOOTH",
"144.11 336.28 OFFCURVE",
"135 321.85 OFFCURVE",
"135 300 CURVE SMOOTH",
"135.1 295.06 OFFCURVE",
"135.91 289.94 OFFCURVE",
"137.42 284.64 CURVE SMOOTH",
"143.87 264.88 OFFCURVE",
"157.07 255 OFFCURVE",
"177 255 CURVE SMOOTH",
"182.21 255.12 OFFCURVE",
"187.47 256.13 OFFCURVE",
"192.79 258.03 CURVE SMOOTH",
"210.27 265.22 OFFCURVE",
"219 279.21 OFFCURVE",
"219 300 CURVE SMOOTH"
);
}
);
vertWidth = 1000;
width = 769;
}
);
note = u1B1AF;
unicode = 1B1AF;
},
{
glyphname = u1B1B0;
layers = (
{
hints = (
{
place = "{150, 81}";
type = Stem;
},
{
place = "{486, 53}";
type = Stem;
},
{
place = "{567, 81}";
type = Stem;
},
{
horizontal = 1;
place = "{593, 89}";
type = Stem;
},
{
horizontal = 1;
place = "{505, 88}";
type = Stem;
}
);
layerId = "A026023B-92C1-4D03-AC7E-471A27A73077";
paths = (
{
closed = 1;
nodes = (
"486 1000 LINE",
"476.85 867.42 OFFCURVE",
"449.19 747.75 OFFCURVE",
"403 641 CURVE",
"350.41 715.13 OFFCURVE",
"293.75 784.13 OFFCURVE",
"233 848 CURVE",
"195 810 LINE",
"259.21 741.04 OFFCURVE",
"319.21 665.37 OFFCURVE",
"375 583 CURVE",
"319.77 475.86 OFFCURVE",
"240.77 376.19 OFFCURVE",
"138 284 CURVE",
"173 242 LINE",
"272 326 OFFCURVE",
"351 422 OFFCURVE",
"410 530 CURVE",
"455.21 457.35 OFFCURVE",
"495.88 378.69 OFFCURVE",
"532 294 CURVE",
"583 315 LINE",
"543.34 409.8 OFFCURVE",
"495.01 500.8 OFFCURVE",
"438 588 CURVE",
"493.9 708.94 OFFCURVE",
"527.56 845.27 OFFCURVE",
"539 997 CURVE"
);
},
{
closed = 1;
nodes = (
"603.05 681.88 OFFCURVE",
"598 680.91 OFFCURVE",
"592.84 679.09 CURVE SMOOTH",
"575.61 672.08 OFFCURVE",
"567 658.38 OFFCURVE",
"567 638 CURVE SMOOTH",
"567.11 632.55 OFFCURVE",
"568.08 626.95 OFFCURVE",
"569.9 621.2 CURVE SMOOTH",
"576.66 602.4 OFFCURVE",
"589.36 593 OFFCURVE",
"608 593 CURVE SMOOTH",
"612.48 593.11 OFFCURVE",
"617.07 593.9 OFFCURVE",
"621.76 595.38 CURVE SMOOTH",
"639.25 601.84 OFFCURVE",
"648 616.05 OFFCURVE",
"648 638 CURVE SMOOTH",
"647.93 641.99 OFFCURVE",
"647.44 646.19 OFFCURVE",
"646.54 650.6 CURVE SMOOTH",
"641.51 671.53 OFFCURVE",
"628.66 682 OFFCURVE",
"608 682 CURVE SMOOTH"
);
},
{
closed = 1;
nodes = (
"195 505.11 OFFCURVE",
"200.05 506.01 OFFCURVE",
"205.16 507.69 CURVE SMOOTH",
"222.39 514.25 OFFCURVE",
"231 527.35 OFFCURVE",
"231 547 CURVE SMOOTH",
"230.94 551.14 OFFCURVE",
"230.49 555.46 OFFCURVE",
"229.66 559.95 CURVE SMOOTH",
"224.88 581.99 OFFCURVE",
"211.66 593 OFFCURVE",
"190 593 CURVE SMOOTH",
"185.93 592.9 OFFCURVE",
"181.69 592.2 OFFCURVE",
"177.27 590.9 CURVE SMOOTH",
"159.09 584.6 OFFCURVE",
"150 569.96 OFFCURVE",
"150 547 CURVE SMOOTH",
"150.12 542.37 OFFCURVE",
"151.03 537.47 OFFCURVE",
"152.74 532.28 CURVE SMOOTH",
"159.6 514.09 OFFCURVE",
"172.02 505 OFFCURVE",
"190 505 CURVE SMOOTH"
);
},
{
closed = 1;
nodes = (
"361 329 LINE",
"372.66 163.81 OFFCURVE",
"369.66 16.81 OFFCURVE",
"352 -112 CURVE",
"408 -120 LINE",
"424.06 13.77 OFFCURVE",
"427.06 165.1 OFFCURVE",
"417 334 CURVE"
);
}
);
vertWidth = 1000;
width = 769;
}
);
note = u1B1B0;
unicode = 1B1B0;
},
{
glyphname = u1B1B1;
layers = (
{
hints = (
{
place = "{284, 52}";
type = Stem;
},
{
place = "{471, 52}";
type = Stem;
}
);
layerId = "A026023B-92C1-4D03-AC7E-471A27A73077";
paths = (
{
closed = 1;
nodes = (
"553 251 LINE",
"579.6 295.71 OFFCURVE",
"607.94 347.04 OFFCURVE",
"638 405 CURVE",
"593 430 LINE",
"573.62 388.57 OFFCURVE",
"551.62 346.9 OFFCURVE",
"527 305 CURVE",
"454 455 LINE",
"411 431 LINE",
"496 255 LINE",
"467.04 210.59 OFFCURVE",
"438.7 171.59 OFFCURVE",
"411 138 CURVE",
"393.42 263.58 OFFCURVE",
"364.42 393.92 OFFCURVE",
"324 529 CURVE",
"415.1 660.27 OFFCURVE",
"481.43 813.94 OFFCURVE",
"523 990 CURVE",
"471 1000 LINE",
"436.21 847.87 OFFCURVE",
"380.21 712.87 OFFCURVE",
"303 595 CURVE",
"282.86 659.18 OFFCURVE",
"259.19 725.85 OFFCURVE",
"232 795 CURVE",
"182 774 LINE",
"215.78 687.86 OFFCURVE",
"243.45 609.86 OFFCURVE",
"265 540 CURVE",
"220.13 480.31 OFFCURVE",
"169.46 424.65 OFFCURVE",
"113 373 CURVE",
"147 331 LINE",
"199.54 377.2 OFFCURVE",
"245.54 425.54 OFFCURVE",
"285 476 CURVE",
"324.07 341.58 OFFCURVE",
"352.07 207.58 OFFCURVE",
"369 74 CURVE",
"410 58 LINE",
"448.16 99.97 OFFCURVE",
"485.49 147.97 OFFCURVE",
"522 202 CURVE",
"607 26 LINE",
"650 51 LINE"
);
},
{
closed = 1;
nodes = (
"193 208 LINE",
"241.47 113.27 OFFCURVE",
"271.8 3.94 OFFCURVE",
"284 -120 CURVE",
"336 -116 LINE",
"323.35 14.61 OFFCURVE",
"291.02 131.28 OFFCURVE",
"239 234 CURVE"
);
}
);
vertWidth = 1000;
width = 769;
}
);
note = u1B1B1;
unicode = 1B1B1;
},
{
glyphname = u1B1B2;
layers = (
{
hints = (
{
horizontal = 1;
place = "{427, 50}";
type = Stem;
},
{
horizontal = 1;
place = "{655, 50}";
type = Stem;
},
{
place = "{87, 54}";
type = Stem;
},
{
place = "{232, 53}";
type = Stem;
},
{
place = "{435, 52}";
type = Stem;
},
{
place = "{545, 53}";
type = Stem;
}
);
layerId = "A026023B-92C1-4D03-AC7E-471A27A73077";
paths = (
{
closed = 1;
nodes = (
"554.56 714.55 OFFCURVE",
"583.56 846.22 OFFCURVE",
"598 996 CURVE",
"545 1000 LINE",
"535 876 OFFCURVE",
"511 761 OFFCURVE",
"473 655 CURVE",
"413.77 736.96 OFFCURVE",
"352.11 808.62 OFFCURVE",
"288 870 CURVE",
"252 832 LINE",
"313.03 774.74 OFFCURVE",
"378.7 695.41 OFFCURVE",
"449 594 CURVE",
"397.97 476.98 OFFCURVE",
"328.97 373.31 OFFCURVE",
"242 283 CURVE",
"279 243 LINE",
"365.65 328.88 OFFCURVE",
"434.32 428.21 OFFCURVE",
"485 541 CURVE",
"544.1 450.69 OFFCURVE",
"591.1 366.69 OFFCURVE",
"626 289 CURVE",
"673 312 LINE",
"626.97 412.47 OFFCURVE",
"572.97 508.8 OFFCURVE",
"511 601 CURVE"
);
},
{
closed = 1;
nodes = (
"284.83 602.05 OFFCURVE",
"278.29 630.54 OFFCURVE",
"265.36 654.49 CURVE SMOOTH",
"246.53 688.16 OFFCURVE",
"220.75 705 OFFCURVE",
"188 705 CURVE SMOOTH",
"173.02 704.81 OFFCURVE",
"158.47 700.78 OFFCURVE",
"144.37 692.89 CURVE SMOOTH",
"106.12 670.44 OFFCURVE",
"87 629.14 OFFCURVE",
"87 569 CURVE SMOOTH",
"87.16 534.35 OFFCURVE",
"93.9 504.59 OFFCURVE",
"107.21 479.72 CURVE SMOOTH",
"126.66 444.57 OFFCURVE",
"153.6 427 OFFCURVE",
"188 427 CURVE SMOOTH",
"202.51 427 OFFCURVE",
"216.38 431.26 OFFCURVE",
"229.61 439.77 CURVE SMOOTH",
"266.54 463.52 OFFCURVE",
"285 506.59 OFFCURVE",
"285 569 CURVE SMOOTH"
);
},
{
closed = 1;
nodes = (
"182.42 477.21 OFFCURVE",
"176.76 479.08 OFFCURVE",
"171.01 482.59 CURVE SMOOTH",
"151.01 496.49 OFFCURVE",
"141 524.29 OFFCURVE",
"141 566 CURVE SMOOTH",
"141.1 581.68 OFFCURVE",
"143.2 596.63 OFFCURVE",
"147.32 610.85 CURVE SMOOTH",
"156.28 640.28 OFFCURVE",
"169.84 655 OFFCURVE",
"188 655 CURVE SMOOTH",
"193.45 654.73 OFFCURVE",
"199.06 652.39 OFFCURVE",
"204.82 648 CURVE SMOOTH",
"222.94 632.34 OFFCURVE",
"232 605.01 OFFCURVE",
"232 566 CURVE SMOOTH",
"231.9 549.89 OFFCURVE",
"229.84 534.64 OFFCURVE",
"225.8 520.26 CURVE SMOOTH",
"217.26 491.42 OFFCURVE",
"204.66 477 OFFCURVE",
"188 477 CURVE SMOOTH"
);
},
{
closed = 1;
nodes = (
"441 324 LINE",
"455.16 164.96 OFFCURVE",
"453.16 19.29 OFFCURVE",
"435 -113 CURVE",
"487 -120 LINE",
"489.07 -106.72 OFFCURVE",
"490.99 -92.21 OFFCURVE",
"492.77 -76.48 CURVE SMOOTH",
"507.01 51.61 OFFCURVE",
"507.09 187.1 OFFCURVE",
"493 330 CURVE"
);
}
);
vertWidth = 1000;
width = 769;
}
);
note = u1B1B2;
unicode = 1B1B2;
},
